<svg width="82" height="99" viewBox="0 0 82 99" fill="none" xmlns="http://www.w3.org/2000/svg">
  <path fill-rule="evenodd" clip-rule="evenodd"
        d="M40.5502 0.0185547L17 8.30814L20.5919 39.0581L40.5502 49.981L60.5148 39.0685L64.1046 8.31232L40.5502 0.0206299V0.0185547ZM36.2483 26.3438H44.8563L40.5502 16.125L36.2483 26.3438ZM49.758 38.1371H55.2468L40.5523 5.53711L25.8517 38.1371H31.3446L34.3014 30.8434H46.8012L49.758 38.1371Z"
        fill="black"/>
  <path
    d="M8.22934 90.87H3.86434L3.11434 93H1.32934L5.06434 82.56H7.04434L10.7793 93H8.97934L8.22934 90.87ZM7.74934 89.475L6.05434 84.63L4.34434 89.475H7.74934ZM16.5733 84.6C17.2233 84.6 17.8033 84.735 18.3133 85.005C18.8333 85.275 19.2383 85.675 19.5283 86.205C19.8183 86.735 19.9633 87.375 19.9633 88.125V93H18.2683V88.38C18.2683 87.64 18.0833 87.075 17.7133 86.685C17.3433 86.285 16.8383 86.085 16.1983 86.085C15.5583 86.085 15.0483 86.285 14.6683 86.685C14.2983 87.075 14.1133 87.64 14.1133 88.38V93H12.4033V84.735H14.1133V85.68C14.3933 85.34 14.7483 85.075 15.1783 84.885C15.6183 84.695 16.0833 84.6 16.5733 84.6ZM25.4745 84.6C26.1145 84.6 26.6795 84.73 27.1695 84.99C27.6695 85.24 28.0595 85.555 28.3395 85.935V84.735H30.0645V93.135C30.0645 93.895 29.9045 94.57 29.5845 95.16C29.2645 95.76 28.7995 96.23 28.1895 96.57C27.5895 96.91 26.8695 97.08 26.0295 97.08C24.9095 97.08 23.9795 96.815 23.2395 96.285C22.4995 95.765 22.0795 95.055 21.9795 94.155H23.6745C23.8045 94.585 24.0795 94.93 24.4995 95.19C24.9295 95.46 25.4395 95.595 26.0295 95.595C26.7195 95.595 27.2745 95.385 27.6945 94.965C28.1245 94.545 28.3395 93.935 28.3395 93.135V91.755C28.0495 92.145 27.6545 92.475 27.1545 92.745C26.6645 93.005 26.1045 93.135 25.4745 93.135C24.7545 93.135 24.0945 92.955 23.4945 92.595C22.9045 92.225 22.4345 91.715 22.0845 91.065C21.7445 90.405 21.5745 89.66 21.5745 88.83C21.5745 88 21.7445 87.265 22.0845 86.625C22.4345 85.985 22.9045 85.49 23.4945 85.14C24.0945 84.78 24.7545 84.6 25.4745 84.6ZM28.3395 88.86C28.3395 88.29 28.2195 87.795 27.9795 87.375C27.7495 86.955 27.4445 86.635 27.0645 86.415C26.6845 86.195 26.2745 86.085 25.8345 86.085C25.3945 86.085 24.9845 86.195 24.6045 86.415C24.2245 86.625 23.9145 86.94 23.6745 87.36C23.4445 87.77 23.3295 88.26 23.3295 88.83C23.3295 89.4 23.4445 89.9 23.6745 90.33C23.9145 90.76 24.2245 91.09 24.6045 91.32C24.9945 91.54 25.4045 91.65 25.8345 91.65C26.2745 91.65 26.6845 91.54 27.0645 91.32C27.4445 91.1 27.7495 90.78 27.9795 90.36C28.2195 89.93 28.3395 89.43 28.3395 88.86ZM39.7955 84.735V93H38.0855V92.025C37.8155 92.365 37.4605 92.635 37.0205 92.835C36.5905 93.025 36.1305 93.12 35.6405 93.12C34.9905 93.12 34.4055 92.985 33.8855 92.715C33.3755 92.445 32.9705 92.045 32.6705 91.515C32.3805 90.985 32.2355 90.345 32.2355 89.595V84.735H33.9305V89.34C33.9305 90.08 34.1155 90.65 34.4855 91.05C34.8555 91.44 35.3605 91.635 36.0005 91.635C36.6405 91.635 37.1455 91.44 37.5155 91.05C37.8955 90.65 38.0855 90.08 38.0855 89.34V84.735H39.7955ZM43.7618 81.9V93H42.0518V81.9H43.7618ZM45.4368 88.83C45.4368 88 45.6068 87.265 45.9468 86.625C46.2968 85.985 46.7668 85.49 47.3568 85.14C47.9568 84.78 48.6168 84.6 49.3368 84.6C49.9868 84.6 50.5518 84.73 51.0318 84.99C51.5218 85.24 51.9118 85.555 52.2018 85.935V84.735H53.9268V93H52.2018V91.77C51.9118 92.16 51.5168 92.485 51.0168 92.745C50.5168 93.005 49.9468 93.135 49.3068 93.135C48.5968 93.135 47.9468 92.955 47.3568 92.595C46.7668 92.225 46.2968 91.715 45.9468 91.065C45.6068 90.405 45.4368 89.66 45.4368 88.83ZM52.2018 88.86C52.2018 88.29 52.0818 87.795 51.8418 87.375C51.6118 86.955 51.3068 86.635 50.9268 86.415C50.5468 86.195 50.1368 86.085 49.6968 86.085C49.2568 86.085 48.8468 86.195 48.4668 86.415C48.0868 86.625 47.7768 86.94 47.5368 87.36C47.3068 87.77 47.1918 88.26 47.1918 88.83C47.1918 89.4 47.3068 89.9 47.5368 90.33C47.7768 90.76 48.0868 91.09 48.4668 91.32C48.8568 91.54 49.2668 91.65 49.6968 91.65C50.1368 91.65 50.5468 91.54 50.9268 91.32C51.3068 91.1 51.6118 90.78 51.8418 90.36C52.0818 89.93 52.2018 89.43 52.2018 88.86ZM57.8829 85.935C58.1329 85.515 58.4629 85.19 58.8729 84.96C59.2929 84.72 59.7879 84.6 60.3579 84.6V86.37H59.9229C59.2529 86.37 58.7429 86.54 58.3929 86.88C58.0529 87.22 57.8829 87.81 57.8829 88.65V93H56.1729V84.735H57.8829V85.935ZM71.5112 82.575V90.09C71.5112 91.02 71.2262 91.755 70.6562 92.295C70.0962 92.835 69.3562 93.105 68.4362 93.105C67.5162 93.105 66.7712 92.835 66.2012 92.295C65.6412 91.755 65.3612 91.02 65.3612 90.09H67.0862C67.0962 90.55 67.2112 90.915 67.4312 91.185C67.6612 91.455 67.9962 91.59 68.4362 91.59C68.8762 91.59 69.2112 91.455 69.4412 91.185C69.6712 90.905 69.7862 90.54 69.7862 90.09V82.575H71.5112ZM77.293 93.135C76.643 93.135 76.058 93.02 75.538 92.79C75.028 92.55 74.623 92.23 74.323 91.83C74.023 91.42 73.863 90.965 73.843 90.465H75.613C75.643 90.815 75.808 91.11 76.108 91.35C76.418 91.58 76.803 91.695 77.263 91.695C77.743 91.695 78.113 91.605 78.373 91.425C78.643 91.235 78.778 90.995 78.778 90.705C78.778 90.395 78.628 90.165 78.328 90.015C78.038 89.865 77.573 89.7 76.933 89.52C76.313 89.35 75.808 89.185 75.418 89.025C75.028 88.865 74.688 88.62 74.398 88.29C74.118 87.96 73.978 87.525 73.978 86.985C73.978 86.545 74.108 86.145 74.368 85.785C74.628 85.415 74.998 85.125 75.478 84.915C75.968 84.705 76.528 84.6 77.158 84.6C78.098 84.6 78.853 84.84 79.423 85.32C80.003 85.79 80.313 86.435 80.353 87.255H78.643C78.613 86.885 78.463 86.59 78.193 86.37C77.923 86.15 77.558 86.04 77.098 86.04C76.648 86.04 76.303 86.125 76.063 86.295C75.823 86.465 75.703 86.69 75.703 86.97C75.703 87.19 75.783 87.375 75.943 87.525C76.103 87.675 76.298 87.795 76.528 87.885C76.758 87.965 77.098 88.07 77.548 88.2C78.148 88.36 78.638 88.525 79.018 88.695C79.408 88.855 79.743 89.095 80.023 89.415C80.303 89.735 80.448 90.16 80.458 90.69C80.458 91.16 80.328 91.58 80.068 91.95C79.808 92.32 79.438 92.61 78.958 92.82C78.488 93.03 77.933 93.135 77.293 93.135Z"
    fill="black"/>
</svg>
