<svg width="51" height="46" viewBox="0 0 51 46" fill="none" xmlns="http://www.w3.org/2000/svg">
  <path
    d="M38.5657 7.5584V18.9085L38.5744 18.9173L47.6899 22.132C49.3641 22.8158 50.486 24.4232 50.486 26.2259V37.433C50.486 39.1558 49.4605 40.7099 47.8915 41.367L38.776 45.1945C37.7418 45.6207 36.5848 45.6207 35.5505 45.1945L25.243 40.8697L14.9354 45.1945C13.9012 45.6207 12.7442 45.6207 11.7099 45.1945L2.5988 41.367C1.0255 40.7099 0 39.1558 0 37.433V26.2259C0 24.4232 1.1184 22.8158 2.79338 22.132L11.9115 18.9173L11.9203 18.9085V7.5584C11.9203 5.75657 13.0422 4.14922 14.7163 3.54357L23.8318 0.247963C24.7434 -0.0826544 25.7426 -0.0826544 26.6541 0.247963L35.7697 3.54357C37.4438 4.14922 38.5657 5.75657 38.5657 7.5584ZM25.7163 2.92461C25.4095 2.81449 25.0764 2.81449 24.7697 2.92461L15.6542 6.22013C15.4526 6.29383 15.2685 6.41372 15.1283 6.5638L25.1641 10.4898L35.3577 6.5638C35.2175 6.41372 35.0334 6.29383 34.8318 6.22013L25.7163 2.92461ZM14.7338 18.9173L23.7617 22.2031V12.9941L14.6462 9.45082V18.9085L14.7338 18.9173ZM26.6454 22.2031L35.7521 18.9173L35.7609 18.9085V9.45082L26.6454 12.9941V22.2031ZM13.945 30.9681V42.4948L23.7617 38.3832V27.3804L13.945 30.9681ZM3.67075 38.7473L11.1402 41.9087V30.9237L2.72589 27.4425V37.433C2.72589 38.0013 3.14661 38.5253 3.67075 38.7473ZM36.4621 30.9681L26.6454 27.3804V38.3832L36.4621 42.4948V30.9681ZM39.2669 41.9087L46.8135 38.7473C47.3394 38.5253 47.6812 38.0013 47.6812 37.433V27.4425L39.2669 30.9237V41.9087ZM13.796 21.5903C13.4892 21.4838 13.1562 21.4838 12.8494 21.5903L3.90477 24.8228L12.6565 28.446L22.6573 24.7962L13.796 21.5903ZM27.8286 24.7962L37.8294 28.446L46.5768 24.8228L37.6366 21.5903C37.3298 21.4838 36.9967 21.4838 36.69 21.5903L27.8286 24.7962Z"
    fill="#666666"/>
</svg>
