<svg width="39" height="39" viewBox="0 0 39 39" fill="none" xmlns="http://www.w3.org/2000/svg">
  <path
    d="M37.5449 9.72797C38.3727 10.1836 38.8815 11.0493 38.8815 11.991C38.8815 13.4263 37.7272 14.5806 36.2919 14.5806H2.58653C1.15809 14.5806 0 13.4263 0 11.991C0 11.0493 0.512218 10.1836 1.33731 9.72797L18.5598 0.226762C19.1066 -0.0755873 19.7749 -0.0755873 20.3217 0.226762L37.5449 9.72797ZM17.0107 9.72038C17.0107 8.37623 18.0966 7.29028 19.4407 7.29028C20.7849 7.29028 21.8708 8.37623 21.8708 9.72038C21.8708 10.1608 21.7493 10.5785 21.5443 10.9354H32.1836L19.4407 3.9041L6.69643 10.9354H17.3372C17.1322 10.5785 17.0107 10.1608 17.0107 9.72038ZM4.86019 17.0107H8.50533V29.1611H13.3655V17.0107H17.0107V29.1611H21.8708V17.0107H25.516V29.1611H30.3762V17.0107H34.0213V29.1611H34.6288C35.6388 29.1611 36.4514 29.9737 36.4514 30.9837C36.4514 31.9937 35.6388 32.8063 34.6288 32.8063H4.86019C3.85398 32.8063 3.03762 31.9937 3.03762 30.9837C3.03762 29.9737 3.85398 29.1611 4.86019 29.1611V17.0107ZM37.0589 35.2364C38.0689 35.2364 38.8815 36.0489 38.8815 37.0589C38.8815 38.0689 38.0689 38.8815 37.0589 38.8815H2.43009C1.42388 38.8815 0.607523 38.0689 0.607523 37.0589C0.607523 36.0489 1.42388 35.2364 2.43009 35.2364H37.0589Z"
    fill="#7D7D7D"/>
</svg>
