<svg width="60" height="60" viewBox="0 0 60 60" fill="none" xmlns="http://www.w3.org/2000/svg">
  <rect width="60" height="60" rx="10" fill="#E35A5A"/>
  <path
    d="M42 21H38V18C38 16.3456 36.6562 15 35 15H25C23.3438 15 22 16.3456 22 18V21H18C15.7906 21 14 22.7937 14 25V41C14 43.2094 15.7906 45 18 45H42C44.2094 45 46 43.2094 46 41V25C46 22.7937 44.2062 21 42 21ZM24 18C24 17.4481 24.45 17 25 17H35C35.55 17 36 17.4481 36 18V21H24V18ZM44 41C44 42.1025 43.1025 43 42 43H18C16.8975 43 16 42.1025 16 41V33H25V37C25 37.5527 25.4473 38 26 38H34C34.5527 38 35 37.5527 35 37V33H44V41ZM27 36V33H33V36H27ZM44 31H16V25C16 23.8975 16.8975 23 18 23H42C43.1025 23 44 23.8975 44 25V31Z"
    fill="white"/>
</svg>
