<svg width="30" height="30" viewBox="0 0 30 30" fill="none" xmlns="http://www.w3.org/2000/svg">
  <path
    d="M29.9531 22.3377L28.5908 28.1558C28.3995 28.9782 27.6656 29.5537 26.8061 29.5537C12.0234 29.5526 0 17.7086 0 3.14603C0 2.29987 0.584121 1.57607 1.41914 1.38849L7.32539 0.0465151C8.18555 -0.149846 9.06445 0.289975 9.42188 1.09239L12.1477 7.35492C12.4663 8.09257 12.2514 8.95201 11.6215 9.45878L8.4668 11.954C10.4578 15.9493 13.7555 19.1977 17.8125 21.1602L20.3953 18.0549C20.9044 17.4327 21.7834 17.2174 22.5322 17.5369L28.8896 20.2214C29.6543 20.6176 30.1523 21.495 29.9531 22.3377Z"
    fill="white"/>
</svg>
