<svg width="18" height="18" viewBox="0 0 18 18" fill="none" xmlns="http://www.w3.org/2000/svg">
  <path
    d="M17.9736 13.605L17.1561 17.1486C17.0413 17.6495 16.6009 18 16.0852 18C7.21475 17.9993 0 10.7856 0 1.91613C0 1.40076 0.350506 0.959924 0.851565 0.845672L4.39565 0.0283305C4.91179 -0.091265 5.43919 0.176612 5.65366 0.66533L7.28928 4.47959C7.48048 4.92886 7.35152 5.45231 6.97355 5.76097L5.08056 7.2807C6.27528 9.71409 8.25406 11.6926 10.6885 12.8878L12.2383 10.9965C12.5438 10.6176 13.0713 10.4864 13.5206 10.681L17.3354 12.316C17.7943 12.5574 18.0931 13.0917 17.9736 13.605Z"
    fill="white"/>
</svg>
