<svg width="60" height="60" viewBox="0 0 60 60" fill="none" xmlns="http://www.w3.org/2000/svg">
  <rect width="60" height="60" rx="10" fill="#59D258"/>
  <path
    d="M29.7441 33.75C33.108 33.75 35.7852 31.0219 35.7852 27.6562C35.7852 24.2906 33.0582 21.5625 29.7441 21.5625C26.3803 21.5625 23.7031 24.2906 23.7031 27.6562C23.6504 31.0195 26.3809 33.75 29.7441 33.75ZM29.7441 23.4375C32.0691 23.4375 33.9605 25.3301 33.9605 27.6562C33.9605 29.9824 32.0645 31.875 29.7441 31.875C27.4238 31.875 25.5254 29.9824 25.5254 27.6562C25.5254 25.3301 27.418 23.4375 29.7441 23.4375ZM32.6738 35.625H26.8262C22.2266 35.625 18.5 39.123 18.5 43.4355C18.5 44.3027 19.2441 45 20.1641 45H39.3359C40.2559 45 41 44.3027 41 43.4355C41 39.123 37.2734 35.625 32.6738 35.625ZM20.3867 43.125C20.5637 39.9955 23.3861 37.5 26.7793 37.5H32.6738C36.118 37.5 38.9375 39.9955 39.0664 43.125H20.3867ZM41 24.375C43.5887 24.375 45.6875 22.2762 45.6875 19.6875C45.6875 17.0988 43.5898 15 41 15C38.4113 15 36.3125 17.0988 36.3125 19.6875C36.3125 22.2762 38.4102 24.375 41 24.375ZM41 16.875C42.551 16.875 43.8125 18.1365 43.8125 19.6875C43.8125 21.2385 42.5527 22.5 41 22.5C39.4473 22.5 38.1875 21.2385 38.1875 19.6875C38.1875 18.1365 39.4473 16.875 41 16.875ZM18.5 24.375C21.0887 24.375 23.1875 22.2762 23.1875 19.6875C23.1875 17.0988 21.0898 15 18.5 15C15.9113 15 13.8125 17.0988 13.8125 19.6875C13.8125 22.2762 15.9113 24.375 18.5 24.375ZM18.5 16.875C20.051 16.875 21.3125 18.1365 21.3125 19.6875C21.3125 21.2385 20.0527 22.5 18.5 22.5C16.9473 22.5 15.6875 21.2402 15.6875 19.6875C15.6875 18.1348 16.9473 16.875 18.5 16.875ZM43.877 26.25H40.0625C39.4086 26.25 38.7687 26.3965 38.16 26.6858C37.6921 26.9083 37.4926 27.4675 37.715 27.9345C37.9374 28.4014 38.499 28.6018 38.9636 28.3794C39.3184 28.2129 39.6875 28.125 40.0625 28.125H43.8758C45.3418 28.125 46.625 29.4551 46.625 31.0957V31.875C46.625 32.3932 47.0443 32.8125 47.5625 32.8125C48.0807 32.8125 48.5 32.3906 48.5 31.875V31.0957C48.5 28.4238 46.4258 26.25 43.877 26.25ZM20.5391 28.377C21.0042 28.5994 21.5662 28.3989 21.7877 27.932C22.0102 27.4651 21.8106 26.9054 21.3427 26.6834C20.7324 26.3965 20.0938 26.25 19.4375 26.25H15.6242C13.0748 26.25 11 28.4238 11 31.0957V31.875C11 32.3932 11.4193 32.8125 11.9375 32.8125C12.4557 32.8125 12.875 32.3906 12.875 31.875V31.0957C12.875 29.4551 14.1084 28.125 15.6242 28.125H19.4375C19.8125 28.125 20.1816 28.2129 20.5391 28.377Z"
    fill="white"/>
</svg>
