<svg width="687" height="344" viewBox="0 0 687 344" fill="none" xmlns="http://www.w3.org/2000/svg">
  <g clip-path="url(#clip0_253_3503)">
    <path
      d="M225.987 344C205.281 344 184.606 343.629 163.961 342.888C134.463 341.828 103.961 340.734 75.6094 325.009C55.7766 314.01 38.2115 296.364 24.8137 273.976C15.8588 258.801 9.29272 242.339 5.34601 225.167C-2.01612 193.904 -1.76535 161.329 6.07722 130.182C8.82555 119.503 12.6143 109.12 17.3892 99.1802C38.0645 56.3658 75.7747 27.6256 120.851 20.3295C121.223 20.2812 121.6 20.2732 121.974 20.3056C122.176 20.3164 122.378 20.328 122.584 20.3194L122.85 20.2351C123.53 19.9988 124.228 19.8196 124.938 19.6993C194.457 9.34986 267.949 30.2904 337.463 80.2555C391.212 118.894 462.444 139.7 555.23 143.862L556.547 143.931C582.377 145.415 607.361 156.064 628.803 174.728C649.967 193.15 665.857 217.727 674.756 245.805C675.85 249.229 676.853 252.792 677.737 256.396C678.56 259.745 678.502 263.25 677.568 266.571C676.635 269.891 674.858 272.913 672.411 275.343V275.349L672.18 275.587C671.624 276.14 671.038 276.671 670.44 277.164L669.736 277.744C663.807 282.629 659.123 286.488 653.518 289.484C649.78 291.47 645.804 292.971 641.686 293.951C619.075 299.464 596.114 304.575 573.439 309.143C529.404 318.022 484.208 325.346 439.107 330.912C368.402 339.63 297.228 344.001 225.987 344ZM121.446 21.8219C121.308 21.8206 121.17 21.83 121.033 21.85C76.3777 29.0779 39.0244 57.5359 18.5541 99.9266C13.8264 109.768 10.0752 120.048 7.35415 130.622C-0.416957 161.492 -0.6646 193.777 6.63204 224.763C10.5401 241.771 17.0426 258.076 25.911 273.105C39.1777 295.273 56.5631 312.743 76.188 323.626C104.285 339.209 134.644 340.3 164.003 341.353C255.829 344.634 347.771 340.633 438.965 329.386C484.036 323.824 529.203 316.504 573.209 307.631C595.869 303.066 618.814 297.959 641.41 292.45C645.428 291.494 649.309 290.029 652.957 288.092C658.449 285.156 663.088 281.334 668.96 276.496L669.664 275.917C670.179 275.492 670.684 275.038 671.167 274.566L671.305 274.42C676.132 269.556 678.008 263.138 676.454 256.813V256.812C675.58 253.247 674.588 249.722 673.505 246.334C655.326 188.976 608.298 148.44 556.483 145.465L555.173 145.396C512.79 143.494 475.701 138.226 441.792 129.288C401.314 118.62 365.975 102.561 336.758 81.5572C267.508 31.7836 194.323 10.9209 125.107 21.2213C124.461 21.3328 123.825 21.4978 123.205 21.7144L122.727 21.8482C122.456 21.8603 122.184 21.8571 121.912 21.8384C121.753 21.8302 121.598 21.8219 121.446 21.8219H121.446Z"
      fill="#F0F0F0"/>
    <path
      d="M214.348 112.08C212.431 110.24 210.47 99.9845 208.023 98.9434C209.852 102.986 208.524 104.057 208.514 108.494C208.537 111.013 208.243 113.526 207.638 115.972H166.182V83.6178C166.182 80.7107 166.754 77.8321 167.867 75.1463C168.979 72.4605 170.61 70.0201 172.665 67.9645C174.721 65.9089 177.161 64.2783 179.847 63.1658C182.533 62.0534 185.411 61.4809 188.319 61.481C189.428 61.5026 190.53 61.664 191.6 61.9613C195.163 62.9234 198.411 64.8055 201.017 67.419C203.623 70.0325 205.497 73.2853 206.449 76.8513C209.609 88.4031 214.636 107.632 214.348 112.08Z"
      fill="#2F2E41"/>
    <path
      d="M168.615 151.881L168.635 126.663L153.812 127.987L159.043 143.892L156.595 183.87C155.407 184.136 154.323 184.742 153.474 185.614C152.625 186.487 152.048 187.587 151.814 188.781C151.579 189.975 151.697 191.212 152.154 192.34C152.61 193.469 153.385 194.44 154.383 195.135C155.382 195.831 156.562 196.221 157.778 196.258C158.995 196.295 160.195 195.977 161.234 195.343C162.273 194.709 163.105 193.786 163.629 192.688C164.153 191.589 164.346 190.362 164.184 189.156L168.615 151.881Z"
      fill="#FFB6B6"/>
    <path d="M197.788 332.089L203.776 332.088L206.626 308.989H197.786L197.788 332.089Z" fill="#FFB6B6"/>
    <path
      d="M195.759 329.134L205.226 328.569V332.625L214.227 338.841C214.672 339.148 215.006 339.589 215.183 340.1C215.359 340.611 215.367 341.165 215.206 341.68C215.045 342.196 214.724 342.647 214.289 342.967C213.854 343.287 213.328 343.46 212.787 343.46H201.516L199.574 339.448L198.815 343.46H194.565L195.759 329.134Z"
      fill="#2F2E41"/>
    <path d="M163.159 332.089L169.148 332.088L171.997 308.989H163.158L163.159 332.089Z" fill="#FFB6B6"/>
    <path
      d="M161.131 329.134L170.598 328.569V332.625L179.599 338.841C180.044 339.148 180.378 339.589 180.555 340.1C180.731 340.611 180.739 341.165 180.578 341.68C180.418 342.196 180.096 342.647 179.661 342.967C179.226 343.287 178.7 343.46 178.159 343.46H166.888L164.946 339.448L164.187 343.46H159.938L161.131 329.134Z"
      fill="#2F2E41"/>
    <path
      d="M192.455 99.4297L180.048 99.673L171.291 108.917L164.27 109.947C161.094 110.412 158.174 111.954 155.998 114.314C153.823 116.674 152.523 119.71 152.316 122.913L153.533 129.594H160.831L165.052 154.383C163.411 158.566 163.299 161.867 166.669 163.164L177.129 182.869L208.023 169.003C209.59 166.309 210.092 163.604 208.491 160.973L210.699 123.026H218.126C218.126 115.929 215.725 109.946 208.672 109.156C205.871 108.853 203.056 108.692 200.239 108.674L192.455 99.4297Z"
      fill="#E6E6E6"/>
    <path
      d="M208.023 169.003C208.023 169.003 177.858 174.355 166.668 163.165C166.668 163.165 165.532 165.093 163.82 168.292C163.328 169.212 162.377 169.835 161.803 170.949C161.281 171.962 159.939 173.206 159.37 174.355C158.913 175.279 159.647 176.486 159.171 177.484C153.44 189.504 146.745 206.459 148.18 217.655C149.106 224.875 151.018 241.675 153.031 259.72C153.189 261.13 151.914 262.941 152.072 264.362C152.222 265.702 153.803 266.651 153.952 267.994C154.051 268.886 152.947 269.796 153.045 270.686C153.154 271.664 154.465 272.622 154.573 273.595C157.331 298.51 159.857 321.772 159.857 321.772H173.966L176.628 268.645L174.453 249.279L179.561 210.114L186.616 247.333L187.523 268.28L194.979 322.745H208.023V270.02L208.996 267.281L208.023 263.768L208.996 259.983L208.023 255.861V169.003Z"
      fill="#2F2E41"/>
    <path
      d="M196.262 92.2351C194.34 94.788 191.606 96.6103 188.51 97.4018C185.415 98.1934 182.141 97.907 179.23 96.5899C176.319 95.2727 173.943 93.0034 172.494 90.1556C171.044 87.3077 170.608 84.0512 171.257 80.9223C171.905 77.7935 173.6 74.9788 176.062 72.9419C178.524 70.905 181.607 69.7673 184.802 69.7162C187.997 69.665 191.114 70.7035 193.64 72.6606C196.166 74.6177 197.95 77.3767 198.698 80.4832C198.739 80.6518 198.773 80.8194 198.806 80.9934C199.201 82.9405 199.179 84.9494 198.74 86.8873C198.302 88.8251 197.457 90.6479 196.262 92.2351Z"
      fill="#FFB6B6"/>
    <path
      d="M193.33 84.2114C193.032 82.7141 192.277 81.3459 191.17 80.2948C191.279 81.7297 191.08 83.1712 190.586 84.5228C186.887 84.8503 183.172 84.1143 179.878 82.4015C177.396 80.7182 174.239 80.8641 170.561 82.4015C170.56 80.6125 170.913 78.841 171.597 77.1881C172.282 75.5352 173.285 74.0333 174.55 72.7683C175.815 71.5033 177.317 70.4999 178.97 69.8153C180.623 69.1308 182.394 68.7786 184.183 68.7788H186.616C190.229 68.7795 193.693 70.2149 196.248 72.7695C198.802 75.3241 200.238 78.7888 200.239 82.4015C197.993 83.2068 195.682 83.8124 193.33 84.2114Z"
      fill="#2F2E41"/>
    <path
      d="M86.9046 257.838C108.519 257.838 126.041 240.316 126.041 218.701C126.041 197.087 108.519 179.565 86.9046 179.565C65.2904 179.565 47.7686 197.087 47.7686 218.701C47.7686 240.316 65.2904 257.838 86.9046 257.838Z"
      fill="#F7FFFD"/>
    <path
      d="M336.301 78.2721C357.915 78.2721 375.437 60.7503 375.437 39.1361C375.437 17.5218 357.915 0 336.301 0C314.687 0 297.165 17.5218 297.165 39.1361C297.165 60.7503 314.687 78.2721 336.301 78.2721Z"
      fill="#F7FFFD"/>
    <path
      d="M647.087 263.977C668.701 263.977 686.223 246.455 686.223 224.841C686.223 203.226 668.701 185.705 647.087 185.705C625.473 185.705 607.951 203.226 607.951 224.841C607.951 246.455 625.473 263.977 647.087 263.977Z"
      fill="#F7FFFD"/>
    <path
      d="M406.899 43.4039V132.148C406.9 133.991 406.172 135.76 404.876 137.07C403.579 138.381 401.818 139.126 399.975 139.146C399.949 139.148 399.924 139.149 399.898 139.149H389.569C381.305 139.149 373.38 135.866 367.536 130.022C361.692 124.178 358.409 116.253 358.409 107.988V43.4039C358.409 41.5471 359.147 39.7663 360.46 38.4534C361.773 37.1404 363.553 36.4028 365.41 36.4028H369.595C367.657 42.0589 393.971 44.4401 395.416 36.4028H399.898C401.755 36.4028 403.536 37.1405 404.849 38.4534C406.162 39.7664 406.899 41.5471 406.899 43.4039Z"
      fill="#78C1B2"/>
    <path
      d="M376.248 29.7671C376.248 29.5239 376.345 29.2907 376.517 29.1187C376.689 28.9467 376.922 28.8499 377.166 28.8496H383.405C383.647 28.8503 383.88 28.9473 384.052 29.1193C384.223 29.2913 384.319 29.5242 384.319 29.7671C384.319 30.01 384.223 30.243 384.052 30.415C383.88 30.587 383.647 30.6839 383.405 30.6846H377.166C376.922 30.6843 376.689 30.5876 376.517 30.4156C376.345 30.2436 376.248 30.0104 376.248 29.7671Z"
      fill="#3F3D56"/>
    <path
      d="M402.041 150.405H362.586C359.525 150.402 356.59 149.184 354.426 147.02C352.261 144.855 351.044 141.92 351.04 138.859V76.8238C350.823 76.6682 350.647 76.4632 350.525 76.2258C350.404 75.9884 350.34 75.7255 350.341 75.4588V69.2198C350.34 68.9531 350.404 68.6902 350.525 68.4528C350.647 68.2155 350.823 68.0106 351.04 67.8551V66.1806C350.823 66.0251 350.647 65.8202 350.525 65.5829C350.404 65.3455 350.34 65.0826 350.341 64.816V58.5766C350.34 58.3099 350.404 58.047 350.525 57.8097C350.647 57.5723 350.823 57.3674 351.04 57.2119V54.1855C350.773 54.0419 350.549 53.8282 350.394 53.5673C350.238 53.3065 350.156 53.0084 350.157 52.7047V46.4657C350.156 46.162 350.238 45.8638 350.394 45.6029C350.549 45.342 350.772 45.1283 351.04 44.9845V36.6918C351.044 33.6307 352.261 30.696 354.426 28.5315C356.59 26.367 359.525 25.1494 362.586 25.146H402.041C405.103 25.1494 408.037 26.367 410.202 28.5315C412.366 30.696 413.584 33.6307 413.587 36.6918V54.7682C413.795 54.8982 413.967 55.079 414.086 55.2935C414.204 55.5081 414.267 55.7493 414.267 55.9945V67.8911C414.267 68.1364 414.204 68.3777 414.086 68.5922C413.967 68.8068 413.795 68.9877 413.587 69.1178V138.859C413.584 141.92 412.366 144.855 410.202 147.02C408.037 149.184 405.103 150.402 402.041 150.405ZM362.586 26.6807C359.932 26.6837 357.387 27.7394 355.51 29.6162C353.634 31.493 352.578 34.0376 352.575 36.6918V46.29L351.837 46.3185C351.798 46.3198 351.762 46.3359 351.735 46.3633C351.708 46.3907 351.693 46.4273 351.692 46.4657V52.7047C351.693 52.743 351.708 52.7797 351.735 52.807C351.762 52.8344 351.798 52.8505 351.837 52.852L352.575 52.8801V58.2895L351.991 58.4334C351.959 58.4412 351.93 58.4595 351.909 58.4854C351.888 58.5112 351.876 58.5433 351.876 58.5765V64.8159C351.876 64.8492 351.888 64.8813 351.909 64.9071C351.93 64.933 351.959 64.9513 351.991 64.9591L352.575 65.103V68.9327L351.991 69.0766C351.959 69.0844 351.93 69.1027 351.909 69.1285C351.888 69.1544 351.876 69.1865 351.876 69.2197V75.4588C351.876 75.4921 351.888 75.5242 351.909 75.5501C351.93 75.5761 351.959 75.5944 351.991 75.6022L352.575 75.7461V138.859C352.578 141.513 353.634 144.058 355.51 145.935C357.387 147.812 359.932 148.867 362.586 148.87H402.041C404.696 148.867 407.24 147.812 409.117 145.935C410.994 144.058 412.049 141.513 412.053 138.859V67.8038H412.732V56.0822H412.053V36.6918C412.049 34.0376 410.994 31.493 409.117 29.6162C407.24 27.7395 404.696 26.6838 402.041 26.6807L362.586 26.6807Z"
      fill="#3F3D56"/>
    <path
      d="M386.892 30.6846C387.399 30.6846 387.81 30.2738 387.81 29.7671C387.81 29.2604 387.399 28.8496 386.892 28.8496C386.385 28.8496 385.975 29.2604 385.975 29.7671C385.975 30.2738 386.385 30.6846 386.892 30.6846Z"
      fill="#3F3D56"/>
    <path
      d="M187.301 207.5H84.6358C83.1779 207.497 81.7807 206.916 80.7497 205.885C79.7187 204.854 79.1377 203.457 79.1338 201.999V151.975C79.1375 150.517 79.7183 149.12 80.7492 148.089C81.78 147.058 83.1771 146.477 84.635 146.473H187.3C188.758 146.476 190.155 147.057 191.186 148.088C192.217 149.119 192.798 150.516 192.802 151.974V201.998C192.798 203.456 192.217 204.853 191.186 205.884C190.156 206.915 188.758 207.496 187.301 207.5Z"
      fill="white"/>
    <path
      d="M187.301 207.5H84.6358C83.1779 207.497 81.7807 206.916 80.7497 205.885C79.7187 204.854 79.1377 203.457 79.1338 201.999V151.975C79.1375 150.517 79.7183 149.12 80.7492 148.089C81.78 147.058 83.1771 146.477 84.635 146.473H187.3C188.758 146.476 190.155 147.057 191.186 148.088C192.217 149.119 192.798 150.516 192.802 151.974V201.998C192.798 203.456 192.217 204.853 191.186 205.884C190.156 206.915 188.758 207.496 187.301 207.5ZM84.6358 148.007C83.5844 148.011 82.577 148.43 81.8337 149.173C81.0903 149.917 80.6714 150.924 80.6685 151.975V201.998C80.6716 203.05 81.0906 204.057 81.8341 204.8C82.5777 205.544 83.5852 205.963 84.6365 205.966H187.299C188.351 205.963 189.358 205.544 190.102 204.8C190.845 204.057 191.264 203.049 191.267 201.997V151.975C191.264 150.923 190.845 149.916 190.101 149.173C189.358 148.429 188.35 148.01 187.299 148.007L84.6358 148.007Z"
      fill="#3F3D56"/>
    <path
      d="M141.471 200.107C121.223 200.107 100.11 199.914 92.233 199.788C91.1966 199.767 90.2096 199.341 89.4827 198.602C88.7559 197.863 88.3468 196.869 88.3428 195.832V154.423C88.3432 154.052 88.4906 153.696 88.7527 153.433C89.0149 153.171 89.3705 153.022 89.7417 153.021H182.192C182.563 153.021 182.919 153.169 183.181 153.431C183.444 153.693 183.592 154.049 183.594 154.42V182.515C183.577 187.101 181.762 191.498 178.541 194.762C175.319 198.026 170.946 199.897 166.361 199.974C159.019 200.07 150.326 200.107 141.471 200.107Z"
      fill="#78C1B2"/>
    <path
      d="M176.703 179.934H93.1675C92.468 179.932 91.7861 179.714 91.2144 179.311C90.6427 178.908 90.2089 178.339 89.9721 177.681L80.5171 151.156C80.3348 150.644 80.2781 150.096 80.3515 149.558C80.4249 149.02 80.6263 148.507 80.9389 148.063C81.2515 147.619 81.6661 147.257 82.1479 147.006C82.6296 146.755 83.1645 146.624 83.7076 146.623L188.126 146.478C188.622 146.477 189.113 146.585 189.563 146.795C190.013 147.005 190.411 147.31 190.73 147.691C191.049 148.071 191.281 148.517 191.409 148.996C191.537 149.476 191.558 149.977 191.471 150.466L191.552 150.5L191.252 151.2L191.249 151.207L179.819 177.877C179.559 178.488 179.124 179.008 178.57 179.374C178.016 179.74 177.367 179.934 176.703 179.934ZM188.131 148.012L83.7105 148.158C83.4131 148.158 83.12 148.23 82.8561 148.367C82.5922 148.505 82.365 148.703 82.1938 148.946C82.0225 149.19 81.9122 149.471 81.8719 149.765C81.8317 150.06 81.8628 150.36 81.9626 150.64L91.4173 177.165C91.5472 177.525 91.785 177.837 92.0983 178.058C92.4116 178.279 92.7853 178.398 93.1686 178.399H176.703C177.067 178.399 177.422 178.293 177.725 178.092C178.028 177.892 178.266 177.607 178.408 177.273L189.839 150.602L190.401 150.843L189.839 150.602C189.96 150.32 190.009 150.011 189.981 149.705C189.954 149.399 189.851 149.104 189.682 148.847C189.513 148.591 189.282 148.38 189.012 148.234C188.741 148.089 188.438 148.012 188.131 148.012Z"
      fill="#3F3D56"/>
    <path
      d="M135.813 185.708C139.425 185.708 142.354 182.779 142.354 179.167C142.354 175.554 139.425 172.625 135.813 172.625C132.2 172.625 129.271 175.554 129.271 179.167C129.271 182.779 132.2 185.708 135.813 185.708Z"
      fill="white"/>
    <path
      d="M382.906 128.922C386.519 128.922 389.447 125.994 389.447 122.381C389.447 118.768 386.519 115.84 382.906 115.84C379.294 115.84 376.365 118.768 376.365 122.381C376.365 125.994 379.294 128.922 382.906 128.922Z"
      fill="white"/>
    <path
      d="M630.306 217.259L612.833 200.008C611.982 199.162 610.973 198.492 609.863 198.036C608.753 197.58 607.564 197.348 606.364 197.353H606.302C605.093 197.357 603.897 197.6 602.783 198.069C601.668 198.538 600.658 199.223 599.81 200.085C595.903 204.039 593.681 209.353 593.611 214.912C593.541 220.47 595.628 225.839 599.434 229.89C599.618 230.089 599.81 230.281 600.002 230.473C601.065 231.529 602.238 232.468 603.501 233.274C606.956 235.506 610.984 236.687 615.096 236.673H615.227C618.05 236.664 620.842 236.094 623.444 234.999C626.045 233.903 628.404 232.302 630.382 230.289C632.097 228.549 633.052 226.201 633.038 223.758C633.023 221.315 632.041 218.978 630.306 217.259ZM629.293 229.207C626.049 232.475 621.777 234.525 617.198 235.011C612.619 235.498 608.012 234.391 604.154 231.877C603.05 231.147 602.019 230.312 601.076 229.383C597.311 225.665 595.178 220.603 595.145 215.312C595.112 210.02 597.182 204.932 600.9 201.167C601.607 200.447 602.45 199.874 603.38 199.483C604.31 199.092 605.309 198.889 606.318 198.888H606.364C607.363 198.884 608.353 199.078 609.277 199.457C610.201 199.836 611.042 200.394 611.751 201.098L629.224 218.356C630.67 219.787 631.49 221.733 631.503 223.767C631.516 225.802 630.721 227.758 629.293 229.207Z"
      fill="#3F3D56"/>
    <path
      d="M572.974 160.642L555.501 143.384C553.781 141.677 551.454 140.722 549.032 140.729H548.978C547.767 140.733 546.57 140.978 545.454 141.448C544.338 141.918 543.327 142.605 542.478 143.468C539.248 146.748 537.154 150.977 536.502 155.534C535.85 160.091 536.675 164.737 538.856 168.791L538.864 168.799C539.764 170.457 540.881 171.988 542.187 173.35C542.332 173.518 542.501 173.687 542.67 173.856C546.683 177.839 552.111 180.069 557.764 180.056H557.902C560.726 180.045 563.518 179.474 566.12 178.377C568.721 177.279 571.079 175.678 573.058 173.664C573.908 172.804 574.579 171.784 575.035 170.664C575.491 169.544 575.721 168.345 575.713 167.136C575.705 165.926 575.459 164.73 574.989 163.616C574.519 162.502 573.834 161.491 572.974 160.642V160.642ZM571.961 172.59C570.124 174.458 567.935 175.945 565.521 176.963C563.107 177.981 560.515 178.511 557.895 178.522H557.764C553.829 178.52 549.983 177.355 546.708 175.173C543.434 172.991 540.878 169.89 539.361 166.259C537.845 162.628 537.436 158.63 538.186 154.767C538.935 150.905 540.811 147.35 543.576 144.55C545.006 143.104 546.952 142.284 548.987 142.271C551.021 142.258 552.977 143.053 554.426 144.481L571.899 161.732C573.345 163.165 574.163 165.113 574.175 167.148C574.186 169.184 573.39 171.141 571.961 172.59L571.961 172.59Z"
      fill="#3F3D56"/>
    <path
      d="M631.422 222.682L612.158 203.656C610.895 202.412 609.19 201.719 607.416 201.73C605.643 201.741 603.946 202.455 602.698 203.715C601.138 205.292 599.903 207.161 599.065 209.215C598.227 211.269 597.802 213.468 597.815 215.687C597.827 217.906 598.277 220.1 599.138 222.145C599.999 224.189 601.255 226.044 602.833 227.603C604.412 229.162 606.282 230.395 608.337 231.23C610.393 232.066 612.592 232.488 614.811 232.473C617.029 232.458 619.223 232.006 621.267 231.143C623.311 230.279 625.164 229.022 626.721 227.441L631.422 222.682Z"
      fill="#78C1B2"/>
    <path
      d="M574.094 166.062L554.83 147.036C553.567 145.791 551.862 145.098 550.088 145.11C548.315 145.121 546.618 145.835 545.37 147.095C543.81 148.672 542.575 150.541 541.737 152.595C540.899 154.649 540.474 156.848 540.487 159.067C540.499 161.285 540.949 163.48 541.81 165.524C542.671 167.569 543.927 169.424 545.505 170.983C547.084 172.542 548.954 173.775 551.009 174.61C553.064 175.446 555.264 175.868 557.483 175.853C559.701 175.838 561.895 175.386 563.939 174.523C565.982 173.659 567.836 172.402 569.393 170.821L574.094 166.062Z"
      fill="#78C1B2"/>
    <path
      d="M610.252 234.532L609.792 235.745C607.628 234.924 605.531 234.1 603.5 233.274C567.525 218.594 550.351 201.413 538.864 168.799L538.856 168.791C538.311 167.257 537.782 165.686 537.268 164.08L538.48 163.688C538.885 165.233 539.478 166.723 540.245 168.124C540.874 169.912 541.521 171.654 542.186 173.35C552.983 200.875 568.906 216.607 599.433 229.89C600.967 230.557 602.54 231.22 604.152 231.877C606.023 233.096 608.085 233.994 610.252 234.532Z"
      fill="#3F3D56"/>
    <path d="M555.18 178.66L554.102 179.752L593.957 219.117L595.036 218.024L555.18 178.66Z" fill="#3F3D56"/>
    <path
      d="M217.753 146.043L217.774 120.825L202.95 122.149L208.182 138.054L189.191 166.842C188.004 167.108 186.919 167.714 186.071 168.586C185.222 169.459 184.645 170.559 184.41 171.753C184.176 172.947 184.294 174.184 184.75 175.312C185.207 176.441 185.981 177.412 186.98 178.107C187.979 178.803 189.158 179.193 190.375 179.23C191.591 179.267 192.792 178.949 193.831 178.315C194.87 177.681 195.702 176.758 196.226 175.66C196.749 174.561 196.942 173.334 196.781 172.128L217.753 146.043Z"
      fill="#FFB6B6"/>
  </g>
  <defs>
    <clipPath id="clip0_253_3503">
      <rect width="686.223" height="344" fill="white"/>
    </clipPath>
  </defs>
</svg>
