<svg width="44" height="98" viewBox="0 0 44 98" fill="none" xmlns="http://www.w3.org/2000/svg">
  <path
    d="M3.24836 86.765C3.24836 85.745 3.48336 84.83 3.95336 84.02C4.43336 83.21 5.07836 82.58 5.88836 82.13C6.70836 81.67 7.60336 81.44 8.57336 81.44C9.68336 81.44 10.6684 81.715 11.5284 82.265C12.3984 82.805 13.0284 83.575 13.4184 84.575H11.3634C11.0934 84.025 10.7184 83.615 10.2384 83.345C9.75836 83.075 9.20336 82.94 8.57336 82.94C7.88336 82.94 7.26836 83.095 6.72836 83.405C6.18836 83.715 5.76336 84.16 5.45336 84.74C5.15336 85.32 5.00336 85.995 5.00336 86.765C5.00336 87.535 5.15336 88.21 5.45336 88.79C5.76336 89.37 6.18836 89.82 6.72836 90.14C7.26836 90.45 7.88336 90.605 8.57336 90.605C9.20336 90.605 9.75836 90.47 10.2384 90.2C10.7184 89.93 11.0934 89.52 11.3634 88.97H13.4184C13.0284 89.97 12.3984 90.74 11.5284 91.28C10.6684 91.82 9.68336 92.09 8.57336 92.09C7.59336 92.09 6.69836 91.865 5.88836 91.415C5.07836 90.955 4.43336 90.32 3.95336 89.51C3.48336 88.7 3.24836 87.785 3.24836 86.765ZM18.8549 92.105C18.1549 92.105 17.5249 91.985 16.9649 91.745C16.4049 91.495 15.9649 91.145 15.6449 90.695C15.3249 90.245 15.1649 89.72 15.1649 89.12H16.9949C17.0349 89.57 17.2099 89.94 17.5199 90.23C17.8399 90.52 18.2849 90.665 18.8549 90.665C19.4449 90.665 19.9049 90.525 20.2349 90.245C20.5649 89.955 20.7299 89.585 20.7299 89.135C20.7299 88.785 20.6249 88.5 20.4149 88.28C20.2149 88.06 19.9599 87.89 19.6499 87.77C19.3499 87.65 18.9299 87.52 18.3899 87.38C17.7099 87.2 17.1549 87.02 16.7249 86.84C16.3049 86.65 15.9449 86.36 15.6449 85.97C15.3449 85.58 15.1949 85.06 15.1949 84.41C15.1949 83.81 15.3449 83.285 15.6449 82.835C15.9449 82.385 16.3649 82.04 16.9049 81.8C17.4449 81.56 18.0699 81.44 18.7799 81.44C19.7899 81.44 20.6149 81.695 21.2549 82.205C21.9049 82.705 22.2649 83.395 22.3349 84.275H20.4449C20.4149 83.895 20.2349 83.57 19.9049 83.3C19.5749 83.03 19.1399 82.895 18.5999 82.895C18.1099 82.895 17.7099 83.02 17.3999 83.27C17.0899 83.52 16.9349 83.88 16.9349 84.35C16.9349 84.67 17.0299 84.935 17.2199 85.145C17.4199 85.345 17.6699 85.505 17.9699 85.625C18.2699 85.745 18.6799 85.875 19.1999 86.015C19.8899 86.205 20.4499 86.395 20.8799 86.585C21.3199 86.775 21.6899 87.07 21.9899 87.47C22.2999 87.86 22.4549 88.385 22.4549 89.045C22.4549 89.575 22.3099 90.075 22.0199 90.545C21.7399 91.015 21.3249 91.395 20.7749 91.685C20.2349 91.965 19.5949 92.105 18.8549 92.105ZM27.9077 92.105C27.2077 92.105 26.5777 91.985 26.0177 91.745C25.4577 91.495 25.0177 91.145 24.6977 90.695C24.3777 90.245 24.2177 89.72 24.2177 89.12H26.0477C26.0877 89.57 26.2627 89.94 26.5727 90.23C26.8927 90.52 27.3377 90.665 27.9077 90.665C28.4977 90.665 28.9577 90.525 29.2877 90.245C29.6177 89.955 29.7827 89.585 29.7827 89.135C29.7827 88.785 29.6777 88.5 29.4677 88.28C29.2677 88.06 29.0127 87.89 28.7027 87.77C28.4027 87.65 27.9827 87.52 27.4427 87.38C26.7627 87.2 26.2077 87.02 25.7777 86.84C25.3577 86.65 24.9977 86.36 24.6977 85.97C24.3977 85.58 24.2477 85.06 24.2477 84.41C24.2477 83.81 24.3977 83.285 24.6977 82.835C24.9977 82.385 25.4177 82.04 25.9577 81.8C26.4977 81.56 27.1227 81.44 27.8327 81.44C28.8427 81.44 29.6677 81.695 30.3077 82.205C30.9577 82.705 31.3177 83.395 31.3877 84.275H29.4977C29.4677 83.895 29.2877 83.57 28.9577 83.3C28.6277 83.03 28.1927 82.895 27.6527 82.895C27.1627 82.895 26.7627 83.02 26.4527 83.27C26.1427 83.52 25.9877 83.88 25.9877 84.35C25.9877 84.67 26.0827 84.935 26.2727 85.145C26.4727 85.345 26.7227 85.505 27.0227 85.625C27.3227 85.745 27.7327 85.875 28.2527 86.015C28.9427 86.205 29.5027 86.395 29.9327 86.585C30.3727 86.775 30.7427 87.07 31.0427 87.47C31.3527 87.86 31.5077 88.385 31.5077 89.045C31.5077 89.575 31.3627 90.075 31.0727 90.545C30.7927 91.015 30.3777 91.395 29.8277 91.685C29.2877 91.965 28.6477 92.105 27.9077 92.105ZM33.2704 83.765C33.3304 82.835 33.6854 82.11 34.3354 81.59C34.9954 81.07 35.8354 80.81 36.8554 80.81C37.5554 80.81 38.1604 80.935 38.6704 81.185C39.1804 81.435 39.5654 81.775 39.8254 82.205C40.0854 82.635 40.2154 83.12 40.2154 83.66C40.2154 84.28 40.0504 84.81 39.7204 85.25C39.3904 85.69 38.9954 85.985 38.5354 86.135V86.195C39.1254 86.375 39.5854 86.705 39.9154 87.185C40.2454 87.655 40.4104 88.26 40.4104 89C40.4104 89.59 40.2754 90.115 40.0054 90.575C39.7354 91.035 39.3354 91.4 38.8054 91.67C38.2754 91.93 37.6404 92.06 36.9004 92.06C35.8204 92.06 34.9304 91.785 34.2304 91.235C33.5404 90.675 33.1704 89.875 33.1204 88.835H34.7704C34.8104 89.365 35.0154 89.8 35.3854 90.14C35.7554 90.47 36.2554 90.635 36.8854 90.635C37.4954 90.635 37.9654 90.47 38.2954 90.14C38.6254 89.8 38.7904 89.365 38.7904 88.835C38.7904 88.135 38.5654 87.64 38.1154 87.35C37.6754 87.05 36.9954 86.9 36.0754 86.9H35.6854V85.49H36.0904C36.9004 85.48 37.5154 85.345 37.9354 85.085C38.3654 84.825 38.5804 84.415 38.5804 83.855C38.5804 83.375 38.4254 82.995 38.1154 82.715C37.8054 82.425 37.3654 82.28 36.7954 82.28C36.2354 82.28 35.8004 82.425 35.4904 82.715C35.1804 82.995 34.9954 83.345 34.9354 83.765H33.2704Z"
    fill="black"/>
  <path fill-rule="evenodd" clip-rule="evenodd"
        d="M3.99792 47.819L0 0H43.9771L39.9808 47.819L21.9252 53.2051L3.99792 47.819ZM19.085 43.0076L31.6401 37.4583L35.793 9.75439H12.2919L11.3707 15.9279H30.2342L29.6428 19.8971H10.7627L9.8548 26.0688H28.7233L27.6589 33.1185L20.0711 36.4616L13.4796 33.1185L13.931 30.0628H9.29509L8.18567 37.4583L19.085 43.0076Z"
        fill="black"/>
</svg>
