<svg width="44" height="50" viewBox="0 0 44 50" fill="none" xmlns="http://www.w3.org/2000/svg">
  <path
    d="M21.937 50C9.82269 50 0 46.5039 0 42.1875V7.8125C0 3.49805 9.82269 0 21.937 0C34.0513 0 43.874 3.49805 43.874 7.8125V42.1875C43.874 46.5039 34.0513 50 21.937 50ZM40.7402 7.85644C40.7108 7.78223 40.5835 7.5459 40.133 7.15918C39.4083 6.55371 38.1841 5.86816 36.3919 5.23145C32.8468 3.9668 27.7346 3.125 21.937 3.125C16.1394 3.125 11.0273 3.9668 7.47915 5.23145C5.68991 5.86816 4.46477 6.55371 3.74594 7.15918C3.28565 7.5459 3.16226 7.78223 3.13386 7.85644V17.7832C4.55095 18.8184 6.84552 19.8047 9.88145 20.5469C13.2699 21.377 17.3439 21.875 21.937 21.875C26.4419 21.875 30.6041 21.377 33.9926 20.5469C37.0285 19.8047 39.3201 18.8184 40.7402 17.7832V7.85644ZM40.7402 21.4355C39.0557 22.3047 37.0089 23.0273 34.7467 23.584C31.0742 24.4824 26.6574 25 21.937 25C17.2166 25 12.7999 24.4824 9.12932 23.584C6.86609 23.0273 4.81635 22.3047 3.13386 21.4355V30.2832C4.55095 31.3184 6.84552 32.3047 9.88145 33.0469C13.2699 33.877 17.3439 34.375 21.937 34.375C26.4419 34.375 30.6041 33.877 33.9926 33.0469C37.0285 32.3047 39.3201 31.3184 40.7402 30.2832V21.4355ZM3.74594 42.8418C4.46477 43.4473 5.68991 44.1309 7.47915 44.7656C11.0273 46.0352 16.1394 46.875 21.937 46.875C27.7346 46.875 32.8468 46.0352 36.3919 44.7656C38.1841 44.1309 39.4083 43.4473 40.133 42.8418C40.5835 42.4512 40.7108 42.2168 40.7402 42.1484V33.9355C39.0557 34.8047 37.0089 35.5273 34.7467 36.084C31.0742 36.9824 26.6574 37.5 21.937 37.5C17.2166 37.5 12.7999 36.9824 9.12932 36.084C6.86609 35.5273 4.81635 34.8047 3.13386 33.9355V42.1484C3.16226 42.2168 3.28565 42.4512 3.74594 42.8418ZM40.7402 42.1289C40.75 42.1191 40.75 42.1191 40.75 42.1191L40.7402 42.1289ZM3.12994 42.1289C3.12798 42.1191 3.127 42.1191 3.12602 42.1191L3.12994 42.1289ZM3.12994 7.86719C3.127 7.87598 3.12602 7.88086 3.12602 7.88086L3.12994 7.86719ZM40.75 7.88086C40.75 7.88086 40.75 7.87598 40.7402 7.86719L40.75 7.88086Z"
    fill="#666666"/>
</svg>
