<svg width="48" height="35" viewBox="0 0 48 35" fill="none" xmlns="http://www.w3.org/2000/svg">
  <path
    d="M24.9085 1.82257C24.9085 0.816359 25.721 0 26.731 0H29.8674C31.6747 0 33.2847 1.14594 33.877 2.85536L34.4921 4.62325L38.3651 2.68677C38.7068 2.51818 39.0789 2.43009 39.4586 2.43009H40.0965C40.7648 2.43009 41.3116 2.97383 41.3116 3.64514V8.50533C41.3116 9.1736 40.7648 9.72037 40.0965 9.72037H39.4586C39.0789 9.72037 38.7068 9.62924 38.3651 9.46218L35.7148 8.14081L37.9702 14.6109C38.2056 14.5882 38.5094 14.5806 38.8815 14.5806C42.2001 14.5806 45.2073 15.9095 47.3944 18.0586C48.1158 18.7649 48.1234 19.9192 47.4172 20.6406C46.711 21.3544 45.5567 21.3696 44.8428 20.6634C43.3012 19.1522 41.2053 18.2257 38.8815 18.2257C34.8794 18.2257 31.4469 20.9975 30.6116 24.7262C30.4597 25.3717 30.3762 26.04 30.3762 26.731H19.4407C19.4407 30.7559 16.1753 34.0213 12.1505 34.0213C8.05728 34.0213 4.86019 30.7559 4.86019 26.731H2.43009C1.08823 26.731 0 25.6451 0 24.3009V21.8708C0 16.5019 4.35215 12.1505 9.72037 12.1505H17.0107C18.3548 12.1505 19.4407 13.2364 19.4407 14.5806V20.6558C19.4407 21.9999 20.5267 23.0859 21.8708 23.0859H27.2854C28.3865 19.5243 31.0217 16.7752 34.3934 15.4387L30.4369 4.05294C30.3534 3.80917 30.1256 3.64514 29.8674 3.64514H26.731C25.721 3.64514 24.9085 2.82954 24.9085 1.82257ZM15.7956 15.7956H9.72037C6.36533 15.7956 3.64514 18.5143 3.64514 21.8708V23.0859H16.3044C15.9779 22.3417 15.7956 21.5215 15.7956 20.6558V15.7956ZM15.7956 26.731H8.50533C8.50533 28.7434 10.138 30.3762 12.1505 30.3762C14.1629 30.3762 15.7956 28.7434 15.7956 26.731ZM17.6182 6.07523C18.6282 6.07523 19.4407 6.8878 19.4407 7.8978C19.4407 8.90781 18.6282 9.72037 17.6182 9.72037H9.11285C8.10284 9.72037 7.29028 8.90781 7.29028 7.8978C7.29028 6.8878 8.10284 6.07523 9.11285 6.07523H17.6182ZM31.5912 26.731C31.5912 22.6378 34.7883 19.4407 38.8815 19.4407C42.9063 19.4407 46.1718 22.6378 46.1718 26.731C46.1718 30.7559 42.9063 34.0213 38.8815 34.0213C34.7883 34.0213 31.5912 30.7559 31.5912 26.731ZM38.8815 30.3762C40.8939 30.3762 42.5266 28.7434 42.5266 26.731C42.5266 24.7186 40.8939 23.0859 38.8815 23.0859C36.8691 23.0859 35.2364 24.7186 35.2364 26.731C35.2364 28.7434 36.8691 30.3762 38.8815 30.3762Z"
    fill="#7D7D7D"/>
</svg>
