<svg width="57" height="50" viewBox="0 0 57 50" fill="none" xmlns="http://www.w3.org/2000/svg">
  <path
    d="M31.3859 39.9491C31.8658 43.8942 35.166 46.8726 39.1615 46.8726H52.7931C50.717 46.8726 49.1208 45.7496 48.0926 44.4411C47.2504 43.1521 46.7901 41.5017 46.9566 39.871C46.986 39.6073 46.9958 39.3339 46.9958 39.0605C46.9958 35.0763 44.0089 31.7854 40.1408 31.3069L42.7359 28.7192C47.0447 30.1937 50.1295 34.2658 50.1295 39.0605C50.1295 39.4413 50.1099 39.8221 50.0707 40.1932C49.8944 41.9021 51.0696 43.7477 52.7931 43.7477H53.2632C54.9965 43.7477 56.3969 45.1441 56.3969 46.8726C56.3969 48.601 54.9965 49.9974 53.2632 49.9974H39.1615C34.3532 49.9974 30.2696 46.9116 28.7908 42.6247L31.3859 39.9491ZM1.83601 10.6732C-0.612004 8.22797 -0.612004 4.27113 1.83601 1.83082C4.28325 -0.610273 8.25131 -0.610273 10.7034 1.83082L21.9358 13.0363L19.7227 15.2433L8.4834 4.0397C7.25929 2.82003 5.27526 2.82003 4.05116 4.0397C2.82803 5.26034 2.82803 7.23876 4.05116 8.4594L15.2865 19.6669L13.0733 21.7859L1.83601 10.6732ZM39.6805 1.657C41.8251 -0.478541 45.2918 -0.478541 47.4364 1.657L51.6082 5.81988C53.7528 7.95552 53.7528 11.4153 51.6082 13.5539L20.9859 44.0993C19.8696 45.2027 18.4986 46.0132 16.9905 46.4624L5.14208 49.9388C4.5927 50.0951 3.99827 49.9486 3.59285 49.5385C3.18743 49.1381 2.9475 48.5424 3.19722 47.9956L6.68152 36.1797C7.12513 34.6759 7.94088 33.3088 9.05237 32.1956L39.6805 1.657ZM45.2232 3.86685C44.3027 2.95186 42.8142 2.95186 41.8937 3.86685L36.5272 9.21815L44.0285 16.6104L49.395 11.347C50.3155 10.429 50.3155 8.94473 49.395 8.02974L45.2232 3.86685ZM9.68792 37.0684L7.01447 46.1304L16.0993 43.4645C17.108 43.1716 18.0285 42.6247 18.763 41.8826L41.7272 18.9052L34.314 11.4251L11.2714 34.4122C10.5272 35.1446 9.97877 36.0626 9.68792 37.0684Z"
    fill="#666666"/>
</svg>
