<svg width="49" height="35" viewBox="0 0 49 35" fill="none" xmlns="http://www.w3.org/2000/svg">
  <path
    d="M40.9547 8.50533H35.935C36.2616 7.76111 36.4514 6.94095 36.4514 6.07523C36.4514 2.74525 33.7403 0 30.4141 0C27.9233 0 26.2374 1.14594 24.3009 3.5654C22.3645 1.14594 20.6786 0 18.1877 0C14.8615 0 12.1505 2.74525 12.1505 6.07523C12.1505 6.94095 12.3408 7.76035 12.6702 8.50533H7.29028C3.26392 8.50533 0 12.1862 0 18.2257C0 24.2652 3.26392 29.1611 7.29028 29.1611L19.4407 26.5571V32.804C19.4407 33.0303 19.5133 33.2232 19.6128 33.3967C19.6407 33.4456 19.672 33.4845 19.706 33.5284C19.8005 33.6509 19.9117 33.7506 20.043 33.8286C20.0816 33.8514 20.1115 33.8799 20.1522 33.8986C20.3141 33.9757 20.4811 34.0213 20.6634 34.0213C20.6815 34.0213 20.6996 34.0136 20.7177 34.0124C20.7438 34.0112 20.7672 34.0035 20.7933 34.0005C20.9974 33.978 21.2019 33.9154 21.3876 33.776L24.3009 31.5229L27.217 33.7084C27.4027 33.8479 27.6073 33.9104 27.8114 33.933C27.8375 33.936 27.8609 33.9437 27.887 33.9448C27.9081 34.0137 27.9233 34.0213 27.9385 34.0213C28.1169 34.0213 28.2872 33.9727 28.4467 33.8988C28.4875 33.8801 28.5178 33.8517 28.5563 33.8285C28.6877 33.7502 28.799 33.6511 28.8934 33.5283C28.9272 33.4844 28.9582 33.4458 28.986 33.3972C29.0852 33.2239 29.1611 32.9657 29.1611 32.7379V26.5138L40.9547 29.1611C45.177 29.1611 48.6019 24.263 48.6019 18.2257C48.6019 12.1884 45.177 8.50533 40.9547 8.50533ZM30.4141 3.68083C31.7355 3.68083 32.8063 4.75311 32.8063 6.07523C32.8063 7.39736 31.7347 8.46963 30.4119 8.46963H25.2578C28.341 3.87828 29.2219 3.68083 30.4141 3.68083ZM18.1877 3.68083C19.3792 3.68083 20.2586 3.87828 23.341 8.46963H18.1877C16.8664 8.46736 15.7956 7.3966 15.7956 6.07523C15.7956 4.75387 16.8664 3.68083 18.1877 3.68083ZM18.6737 22.9948L7.02449 25.4902C5.56567 25.1894 3.64514 22.4252 3.64514 18.2257C3.64514 14.6489 5.1442 12.1505 7.29028 12.1505H18.2713L18.2485 12.1125H19.4407V22.8277L18.6737 22.9948ZM41.2356 25.4932L29.1611 22.8505V12.1125H30.3496L30.3306 12.1505H40.9471C43.3468 12.1505 44.9567 14.5882 44.9567 18.2257C44.9567 22.1898 43.0506 25.197 41.2356 25.4932Z"
    fill="#7D7D7D"/>
</svg>
