<svg width="60" height="60" viewBox="0 0 60 60" fill="none" xmlns="http://www.w3.org/2000/svg">
  <rect width="60" height="60" rx="10" fill="#83ADF1"/>
  <path
    d="M35.5 30.4688C35.5 31.248 34.873 31.875 34.0938 31.875H25.6562C24.877 31.875 24.25 31.248 24.25 30.4688V27.6562C24.25 26.877 24.877 26.25 25.6562 26.25H34.0938C34.873 26.25 35.5 26.877 35.5 27.6562V30.4688ZM33.625 30V28.125H30.8125V30H33.625ZM28.9375 30V28.125H26.125V30H28.9375ZM38.7812 41.25C38.002 41.25 37.375 40.623 37.375 39.8438V37.0312C37.375 36.252 38.002 35.625 38.7812 35.625H41.5938C42.373 35.625 43 36.252 43 37.0312V39.8438C43 40.623 42.373 41.25 41.5938 41.25H38.7812ZM39.25 37.5V39.375H41.125V37.5H39.25ZM22.375 36.0938C22.375 36.873 21.748 37.5 20.9688 37.5H18.1562C17.3799 37.5 16.75 36.873 16.75 36.0938V33.2812C16.75 32.502 17.3799 31.875 18.1562 31.875H20.9688C21.748 31.875 22.375 32.502 22.375 33.2812V36.0938ZM20.5 35.625V33.75H18.625V35.625H20.5ZM38.7812 33.75C38.002 33.75 37.375 33.123 37.375 32.3438V29.5312C37.375 28.752 38.002 28.125 38.7812 28.125H41.5938C42.373 28.125 43 28.752 43 29.5312V32.3438C43 33.123 42.373 33.75 41.5938 33.75H38.7812ZM39.25 30V31.875H41.125V30H39.25ZM22.375 28.5938C22.375 29.373 21.748 30 20.9688 30H18.1562C17.3799 30 16.75 29.373 16.75 28.5938V25.7812C16.75 25.002 17.3799 24.375 18.1562 24.375H20.9688C21.748 24.375 22.375 25.002 22.375 25.7812V28.5938ZM20.5 28.125V26.25H18.625V28.125H20.5ZM25.6562 24.375C24.877 24.375 24.25 23.748 24.25 22.9688V20.1562C24.25 19.3799 24.877 18.75 25.6562 18.75H34.0938C34.873 18.75 35.5 19.3799 35.5 20.1562V22.9688C35.5 23.748 34.873 24.375 34.0938 24.375H25.6562ZM30.8125 20.625V22.5H33.625V20.625H30.8125ZM26.125 20.625V22.5H28.9375V20.625H26.125ZM16.75 45C14.6787 45 13 43.3184 13 41.25V24.375C13 22.3066 14.6787 20.625 16.75 20.625H20.5V18.75C20.5 16.6787 22.1816 15 24.25 15H35.5C37.5684 15 39.25 16.6787 39.25 18.75V24.375H43C45.0684 24.375 46.75 26.0566 46.75 28.125V41.25C46.75 43.3184 45.0684 45 43 45H16.75ZM16.75 22.5C15.7146 22.5 14.875 23.3379 14.875 24.375V41.25C14.875 42.2871 15.7146 43.125 16.75 43.125H26.125V39.375C26.125 37.3066 27.8066 35.625 29.875 35.625C31.9434 35.625 33.625 37.3066 33.625 39.375V43.125H43C44.0371 43.125 44.875 42.2871 44.875 41.25V28.125C44.875 27.0879 44.0371 26.25 43 26.25H37.375V18.75C37.375 17.7146 36.5371 16.875 35.5 16.875H24.25C23.2129 16.875 22.375 17.7146 22.375 18.75V22.5H16.75ZM31.75 39.375C31.75 38.3379 30.9121 37.5 29.875 37.5C28.8379 37.5 28 38.3379 28 39.375V43.125H31.75V39.375Z"
    fill="white"/>
</svg>
