<svg width="43" height="34" viewBox="0 0 43 34" fill="none" xmlns="http://www.w3.org/2000/svg">
  <path
    d="M27.6664 1.39987L17.005 33.2964C16.8184 33.8479 16.2121 34.0938 15.6523 33.9675C15.0993 33.7815 14.7928 33.1768 14.9793 32.6187L25.6408 0.727441C25.8273 0.170227 26.4337 -0.130838 26.9934 0.0548446C27.5465 0.240527 27.793 0.842392 27.6664 1.39987ZM11.3678 9.29627L2.67069 17.0106L11.3678 24.7183C11.8075 25.1103 11.8475 25.7814 11.4011 26.22C11.0679 26.6585 10.3349 26.6984 9.95512 26.3064L0.357891 17.7482C0.130269 17.602 1.99925e-05 17.3163 2.30115e-09 17.0106C-1.99879e-05 16.705 0.130203 16.4192 0.357825 16.2133L9.95512 7.70822C10.3349 7.32284 11.0679 7.3627 11.4011 7.80125C11.8475 8.17999 11.8075 8.91089 11.3678 9.29627ZM32.6906 7.70822L42.2859 16.2133C42.5125 16.4192 42.6458 16.705 42.6458 16.9508C42.6458 17.3163 42.5125 17.602 42.2859 17.7482L32.6906 26.3064C32.2509 26.6984 31.5779 26.6585 31.1847 26.22C30.7982 25.7814 30.8382 25.1103 31.278 24.7183L39.9737 16.9508L31.278 9.29627C30.8382 8.91089 30.7982 8.17999 31.1847 7.80125C31.5779 7.3627 32.2509 7.32284 32.6906 7.70822Z"
    fill="#484848"/>
</svg>
