<svg width="39" height="37" viewBox="0 0 39 37" fill="none" xmlns="http://www.w3.org/2000/svg">
  <path
    d="M34.0213 7.29028H29.1611V4.86019C29.1611 2.17569 26.9854 0 24.3009 0H14.5806C11.8999 0 9.72037 2.17569 9.72037 4.86019V7.29028H4.86019C2.17569 7.29028 0 9.46977 0 12.1505V31.5912C0 34.2757 2.17569 36.4514 4.86019 36.4514H34.0213C36.7058 36.4514 38.8815 34.2757 38.8815 31.5912V12.1505C38.8815 9.46977 36.702 7.29028 34.0213 7.29028ZM13.3655 4.86019C13.3655 4.18903 13.9096 3.64514 14.5806 3.64514H24.3009C24.9719 3.64514 25.516 4.18903 25.516 4.86019V7.29028H13.3655V4.86019ZM35.2364 31.5912C35.2364 32.2594 34.6897 32.8063 34.0213 32.8063H4.86019C4.19184 32.8063 3.64514 32.2594 3.64514 31.5912V12.1505C3.64514 11.4821 4.19184 10.9354 4.86019 10.9354H34.0213C34.6897 10.9354 35.2364 11.4821 35.2364 12.1505V31.5912ZM25.516 19.4407H21.8708V15.7956C21.8708 15.1273 21.3241 14.5806 20.6558 14.5806H18.2257C17.5574 14.5806 17.0107 15.1273 17.0107 15.7956V19.4407H13.3655C12.6972 19.4407 12.1505 19.9875 12.1505 20.6558V23.0859C12.1505 23.7542 12.6972 24.3009 13.3655 24.3009H17.0107V27.9461C17.0107 28.6143 17.5574 29.1611 18.2257 29.1611H20.6558C21.3268 29.1611 21.8708 28.6171 21.8708 27.9461V24.3009H25.516C26.187 24.3009 26.731 23.7569 26.731 23.0859V20.6558C26.731 19.9875 26.1843 19.4407 25.516 19.4407Z"
    fill="#7D7D7D"/>
</svg>
