<svg width="490" height="461" viewBox="0 0 490 461" fill="none" xmlns="http://www.w3.org/2000/svg">
  <path d="M454.056 177.88L400.235 184.219L406.246 235.257L460.067 228.917L454.056 177.88Z" fill="#2F2E41"/>
  <path
    d="M426.548 207.301C441.141 207.301 452.971 195.47 452.971 180.877C452.971 166.284 441.141 154.454 426.548 154.454C411.955 154.454 400.125 166.284 400.125 180.877C400.125 195.47 411.955 207.301 426.548 207.301Z"
    fill="#FFB6B6"/>
  <path
    d="M409.127 139.894H409.127C392.66 144.466 394.194 150.604 389.205 154.471C380.415 161.286 378.62 178.185 384.896 188.457C386.573 191.202 389.854 194.829 388.992 199.265C388.329 202.67 385.534 204.961 385.008 205.379C380.699 208.795 383.332 205.025 381.514 207.672C379.508 210.594 383.54 213.913 381.898 218.917C380.442 223.352 376.378 223.471 376.167 226.177C375.804 230.838 387.208 238.779 398.112 236.764C407.821 234.971 414.115 225.843 415.632 217.766C416.648 212.356 416.294 203.297 411.59 199.426C410.931 198.883 409.15 197.589 407.332 195.223C405.894 193.35 404 190.885 404.711 188.946C405.468 186.88 408.388 187.577 409.951 185.506C412.07 182.699 408.697 178.775 408.639 174.371C408.542 166.914 417.935 156.826 429.161 156.901C441.897 156.986 448.108 170.092 448.76 171.527C450.111 174.502 450.443 177.495 451.108 183.481C452.063 192.072 452.661 197.456 450.62 203.296C447.684 211.696 442.65 211.419 441.942 217.489C440.84 226.955 452.219 234.99 453.517 235.883C463.144 242.505 476.594 243.253 478.409 239.537C480.044 236.19 470.685 232.384 469.837 222.672C469.101 214.255 475.588 210.899 473.437 205.313C471.07 199.163 462.594 201.628 458.097 194.889C453.899 188.598 459.745 184.145 457.111 170.543C456.554 167.666 454.661 159.443 448.32 151.822C445.527 148.464 442.686 145.049 437.948 143.635C432.644 142.052 417.837 137.476 409.127 139.894L409.127 139.894L409.127 139.894Z"
    fill="#2F2E41"/>
  <path
    d="M400.723 164.404C402.081 170.07 411.041 171.87 414.808 172.154C416.403 172.274 421.793 172.68 426.762 169.805C428.598 168.742 429.214 167.905 431.183 167.403C433.848 166.723 435.334 167.593 439.753 168.275C444.667 169.034 447.124 169.413 448.214 168.219C449.995 166.267 447.809 160.826 445.046 157.302C439.938 150.787 431.844 149.536 428.069 148.953C423.756 148.287 415.004 146.934 407.763 152.285C406.795 153.001 399.344 158.648 400.723 164.404H400.723L400.723 164.404Z"
    fill="#2F2E41"/>
  <path
    d="M457.477 460.553C440.561 460.553 428.003 460.553 413.924 460.553C398.675 460.553 385.41 459.728 372.477 459.728C370.942 454.045 369.198 447.752 367.222 440.791C349.494 378.291 385.41 333.979 385.41 333.979L394.272 326.987L474.035 337.711C483.317 382.967 477.276 416.549 457.477 460.553Z"
    fill="#2F2E41"/>
  <path
    d="M444.483 214.576L407.169 210.844L380.116 234.166L388.512 318.123L384.78 333.981L473.402 337.713L468.737 315.324L475.267 233.233L444.483 214.576Z"
    fill="#ABDCAF"/>
  <path d="M456.611 258.42H396.908V351.705H456.611V258.42Z" fill="white"/>
  <path
    d="M448.092 270.692H431.41C430.959 270.692 430.591 270.325 430.591 269.874C430.591 269.423 430.959 269.056 431.41 269.056H448.092C448.543 269.056 448.91 269.423 448.91 269.874C448.91 270.325 448.543 270.692 448.092 270.692Z"
    fill="#ABDCAF"/>
  <path
    d="M448.092 276.986H431.41C430.959 276.986 430.591 276.619 430.591 276.168C430.591 275.716 430.959 275.349 431.41 275.349H448.092C448.543 275.349 448.91 275.716 448.91 276.168C448.91 276.619 448.543 276.986 448.092 276.986Z"
    fill="#ABDCAF"/>
  <path
    d="M448.092 283.279H431.41C430.959 283.279 430.591 282.912 430.591 282.461C430.591 282.01 430.959 281.643 431.41 281.643H448.092C448.543 281.643 448.91 282.01 448.91 282.461C448.91 282.912 448.543 283.279 448.092 283.279Z"
    fill="#ABDCAF"/>
  <path
    d="M447.343 305.306H406.778C405.681 305.306 404.788 304.414 404.788 303.317C404.788 302.219 405.681 301.327 406.778 301.327H447.343C448.44 301.327 449.333 302.219 449.333 303.317C449.333 304.414 448.44 305.306 447.343 305.306Z"
    fill="#E6E6E6"/>
  <path
    d="M424.522 341.538C432.593 344.068 440.441 341.954 442.05 336.817C443.659 331.68 438.42 325.467 430.346 322.938C427.135 321.883 423.717 321.613 420.38 322.149L386.047 311.863L364.258 327.451L415.886 336.497C418.32 338.843 421.282 340.571 424.522 341.538V341.538Z"
    fill="#FFB6B6"/>
  <path
    d="M383.633 232.3C383.633 232.3 371.124 239.448 367.55 254.637L353.254 315.395C353.254 315.395 350.573 324.33 362.635 328.797C374.698 333.265 389.44 314.055 389.44 314.055L382.707 307.322L395.695 250.617L383.633 232.3V232.3L383.633 232.3Z"
    fill="#ABDCAF"/>
  <path
    d="M415.216 332.558C406.826 333.625 399.474 330.16 398.796 324.82C398.117 319.48 404.369 314.288 412.763 313.222C416.11 312.75 419.522 313.087 422.712 314.203L458.321 310.132L477.02 329.317L424.606 329.118C421.796 330.998 418.576 332.178 415.216 332.558Z"
    fill="#FFB6B6"/>
  <path
    d="M474.726 232.24C474.726 232.24 485.779 241.482 486.619 257.063L489.978 319.39C489.978 319.39 491.042 328.657 478.381 330.928C465.72 333.199 454.595 311.69 454.595 311.69L462.41 306.25L459.623 248.143L474.726 232.24H474.726H474.726Z"
    fill="#ABDCAF"/>
  <path d="M424.893 264.95H403.438V291.07H424.893V264.95Z" fill="#ABDCAF"/>
  <path
    d="M409.165 284.447L407.692 290.902L407.654 291.07H403.456C403.96 288.943 404.585 286.312 404.874 285.053C405.238 283.523 406.19 282.534 406.796 282.04C407.104 281.769 407.328 281.648 407.328 281.648L409.165 284.447H409.165H409.165Z"
    fill="#E6E6E6"/>
  <path
    d="M423.336 291.07H419.25L418.914 284.064L421.153 281.704L421.219 281.639C421.219 281.639 422.907 283.047 423.028 285.426C423.094 286.611 423.224 288.989 423.336 291.07H423.336Z"
    fill="#E6E6E6"/>
  <path d="M418.038 273.346L410.74 274.206L411.555 281.126L418.853 280.267L418.038 273.346Z" fill="#2F2E41"/>
  <path
    d="M414.307 277.336C416.286 277.336 417.89 275.732 417.89 273.753C417.89 271.774 416.286 270.17 414.307 270.17C412.328 270.17 410.724 271.774 410.724 273.753C410.724 275.732 412.328 277.336 414.307 277.336Z"
    fill="#FFB6B6"/>
  <path
    d="M411.945 268.196H411.945C409.713 268.816 409.921 269.648 409.244 270.172C408.052 271.096 407.809 273.388 408.66 274.781C408.887 275.153 409.332 275.645 409.215 276.246C409.125 276.708 408.746 277.019 408.675 277.075C408.091 277.539 408.448 277.027 408.201 277.386C407.929 277.782 408.476 278.232 408.253 278.911C408.056 279.512 407.505 279.528 407.476 279.895C407.427 280.527 408.973 281.604 410.452 281.331C411.768 281.088 412.622 279.85 412.828 278.755C412.965 278.021 412.917 276.793 412.28 276.268C412.19 276.194 411.949 276.019 411.702 275.698C411.507 275.444 411.25 275.11 411.347 274.847C411.449 274.567 411.845 274.661 412.057 274.381C412.345 274 411.887 273.468 411.879 272.871C411.866 271.86 413.14 270.492 414.662 270.502C416.389 270.513 417.231 272.29 417.32 272.485C417.503 272.888 417.548 273.294 417.638 274.106C417.767 275.271 417.849 276.001 417.572 276.793C417.174 277.932 416.491 277.894 416.395 278.717C416.246 280.001 417.789 281.09 417.965 281.212C419.27 282.109 421.094 282.211 421.34 281.707C421.562 281.253 420.293 280.737 420.177 279.42C420.078 278.279 420.957 277.824 420.666 277.066C420.345 276.232 419.195 276.567 418.586 275.653C418.016 274.8 418.809 274.196 418.452 272.352C418.376 271.962 418.12 270.847 417.26 269.813C416.881 269.358 416.496 268.895 415.854 268.703C415.134 268.488 413.127 267.868 411.946 268.196L411.945 268.196H411.945Z"
    fill="#2F2E41"/>
  <path
    d="M410.806 271.519C410.99 272.288 412.205 272.532 412.716 272.57C412.932 272.587 413.663 272.642 414.337 272.252C414.586 272.108 414.669 271.994 414.936 271.926C415.298 271.834 415.499 271.952 416.098 272.044C416.765 272.147 417.098 272.199 417.246 272.037C417.487 271.772 417.191 271.034 416.816 270.556C416.123 269.673 415.026 269.503 414.514 269.424C413.929 269.334 412.742 269.151 411.761 269.876C411.629 269.973 410.619 270.739 410.806 271.519H410.806H410.806Z"
    fill="#2F2E41"/>
  <path
    d="M421.302 281.797L420.565 291.07H407.701L407.691 290.902L406.796 282.04L406.786 281.937L409.51 279.596L410.35 278.868L410.919 278.383L412.384 278.532L416.6 278.952H416.609L418.027 279.81L420.145 281.098L421.152 281.704L421.302 281.797Z"
    fill="#E6E6E6"/>
  <path
    d="M162.047 107.968H7.8409C5.76208 107.966 3.76907 107.139 2.29913 105.669C0.829176 104.199 0.00233334 102.206 0 100.127V5.97112C0.00175219 4.38805 0.631384 2.87033 1.75076 1.75091C2.87014 0.631494 4.38784 0.00180725 5.97091 0H163.829C165.435 0.00180949 166.976 0.640827 168.112 1.77685C169.248 2.91287 169.887 4.45313 169.888 6.05969V100.127C169.886 102.206 169.059 104.199 167.589 105.669C166.119 107.139 164.126 107.966 162.047 107.968V107.968Z"
    fill="white"/>
  <path
    d="M162.047 107.968H7.8409C5.76208 107.966 3.76907 107.139 2.29913 105.669C0.829176 104.199 0.00233334 102.206 0 100.127V5.97112C0.00175219 4.38805 0.631384 2.87033 1.75076 1.75091C2.87014 0.631494 4.38784 0.00180725 5.97091 0H163.829C165.435 0.00180949 166.976 0.640827 168.112 1.77685C169.248 2.91287 169.887 4.45313 169.888 6.05969V100.127C169.886 102.206 169.059 104.199 167.589 105.669C166.119 107.139 164.126 107.966 162.047 107.968V107.968ZM5.97091 1.69533C4.83733 1.69666 3.75056 2.14758 2.94901 2.94916C2.14747 3.75074 1.6966 4.83753 1.69533 5.97112V100.127C1.69718 101.756 2.34526 103.319 3.49738 104.471C4.64949 105.623 6.21157 106.271 7.8409 106.273H162.047C163.677 106.271 165.239 105.623 166.391 104.471C167.543 103.319 168.191 101.756 168.193 100.127V6.05969C168.192 4.9026 167.732 3.79325 166.913 2.97506C166.095 2.15686 164.986 1.69663 163.829 1.69533H5.97091Z"
    fill="#E6E6E6"/>
  <path
    d="M70.4033 84.1292H24.197C23.0665 84.1275 21.975 83.7158 21.1251 82.9704C20.2751 82.225 19.7244 81.1966 19.5751 80.0761C19.5471 79.8743 19.5336 79.6707 19.5349 79.467V28.5011C19.5363 27.2651 20.0279 26.08 20.9019 25.206C21.776 24.332 22.961 23.8404 24.197 23.839H70.4033C71.6393 23.8404 72.8243 24.332 73.6984 25.206C74.5724 26.08 75.064 27.2651 75.0654 28.5011V79.467C75.064 80.7031 74.5724 81.8881 73.6984 82.7621C72.8243 83.6361 71.6393 84.1278 70.4033 84.1292V84.1292ZM24.197 26.382C23.6352 26.3826 23.0965 26.6061 22.6993 27.0034C22.302 27.4006 22.0785 27.9393 22.0779 28.5011V79.467C22.077 79.5541 22.0824 79.6412 22.094 79.7276C22.1589 80.24 22.4081 80.7112 22.7952 81.0533C23.1822 81.3953 23.6805 81.5848 24.197 81.5862H70.4033C70.9651 81.5855 71.5038 81.3621 71.901 80.9648C72.2983 80.5675 72.5218 80.0288 72.5224 79.467V28.5011C72.5218 27.9393 72.2983 27.4006 71.901 27.0034C71.5038 26.6061 70.9651 26.3826 70.4033 26.382H24.197Z"
    fill="#E6E6E6"/>
  <path
    d="M146.963 67.5571H91.0169C90.1176 67.5571 89.2552 67.1999 88.6193 66.564C87.9834 65.9282 87.6262 65.0657 87.6262 64.1665C87.6262 63.2672 87.9834 62.4048 88.6193 61.7689C89.2552 61.133 90.1176 60.7758 91.0169 60.7758H146.963C147.862 60.7758 148.724 61.133 149.36 61.7689C149.996 62.4048 150.353 63.2672 150.353 64.1665C150.353 65.0657 149.996 65.9282 149.36 66.564C148.724 67.1999 147.862 67.5571 146.963 67.5571Z"
    fill="#E6E6E6"/>
  <path
    d="M121.533 53.1468H91.0169C90.1176 53.1468 89.2552 52.7895 88.6193 52.1537C87.9834 51.5178 87.6262 50.6554 87.6262 49.7561C87.6262 48.8568 87.9834 47.9944 88.6193 47.3585C89.2552 46.7227 90.1176 46.3654 91.0169 46.3654H121.533C122.432 46.3654 123.295 46.7227 123.93 47.3585C124.566 47.9944 124.923 48.8568 124.923 49.7561C124.923 50.6554 124.566 51.5178 123.93 52.1537C123.295 52.7895 122.432 53.1468 121.533 53.1468Z"
    fill="#E6E6E6"/>
  <path
    d="M62.5352 52.5833C62.5352 60.0737 55.6091 58.9408 47.0653 58.9408C38.5216 58.9408 31.5955 60.0737 31.5955 52.5833C31.5955 45.0928 34.9787 31.8155 47.0653 31.8155C59.5684 31.8155 62.5352 45.0928 62.5352 52.5833Z"
    fill="#2F2E41"/>
  <path
    d="M63.1616 65.1896C62.8632 64.3284 62.2683 63.6013 61.4832 63.1383C61.3316 63.0452 61.1729 62.9644 61.0084 62.8967C60.3199 62.6104 59.5629 62.5309 58.8299 62.6679C58.0969 62.8049 57.4198 63.1525 56.8811 63.6682C56.3425 64.1839 55.9658 64.8453 55.7971 65.5717C55.6283 66.298 55.6748 67.0577 55.9309 67.7581L62.0935 81.7657H70.2099L63.1616 65.1896Z"
    fill="#3F3D56"/>
  <path
    d="M36.2686 65.9526C35.7815 65.7172 35.2501 65.5875 34.7094 65.5719C34.1686 65.5563 33.6307 65.6552 33.1308 65.8621C32.631 66.069 32.1805 66.3793 31.809 66.7725C31.4375 67.1657 31.1533 67.633 30.975 68.1438L25.2363 81.6429C25.5302 81.7249 25.8339 81.7663 26.139 81.7658H33.3401L38.2054 70.7122C38.53 69.8199 38.5115 68.8389 38.1536 67.9594C37.7957 67.08 37.124 66.3648 36.2686 65.9526V65.9526Z"
    fill="#3F3D56"/>
  <path
    d="M47.0146 58.9281C52.7638 58.9281 57.4244 54.2675 57.4244 48.5184C57.4244 42.7692 52.7638 38.1086 47.0146 38.1086C41.2655 38.1086 36.6049 42.7692 36.6049 48.5184C36.6049 54.2675 41.2655 58.9281 47.0146 58.9281Z"
    fill="#FFB8B8"/>
  <path
    d="M61.6655 63.3034C61.6063 63.2483 61.5469 63.189 61.4833 63.1382C60.7577 62.4839 59.8988 61.9947 58.9659 61.7042C58.033 61.4137 57.0483 61.3289 56.0795 61.4555L36.8967 63.8841C35.1395 64.1015 33.5361 64.9949 32.4267 66.3749C31.3173 67.7549 30.7892 69.5128 30.9546 71.2757C31.2174 74.2341 31.6412 77.9681 32.3194 81.7656H62.6234L63.7381 68.8133C63.8277 67.7982 63.688 66.776 63.3293 65.8223C62.9705 64.8686 62.4019 64.0077 61.6655 63.3034V63.3034Z"
    fill="#3F3D56"/>
  <path
    d="M34.9865 47.4972H39.1037L40.9201 42.4112L41.2833 47.4972H43.2512L44.3108 44.5304L44.5227 47.4972H59.1449C59.1449 44.5746 57.9839 41.7717 55.9173 39.7052C53.8507 37.6386 51.0478 36.4776 48.1253 36.4776H46.0061C43.0835 36.4776 40.2806 37.6386 38.214 39.7052C36.1474 41.7717 34.9865 44.5746 34.9865 47.4972V47.4972Z"
    fill="#2F2E41"/>
  <path
    d="M210.755 100.127V6.05969C210.757 4.45313 211.396 2.91287 212.532 1.77685C213.668 0.640827 215.208 0.00180949 216.815 0H374.673C376.256 0.00180725 377.774 0.631494 378.893 1.75091C380.012 2.87033 380.642 4.38805 380.644 5.97112V100.127C380.641 102.206 379.814 104.199 378.345 105.669C376.875 107.139 374.882 107.966 372.803 107.968H218.596C216.517 107.966 214.524 107.139 213.054 105.669C211.584 104.199 210.758 102.206 210.755 100.127V100.127Z"
    fill="white"/>
  <path
    d="M210.755 100.127V6.05969C210.757 4.45313 211.396 2.91287 212.532 1.77685C213.668 0.640827 215.208 0.00180949 216.815 0H374.673C376.256 0.00180725 377.774 0.631494 378.893 1.75091C380.012 2.87033 380.642 4.38805 380.644 5.97112V100.127C380.641 102.206 379.814 104.199 378.345 105.669C376.875 107.139 374.882 107.966 372.803 107.968H218.596C216.517 107.966 214.524 107.139 213.054 105.669C211.584 104.199 210.758 102.206 210.755 100.127V100.127ZM216.815 1.69533C215.658 1.69663 214.548 2.15686 213.73 2.97506C212.912 3.79325 212.452 4.9026 212.451 6.05969V100.127C212.452 101.756 213.101 103.319 214.253 104.471C215.405 105.623 216.967 106.271 218.596 106.273H372.803C374.432 106.271 375.994 105.623 377.146 104.471C378.298 103.319 378.946 101.756 378.948 100.127V5.97112C378.947 4.83753 378.496 3.75074 377.695 2.94916C376.893 2.14758 375.806 1.69666 374.673 1.69533H216.815Z"
    fill="#E6E6E6"/>
  <path
    d="M305.577 79.467V28.5011C305.579 27.2651 306.07 26.08 306.944 25.206C307.818 24.332 309.003 23.8404 310.24 23.839H356.446C357.682 23.8404 358.867 24.332 359.741 25.206C360.615 26.08 361.107 27.2651 361.108 28.5011V79.467C361.109 79.6707 361.096 79.8743 361.068 80.0761C360.918 81.1966 360.368 82.225 359.518 82.9704C358.668 83.7158 357.576 84.1275 356.446 84.1292H310.24C309.003 84.1278 307.818 83.6361 306.944 82.7621C306.07 81.8881 305.579 80.7031 305.577 79.467V79.467ZM310.24 26.382C309.678 26.3826 309.139 26.6061 308.742 27.0034C308.345 27.4006 308.121 27.9393 308.12 28.5011V79.467C308.121 80.0288 308.345 80.5675 308.742 80.9648C309.139 81.3621 309.678 81.5855 310.24 81.5862H356.446C356.962 81.5848 357.461 81.3953 357.848 81.0533C358.235 80.7112 358.484 80.24 358.549 79.7276C358.56 79.6412 358.566 79.5541 358.565 79.467V28.5011C358.564 27.9393 358.341 27.4006 357.944 27.0034C357.546 26.6061 357.008 26.3826 356.446 26.382H310.24Z"
    fill="#E6E6E6"/>
  <path
    d="M230.29 64.1665C230.291 63.2675 230.649 62.4057 231.284 61.7701C231.92 61.1344 232.782 60.7768 233.681 60.7758H289.627C290.526 60.7758 291.388 61.133 292.024 61.7689C292.66 62.4048 293.017 63.2672 293.017 64.1665C293.017 65.0657 292.66 65.9282 292.024 66.564C291.388 67.1999 290.526 67.5571 289.627 67.5571H233.681C232.782 67.5561 231.92 67.1986 231.284 66.5629C230.649 65.9273 230.291 65.0654 230.29 64.1665V64.1665Z"
    fill="#E6E6E6"/>
  <path
    d="M230.29 49.7561C230.291 48.8572 230.649 47.9953 231.284 47.3597C231.92 46.724 232.782 46.3665 233.681 46.3654H264.197C265.096 46.3654 265.958 46.7227 266.594 47.3585C267.23 47.9944 267.587 48.8568 267.587 49.7561C267.587 50.6554 267.23 51.5178 266.594 52.1537C265.958 52.7895 265.096 53.1468 264.197 53.1468H233.681C232.782 53.1457 231.92 52.7882 231.284 52.1525C230.649 51.5169 230.291 50.6551 230.29 49.7561Z"
    fill="#E6E6E6"/>
  <path
    d="M321.925 43.6446C324.896 49.4865 327.238 55.5119 333.792 55.5119C336.939 55.5119 339.958 54.2616 342.183 52.0361C344.409 49.8105 345.659 46.792 345.659 43.6446C345.659 40.4972 344.409 37.4787 342.183 35.2532C339.958 33.0276 336.939 31.7773 333.792 31.7773C327.131 31.6939 316.394 32.771 321.925 43.6446Z"
    fill="#2F2E41"/>
  <path
    d="M333.207 55.7429C338.956 55.7429 343.617 51.0823 343.617 45.3331C343.617 39.584 338.956 34.9233 333.207 34.9233C327.458 34.9233 322.797 39.584 322.797 45.3331C322.797 51.0823 327.458 55.7429 333.207 55.7429Z"
    fill="#A0616A"/>
  <path
    d="M347.419 64.308C346.748 63.577 346.018 62.9022 345.237 62.2906C341.819 59.6125 337.537 58.2849 333.204 58.5609C333.03 58.5693 332.857 58.582 332.683 58.599C330.173 58.7996 327.736 59.5322 325.532 60.7483C323.327 61.9643 321.408 63.6358 319.9 65.6516C318.369 67.6981 317.292 70.048 316.743 72.5442C316.193 75.0403 316.183 77.6251 316.713 80.1255C316.827 80.6553 316.929 81.1893 317.026 81.7233H351.535L351.933 79.0532C352.331 76.4143 352.133 73.7196 351.352 71.1677C350.57 68.6158 349.227 66.2717 347.419 64.308V64.308Z"
    fill="#3F3D56"/>
  <path
    d="M352.705 67.0927C352.461 65.7 351.737 64.4367 350.658 63.5229C349.58 62.609 348.214 62.1025 346.801 62.0915C346.746 62.0915 346.686 62.0957 346.631 62.0957C346.16 62.1065 345.692 62.1719 345.237 62.2907C344.471 62.4942 343.753 62.8471 343.123 63.329C342.494 63.8108 341.966 64.4122 341.57 65.0986C341.174 65.785 340.917 66.5429 340.815 67.3288C340.712 68.1147 340.766 68.913 340.973 69.6781L344.232 81.7234H355.201L352.705 67.0927Z"
    fill="#3F3D56"/>
  <path
    d="M328.567 63.9353C328.153 63.1233 327.56 62.4161 326.833 61.867C326.318 61.4782 325.743 61.1774 325.129 60.9769C324.879 60.8913 324.622 60.8233 324.362 60.7735C322.945 60.5053 321.478 60.7525 320.227 61.4706C318.975 62.1888 318.022 63.3305 317.538 64.6897L311.571 81.7236H322.896L328.673 69.1951C329.058 68.3684 329.248 67.4646 329.23 66.5529C329.212 65.6412 328.985 64.7457 328.567 63.9353V63.9353Z"
    fill="#3F3D56"/>
  <path
    d="M322.161 39.4503C324.54 41.0898 327.363 41.9624 330.252 41.9508C329.222 42.6654 328.049 43.148 326.814 43.3656C330.655 44.1895 334.625 44.2118 338.475 43.4311C339.331 43.2939 340.157 43.0102 340.916 42.5927C341.295 42.3813 341.624 42.0926 341.884 41.7454C342.144 41.3982 342.327 41.0003 342.423 40.5775C342.679 39.1159 341.54 37.788 340.356 36.893C338.544 35.5438 336.455 34.6141 334.239 34.1714C332.024 33.7287 329.738 33.784 327.546 34.3332C326.115 34.7031 324.682 35.3281 323.752 36.4773C322.823 37.6264 322.547 39.3981 323.433 40.5815L322.161 39.4503Z"
    fill="#2F2E41"/>
  <path
    d="M267.425 169H113.219C111.14 168.998 109.147 168.171 107.677 166.701C106.207 165.231 105.38 163.238 105.378 161.159V67.003C105.379 65.42 106.009 63.9022 107.128 62.7828C108.248 61.6634 109.766 61.0337 111.349 61.0319H269.206C270.813 61.0337 272.353 61.6727 273.489 62.8088C274.625 63.9448 275.264 65.485 275.266 67.0916V161.159C275.264 163.238 274.437 165.231 272.967 166.701C271.497 168.171 269.504 168.998 267.425 169V169Z"
    fill="white"/>
  <path
    d="M267.425 169H113.219C111.14 168.998 109.147 168.171 107.677 166.701C106.207 165.231 105.38 163.238 105.378 161.159V67.003C105.379 65.42 106.009 63.9022 107.128 62.7828C108.248 61.6634 109.766 61.0337 111.349 61.0319H269.206C270.813 61.0337 272.353 61.6727 273.489 62.8088C274.625 63.9448 275.264 65.485 275.266 67.0916V161.159C275.264 163.238 274.437 165.231 272.967 166.701C271.497 168.171 269.504 168.998 267.425 169V169ZM111.349 62.7273C110.215 62.7286 109.128 63.1795 108.327 63.9811C107.525 64.7827 107.074 65.8695 107.073 67.003V161.159C107.075 162.788 107.723 164.35 108.875 165.503C110.027 166.655 111.589 167.303 113.219 167.305H267.425C269.055 167.303 270.617 166.655 271.769 165.503C272.921 164.35 273.569 162.788 273.571 161.159V67.0916C273.569 65.9345 273.109 64.8252 272.291 64.007C271.473 63.1888 270.364 62.7285 269.206 62.7273H111.349Z"
    fill="#3F3D56"/>
  <path
    d="M175.781 145.161H129.575C128.444 145.159 127.353 144.748 126.503 144.002C125.653 143.257 125.102 142.229 124.953 141.108C124.925 140.906 124.911 140.703 124.912 140.499V89.533C124.914 88.297 125.405 87.1119 126.279 86.2379C127.154 85.3639 128.339 84.8722 129.575 84.8708H175.781C177.017 84.8722 178.202 85.3639 179.076 86.2379C179.95 87.1119 180.442 88.297 180.443 89.533V140.499C180.442 141.735 179.95 142.92 179.076 143.794C178.202 144.668 177.017 145.16 175.781 145.161V145.161ZM129.575 87.4138C129.013 87.4145 128.474 87.638 128.077 88.0353C127.68 88.4325 127.456 88.9712 127.455 89.533V140.499C127.455 140.586 127.46 140.673 127.472 140.759C127.536 141.272 127.786 141.743 128.173 142.085C128.56 142.427 129.058 142.617 129.575 142.618H175.781C176.343 142.617 176.881 142.394 177.279 141.997C177.676 141.599 177.899 141.061 177.9 140.499V89.533C177.899 88.9712 177.676 88.4325 177.279 88.0353C176.881 87.638 176.343 87.4145 175.781 87.4138H129.575Z"
    fill="#E6E6E6"/>
  <path
    d="M152.007 94.1884C148.999 92.7891 145.306 92.3304 142.245 93.6307C139.185 94.9309 137.098 98.2638 138.088 101.213C138.536 102.551 139.558 103.866 139.16 105.216C138.854 106.256 137.785 106.942 136.735 107.43C135.685 107.918 134.536 108.329 133.777 109.152C133.018 109.975 132.859 111.392 133.808 112.03C134.12 112.241 134.511 112.34 134.814 112.562C135.072 112.772 135.259 113.057 135.347 113.378C135.436 113.698 135.422 114.039 135.307 114.351C135.055 114.98 134.638 115.529 134.099 115.941C133.022 116.87 131.599 117.932 131.934 119.251C132.058 119.603 132.265 119.92 132.538 120.175C132.811 120.43 133.141 120.616 133.501 120.716C134.248 120.932 135.023 121.034 135.801 121.02L167.574 122.021C168.623 122.099 169.677 122.041 170.711 121.845C171.213 121.754 171.691 121.56 172.115 121.275C172.539 120.99 172.9 120.621 173.175 120.19C173.783 119.064 173.384 117.677 172.632 116.625C171.881 115.574 170.817 114.744 169.939 113.778C169.06 112.813 168.341 111.607 168.496 110.359C168.62 109.36 169.279 108.496 169.752 107.589C170.225 106.681 170.5 105.546 169.887 104.711C169.024 103.534 166.951 103.641 165.97 102.544C165.229 101.717 165.372 100.525 165.298 99.4582C165.121 96.8912 163.344 94.4669 160.814 93.3412C159.527 92.7889 158.128 92.5505 156.731 92.6456C155.335 92.7408 153.981 93.1667 152.781 93.8883L152.007 94.1884Z"
    fill="#2F2E41"/>
  <path
    d="M153.182 121.774C158.932 121.774 163.592 117.114 163.592 111.365C163.592 105.615 158.932 100.955 153.182 100.955C147.433 100.955 142.773 105.615 142.773 111.365C142.773 117.114 147.433 121.774 153.182 121.774Z"
    fill="#A0616A"/>
  <path
    d="M166.85 135.218C166.839 133.393 166.334 131.606 165.387 130.046C164.441 128.486 163.089 127.212 161.475 126.36C161.344 126.288 161.208 126.224 161.073 126.16C159.901 125.605 158.633 125.283 157.339 125.211L147.43 124.656C146.03 124.576 144.629 124.791 143.318 125.287C142.999 125.406 142.686 125.542 142.382 125.694C141.424 126.166 140.548 126.789 139.788 127.538C138.786 128.527 138.003 129.714 137.487 131.023C136.972 132.333 136.736 133.736 136.796 135.142L136.974 139.342L138.22 142.576H165.926C166.269 142.159 166.568 141.707 166.816 141.228C167.285 140.297 167.533 139.27 167.539 138.227C167.545 137.184 167.309 136.154 166.85 135.218V135.218Z"
    fill="#3F3D56"/>
  <path
    d="M166.171 129.649C165.719 128.668 165.01 127.827 164.12 127.216C163.477 126.776 162.757 126.462 161.996 126.292C161.692 126.225 161.383 126.181 161.073 126.16C160.461 126.119 159.846 126.172 159.25 126.317C158.36 126.539 157.533 126.959 156.829 127.547C156.126 128.135 155.566 128.876 155.191 129.712C154.815 130.549 154.635 131.46 154.664 132.376C154.692 133.292 154.929 134.19 155.355 135.002L159.165 142.215L159.356 142.575H172.152L166.171 129.649Z"
    fill="#3F3D56"/>
  <path
    d="M145.23 125.889C144.63 125.584 143.985 125.381 143.319 125.287C142.823 125.217 142.32 125.21 141.822 125.266C140.556 125.41 139.368 125.95 138.427 126.809C137.486 127.668 136.841 128.803 136.584 130.051L134.003 142.576H144.098L145.984 141.804L148.332 132.794C148.674 131.461 148.553 130.053 147.989 128.799C147.426 127.544 146.453 126.518 145.23 125.889Z"
    fill="#3F3D56"/>
  <path
    d="M142.533 109.884C145.821 109.621 148.55 106.336 148.208 103.056C148.17 104.408 148.63 105.727 149.5 106.762C150.371 107.798 151.592 108.476 152.93 108.67C154.438 108.836 156.091 108.38 157.404 109.141C158.858 109.983 159.323 112.03 160.837 112.757C162.301 113.46 164.159 112.501 164.882 111.048C165.605 109.594 165.428 107.848 164.949 106.297C164.265 104.085 163.021 102.087 161.337 100.498C159.653 98.9092 157.587 97.7832 155.339 97.2296C153.09 96.676 150.737 96.7136 148.508 97.3388C146.279 97.964 144.249 99.1555 142.617 100.797C141.235 102.188 140.137 103.96 139.959 105.912C139.781 107.865 140.687 109.983 142.44 110.86L142.533 109.884Z"
    fill="#2F2E41"/>
  <path
    d="M252.34 128.589H196.394C195.495 128.589 194.633 128.232 193.997 127.596C193.361 126.96 193.004 126.098 193.004 125.198C193.004 124.299 193.361 123.437 193.997 122.801C194.633 122.165 195.495 121.808 196.394 121.808H252.34C253.24 121.808 254.102 122.165 254.738 122.801C255.374 123.437 255.731 124.299 255.731 125.198C255.731 126.098 255.374 126.96 254.738 127.596C254.102 128.232 253.24 128.589 252.34 128.589Z"
    fill="#E6E6E6"/>
  <path
    d="M226.91 114.179H196.394C195.495 114.179 194.633 113.821 193.997 113.186C193.361 112.55 193.004 111.687 193.004 110.788C193.004 109.889 193.361 109.026 193.997 108.39C194.633 107.755 195.495 107.397 196.394 107.397H226.91C227.81 107.397 228.672 107.755 229.308 108.39C229.944 109.026 230.301 109.889 230.301 110.788C230.301 111.687 229.944 112.55 229.308 113.186C228.672 113.821 227.81 114.179 226.91 114.179Z"
    fill="#ABDCAF"/>
  <path
    d="M243.284 138.941C240.323 138.946 237.485 140.127 235.392 142.223C233.3 144.319 232.125 147.159 232.125 150.121C232.125 153.082 233.3 155.923 235.392 158.019C237.484 160.115 240.323 161.295 243.284 161.301H243.284C246.246 161.295 249.084 160.115 251.176 158.019C253.269 155.923 254.444 153.082 254.444 150.121C254.444 147.159 253.269 144.319 251.176 142.223C249.084 140.127 246.246 138.946 243.284 138.941V138.941Z"
    fill="#ABDCAF"/>
  <path
    d="M242.223 154.764C241.929 154.764 241.643 154.669 241.407 154.492L241.393 154.481L238.318 152.129C238.031 151.909 237.843 151.583 237.796 151.224C237.749 150.865 237.846 150.502 238.067 150.215C238.287 149.928 238.612 149.74 238.971 149.692C239.33 149.644 239.693 149.741 239.981 149.961L241.972 151.488L246.678 145.349C246.787 145.206 246.923 145.087 247.078 144.997C247.234 144.908 247.405 144.849 247.583 144.826C247.761 144.802 247.941 144.814 248.114 144.86C248.288 144.907 248.45 144.987 248.593 145.096L248.593 145.096L248.564 145.137L248.594 145.096C248.881 145.317 249.069 145.642 249.116 146.002C249.163 146.361 249.066 146.724 248.846 147.011L243.311 154.229C243.183 154.395 243.019 154.53 242.83 154.622C242.642 154.715 242.434 154.763 242.225 154.762L242.223 154.764Z"
    fill="white"/>
</svg>
