<svg width="60" height="60" viewBox="0 0 60 60" fill="none" xmlns="http://www.w3.org/2000/svg">
  <circle cx="30" cy="30" r="30" fill="#F0E295"/>
  <path
    d="M30.9375 28.248L35.1035 25.4707C35.5371 25.1836 36.1172 25.3008 36.4043 25.7285C36.6914 26.1621 36.5742 26.7422 36.1465 27.0293L30.5215 30.7793C30.1816 30.9727 29.8652 30.9902 29.5605 30.8262C29.25 30.6621 29.0625 30.3457 29.0625 29.9473V21.5098C29.0625 21.0469 29.4844 20.5723 30 20.5723C30.5156 20.5723 30.9375 21.0469 30.9375 21.5098V28.248ZM45 30C45 38.2852 38.2852 45 30 45C21.7148 45 15 38.2852 15 30C15 21.7148 21.7148 15 30 15C38.2852 15 45 21.7148 45 30ZM30 16.875C22.752 16.875 16.875 22.752 16.875 30C16.875 37.248 22.752 43.125 30 43.125C37.248 43.125 43.125 37.248 43.125 30C43.125 22.752 37.248 16.875 30 16.875Z"
    fill="black"/>
</svg>
