<svg width="50" height="98" viewBox="0 0 50 98" fill="none" xmlns="http://www.w3.org/2000/svg">
  <path
    d="M10.6391 81.575V92H8.92909V87.44H4.02409V92H2.31409V81.575H4.02409V86.045H8.92909V81.575H10.6391ZM19.6253 81.575V82.97H16.8503V92H15.1403V82.97H12.3503V81.575H19.6253ZM32.3371 81.575V92H30.6271V84.86L27.4471 92H26.2621L23.0671 84.86V92H21.3571V81.575H23.2021L26.8621 89.75L30.5071 81.575H32.3371ZM36.2946 90.62H39.8196V92H34.5846V81.575H36.2946V90.62ZM48.0746 82.535H43.0496V85.52C43.2596 85.24 43.5696 85.005 43.9796 84.815C44.3996 84.625 44.8446 84.53 45.3146 84.53C46.1546 84.53 46.8346 84.71 47.3546 85.07C47.8846 85.43 48.2596 85.885 48.4796 86.435C48.7096 86.985 48.8246 87.565 48.8246 88.175C48.8246 88.915 48.6796 89.575 48.3896 90.155C48.1096 90.725 47.6846 91.175 47.1146 91.505C46.5546 91.835 45.8646 92 45.0446 92C43.9546 92 43.0796 91.73 42.4196 91.19C41.7596 90.65 41.3646 89.935 41.2346 89.045H42.8996C43.0096 89.515 43.2546 89.89 43.6346 90.17C44.0146 90.44 44.4896 90.575 45.0596 90.575C45.7696 90.575 46.2996 90.36 46.6496 89.93C47.0096 89.5 47.1896 88.93 47.1896 88.22C47.1896 87.5 47.0096 86.95 46.6496 86.57C46.2896 86.18 45.7596 85.985 45.0596 85.985C44.5696 85.985 44.1546 86.11 43.8146 86.36C43.4846 86.6 43.2446 86.93 43.0946 87.35H41.4746V81.035H48.0746V82.535Z"
    fill="black"/>
  <path fill-rule="evenodd" clip-rule="evenodd"
        d="M7.94529 47.8186L3.9469 0H47.9247L43.9263 47.8186L25.8732 53.2051L7.94529 47.8186ZM18.1904 15.5955H39.2408L39.741 9.77686H12.1307L13.5984 27.5342H32.7136L32.0256 35.1154L25.8732 36.878L19.7508 35.1154L19.3451 30.4595H13.879L14.5661 39.7039L25.8732 43.0302H25.9976V42.9962L37.2103 39.7039L38.7734 21.6151H18.6579L18.1904 15.5955Z"
        fill="black"/>
</svg>
