<svg width="82" height="98" viewBox="0 0 82 98" fill="none" xmlns="http://www.w3.org/2000/svg">
  <path
    d="M8.33344 81.575V89.09C8.33344 90.02 8.04844 90.755 7.47844 91.295C6.91844 91.835 6.17844 92.105 5.25844 92.105C4.33844 92.105 3.59344 91.835 3.02344 91.295C2.46344 90.755 2.18344 90.02 2.18344 89.09H3.90844C3.91844 89.55 4.03344 89.915 4.25344 90.185C4.48344 90.455 4.81844 90.59 5.25844 90.59C5.69844 90.59 6.03344 90.455 6.26344 90.185C6.49344 89.905 6.60844 89.54 6.60844 89.09V81.575H8.33344ZM10.5452 87.83C10.5452 87 10.7152 86.265 11.0552 85.625C11.4052 84.985 11.8752 84.49 12.4652 84.14C13.0652 83.78 13.7252 83.6 14.4452 83.6C15.0952 83.6 15.6602 83.73 16.1402 83.99C16.6302 84.24 17.0202 84.555 17.3102 84.935V83.735H19.0352V92H17.3102V90.77C17.0202 91.16 16.6252 91.485 16.1252 91.745C15.6252 92.005 15.0552 92.135 14.4152 92.135C13.7052 92.135 13.0552 91.955 12.4652 91.595C11.8752 91.225 11.4052 90.715 11.0552 90.065C10.7152 89.405 10.5452 88.66 10.5452 87.83ZM17.3102 87.86C17.3102 87.29 17.1902 86.795 16.9502 86.375C16.7202 85.955 16.4152 85.635 16.0352 85.415C15.6552 85.195 15.2452 85.085 14.8052 85.085C14.3652 85.085 13.9552 85.195 13.5752 85.415C13.1952 85.625 12.8852 85.94 12.6452 86.36C12.4152 86.77 12.3002 87.26 12.3002 87.83C12.3002 88.4 12.4152 88.9 12.6452 89.33C12.8852 89.76 13.1952 90.09 13.5752 90.32C13.9652 90.54 14.3752 90.65 14.8052 90.65C15.2452 90.65 15.6552 90.54 16.0352 90.32C16.4152 90.1 16.7202 89.78 16.9502 89.36C17.1902 88.93 17.3102 88.43 17.3102 87.86ZM24.4763 90.47L26.8163 83.735H28.6312L25.4813 92H23.4413L20.3063 83.735H22.1362L24.4763 90.47ZM29.3538 87.83C29.3538 87 29.5238 86.265 29.8638 85.625C30.2138 84.985 30.6838 84.49 31.2738 84.14C31.8738 83.78 32.5338 83.6 33.2538 83.6C33.9038 83.6 34.4688 83.73 34.9488 83.99C35.4388 84.24 35.8288 84.555 36.1188 84.935V83.735H37.8438V92H36.1188V90.77C35.8288 91.16 35.4338 91.485 34.9338 91.745C34.4338 92.005 33.8638 92.135 33.2238 92.135C32.5138 92.135 31.8638 91.955 31.2738 91.595C30.6838 91.225 30.2138 90.715 29.8638 90.065C29.5238 89.405 29.3538 88.66 29.3538 87.83ZM36.1188 87.86C36.1188 87.29 35.9988 86.795 35.7588 86.375C35.5288 85.955 35.2238 85.635 34.8438 85.415C34.4638 85.195 34.0538 85.085 33.6138 85.085C33.1738 85.085 32.7638 85.195 32.3838 85.415C32.0038 85.625 31.6938 85.94 31.4538 86.36C31.2238 86.77 31.1088 87.26 31.1088 87.83C31.1088 88.4 31.2238 88.9 31.4538 89.33C31.6938 89.76 32.0038 90.09 32.3838 90.32C32.7738 90.54 33.1838 90.65 33.6138 90.65C34.0538 90.65 34.4638 90.54 34.8438 90.32C35.2238 90.1 35.5288 89.78 35.7588 89.36C35.9988 88.93 36.1188 88.43 36.1188 87.86ZM43.0898 92.135C42.4398 92.135 41.8548 92.02 41.3348 91.79C40.8248 91.55 40.4198 91.23 40.1198 90.83C39.8198 90.42 39.6598 89.965 39.6398 89.465H41.4098C41.4398 89.815 41.6048 90.11 41.9048 90.35C42.2148 90.58 42.5998 90.695 43.0598 90.695C43.5398 90.695 43.9098 90.605 44.1698 90.425C44.4398 90.235 44.5748 89.995 44.5748 89.705C44.5748 89.395 44.4248 89.165 44.1248 89.015C43.8348 88.865 43.3698 88.7 42.7298 88.52C42.1098 88.35 41.6048 88.185 41.2148 88.025C40.8248 87.865 40.4848 87.62 40.1948 87.29C39.9148 86.96 39.7748 86.525 39.7748 85.985C39.7748 85.545 39.9048 85.145 40.1648 84.785C40.4248 84.415 40.7948 84.125 41.2748 83.915C41.7648 83.705 42.3248 83.6 42.9548 83.6C43.8948 83.6 44.6498 83.84 45.2198 84.32C45.7998 84.79 46.1098 85.435 46.1498 86.255H44.4398C44.4098 85.885 44.2598 85.59 43.9898 85.37C43.7198 85.15 43.3548 85.04 42.8948 85.04C42.4448 85.04 42.0998 85.125 41.8598 85.295C41.6198 85.465 41.4998 85.69 41.4998 85.97C41.4998 86.19 41.5798 86.375 41.7398 86.525C41.8998 86.675 42.0948 86.795 42.3248 86.885C42.5548 86.965 42.8948 87.07 43.3448 87.2C43.9448 87.36 44.4348 87.525 44.8148 87.695C45.2048 87.855 45.5398 88.095 45.8198 88.415C46.0998 88.735 46.2448 89.16 46.2548 89.69C46.2548 90.16 46.1248 90.58 45.8648 90.95C45.6048 91.32 45.2348 91.61 44.7548 91.82C44.2848 92.03 43.7298 92.135 43.0898 92.135ZM47.5325 87.86C47.5325 87.01 47.7025 86.265 48.0425 85.625C48.3925 84.975 48.8725 84.475 49.4825 84.125C50.0925 83.775 50.7925 83.6 51.5825 83.6C52.5825 83.6 53.4075 83.84 54.0575 84.32C54.7175 84.79 55.1625 85.465 55.3925 86.345H53.5475C53.3975 85.935 53.1575 85.615 52.8275 85.385C52.4975 85.155 52.0825 85.04 51.5825 85.04C50.8825 85.04 50.3225 85.29 49.9025 85.79C49.4925 86.28 49.2875 86.97 49.2875 87.86C49.2875 88.75 49.4925 89.445 49.9025 89.945C50.3225 90.445 50.8825 90.695 51.5825 90.695C52.5725 90.695 53.2275 90.26 53.5475 89.39H55.3925C55.1525 90.23 54.7025 90.9 54.0425 91.4C53.3825 91.89 52.5625 92.135 51.5825 92.135C50.7925 92.135 50.0925 91.96 49.4825 91.61C48.8725 91.25 48.3925 90.75 48.0425 90.11C47.7025 89.46 47.5325 88.71 47.5325 87.86ZM58.8067 84.935C59.0567 84.515 59.3867 84.19 59.7967 83.96C60.2167 83.72 60.7117 83.6 61.2817 83.6V85.37H60.8467C60.1767 85.37 59.6667 85.54 59.3167 85.88C58.9767 86.22 58.8067 86.81 58.8067 87.65V92H57.0967V83.735H58.8067V84.935ZM63.7235 82.64C63.4135 82.64 63.1535 82.535 62.9435 82.325C62.7335 82.115 62.6285 81.855 62.6285 81.545C62.6285 81.235 62.7335 80.975 62.9435 80.765C63.1535 80.555 63.4135 80.45 63.7235 80.45C64.0235 80.45 64.2785 80.555 64.4885 80.765C64.6985 80.975 64.8035 81.235 64.8035 81.545C64.8035 81.855 64.6985 82.115 64.4885 82.325C64.2785 82.535 64.0235 82.64 63.7235 82.64ZM64.5635 83.735V92H62.8535V83.735H64.5635ZM68.5186 84.95C68.8086 84.57 69.2036 84.25 69.7036 83.99C70.2036 83.73 70.7686 83.6 71.3986 83.6C72.1186 83.6 72.7736 83.78 73.3636 84.14C73.9636 84.49 74.4336 84.985 74.7736 85.625C75.1136 86.265 75.2836 87 75.2836 87.83C75.2836 88.66 75.1136 89.405 74.7736 90.065C74.4336 90.715 73.9636 91.225 73.3636 91.595C72.7736 91.955 72.1186 92.135 71.3986 92.135C70.7686 92.135 70.2086 92.01 69.7186 91.76C69.2286 91.5 68.8286 91.18 68.5186 90.8V95.93H66.8086V83.735H68.5186V84.95ZM73.5436 87.83C73.5436 87.26 73.4236 86.77 73.1836 86.36C72.9536 85.94 72.6436 85.625 72.2536 85.415C71.8736 85.195 71.4636 85.085 71.0236 85.085C70.5936 85.085 70.1836 85.195 69.7936 85.415C69.4136 85.635 69.1036 85.955 68.8636 86.375C68.6336 86.795 68.5186 87.29 68.5186 87.86C68.5186 88.43 68.6336 88.93 68.8636 89.36C69.1036 89.78 69.4136 90.1 69.7936 90.32C70.1836 90.54 70.5936 90.65 71.0236 90.65C71.4636 90.65 71.8736 90.54 72.2536 90.32C72.6436 90.09 72.9536 89.76 73.1836 89.33C73.4236 88.9 73.5436 88.4 73.5436 87.83ZM78.9696 85.13V89.705C78.9696 90.015 79.0396 90.24 79.1796 90.38C79.3296 90.51 79.5796 90.575 79.9296 90.575H80.9796V92H79.6296C78.8596 92 78.2696 91.82 77.8596 91.46C77.4496 91.1 77.2446 90.515 77.2446 89.705V85.13H76.2696V83.735H77.2446V81.68H78.9696V83.735H80.9796V85.13H78.9696Z"
    fill="black"/>
  <path fill-rule="evenodd" clip-rule="evenodd"
        d="M16.9771 0V53.2049H66.9506V0H16.9771ZM44.1726 41.4952C44.1726 46.6731 41.3169 49.0365 37.156 49.0365C33.397 49.0365 31.2218 46.9701 30.1062 44.4644L33.9323 42.006C34.6685 43.3954 35.3378 44.571 36.9552 44.571C38.4946 44.571 39.4764 43.9298 39.4764 41.4241V24.4292H44.1726V41.4952ZM46.7269 43.9295C48.099 46.8271 50.9212 49.0362 55.2827 49.0362C59.7333 49.0362 63.0576 46.5659 63.0573 42.0771C63.0573 37.8968 60.8152 36.032 56.8218 34.215L55.6507 33.6805C53.6316 32.7426 52.7615 32.1367 52.7615 30.6403C52.7615 29.4292 53.6316 28.5027 55.0037 28.5027C56.3534 28.5027 57.2235 29.1082 58.0266 30.6403L61.6854 28.1463C60.146 25.2485 58.0043 24.144 55.0148 24.144C50.8319 24.144 48.1436 26.9943 48.1436 30.7473C48.1436 34.8206 50.3858 36.7564 53.7768 38.2885L54.9481 38.8229C57.1009 39.8325 58.3724 40.4379 58.3724 42.1482C58.3724 43.5851 57.1233 44.6182 55.1823 44.6182C52.8732 44.6182 51.557 43.3238 50.5531 41.5779L46.7269 43.9295Z"
        fill="black"/>
</svg>
