<svg width="141" height="64" viewBox="0 0 141 64" fill="none" xmlns="http://www.w3.org/2000/svg">
  <path
    d="M8.70324 21.7721V37.665C8.70324 39.2543 9.09426 40.4778 9.87629 41.3355C10.6583 42.1932 11.8061 42.6221 13.3197 42.6221C14.8333 42.6221 15.9938 42.1932 16.801 41.3355C17.6083 40.4778 18.0119 39.2543 18.0119 37.665V21.7721H24.4826V37.6272C24.4826 39.9985 23.9781 42.004 22.969 43.6438C21.9599 45.2835 20.5977 46.5196 18.8822 47.3521C17.1921 48.1846 15.3 48.6008 13.2062 48.6008C11.1124 48.6008 9.233 48.1972 7.56804 47.3899C5.92829 46.5574 4.62911 45.3213 3.6705 43.6816C2.71188 42.0166 2.23257 39.9985 2.23257 37.6272V21.7721H8.70324ZM35.497 20.3342V48.3359H29.0264V20.3342H35.497ZM38.8997 37.7407C38.8997 35.5712 39.3033 33.6666 40.1106 32.0268C40.9431 30.3871 42.0657 29.1257 43.4784 28.2428C44.8911 27.3599 46.4677 26.9184 48.2084 26.9184C49.6968 26.9184 50.9959 27.2211 52.1059 27.8266C53.2411 28.432 54.1115 29.2266 54.7169 30.2105V27.2211H61.1876V48.3359H54.7169V45.3466C54.0862 46.3304 53.2033 47.1251 52.0681 47.7305C50.9581 48.3359 49.6589 48.6387 48.1705 48.6387C46.4551 48.6387 44.8911 48.1972 43.4784 47.3143C42.0657 46.4061 40.9431 45.1321 40.1106 43.4924C39.3033 41.8274 38.8997 39.9102 38.8997 37.7407ZM54.7169 37.7785C54.7169 36.164 54.2628 34.8901 53.3546 33.9567C52.4717 33.0233 51.387 32.5566 50.1004 32.5566C48.8138 32.5566 47.7165 33.0233 46.8083 33.9567C45.9254 34.8648 45.4839 36.1262 45.4839 37.7407C45.4839 39.3552 45.9254 40.6418 46.8083 41.6004C47.7165 42.5338 48.8138 43.0005 50.1004 43.0005C51.387 43.0005 52.4717 42.5338 53.3546 41.6004C54.2628 40.667 54.7169 39.393 54.7169 37.7785ZM78.7345 26.9941C81.2067 26.9941 83.1744 27.8013 84.6375 29.4158C86.1259 31.0051 86.8701 33.1999 86.8701 36V48.3359H80.4373V36.8704C80.4373 35.4577 80.0715 34.3603 79.3399 33.5783C78.6083 32.7962 77.6245 32.4052 76.3884 32.4052C75.1523 32.4052 74.1684 32.7962 73.4368 33.5783C72.7053 34.3603 72.3395 35.4577 72.3395 36.8704V48.3359H65.8688V27.2211H72.3395V30.0213C72.9954 29.0879 73.8783 28.3563 74.9883 27.8266C76.0983 27.2716 77.347 26.9941 78.7345 26.9941ZM90.08 37.7407C90.08 35.5712 90.4836 33.6666 91.2909 32.0268C92.1234 30.3871 93.246 29.1257 94.6587 28.2428C96.0714 27.3599 97.6481 26.9184 99.3887 26.9184C100.776 26.9184 102.038 27.2085 103.173 27.7887C104.333 28.3689 105.241 29.151 105.897 30.1348V20.3342H112.368V48.3359H105.897V45.3087C105.292 46.3178 104.421 47.1251 103.286 47.7305C102.176 48.3359 100.877 48.6387 99.3887 48.6387C97.6481 48.6387 96.0714 48.1972 94.6587 47.3143C93.246 46.4061 92.1234 45.1321 91.2909 43.4924C90.4836 41.8274 90.08 39.9102 90.08 37.7407ZM105.897 37.7785C105.897 36.164 105.443 34.8901 104.535 33.9567C103.652 33.0233 102.567 32.5566 101.281 32.5566C99.9941 32.5566 98.8968 33.0233 97.9886 33.9567C97.1057 34.8648 96.6642 36.1262 96.6642 37.7407C96.6642 39.3552 97.1057 40.6418 97.9886 41.6004C98.8968 42.5338 99.9941 43.0005 101.281 43.0005C102.567 43.0005 103.652 42.5338 104.535 41.6004C105.443 40.667 105.897 39.393 105.897 37.7785Z"
    fill="white"/>
  <path
    d="M137.512 20.278V41H131.161V38.1776C130.518 39.0937 129.639 39.8364 128.525 40.4058C127.435 40.9505 126.222 41.2228 124.885 41.2228C123.301 41.2228 121.902 40.8762 120.689 40.183C119.476 39.465 118.535 38.4376 117.867 37.1007C117.198 35.7638 116.864 34.1917 116.864 32.3844V20.278H123.177V31.5303C123.177 32.9167 123.536 33.9936 124.254 34.7611C124.972 35.5286 125.938 35.9123 127.151 35.9123C128.389 35.9123 129.366 35.5286 130.084 34.7611C130.802 33.9936 131.161 32.9167 131.161 31.5303V20.278H137.512Z"
    fill="white"/>
  <rect x="116.859" y="43.998" width="20.5911" height="4.04783" fill="white"/>
</svg>
