<svg width="30" height="23" viewBox="0 0 30 23" fill="none" xmlns="http://www.w3.org/2000/svg">
  <path
    d="M15 16.875C14.0314 16.875 13.0629 16.5573 12.2367 15.9135L0 6.39844V19.6875C0 21.2402 1.25918 22.5 2.8125 22.5H27.1875C28.7408 22.5 30 21.2408 30 19.6875V6.39844L17.7656 15.9199C16.9395 16.5586 15.9668 16.875 15 16.875ZM0.954492 4.76367L13.3881 14.4375C14.3367 15.1758 15.6656 15.1758 16.6143 14.4375L29.0479 4.76367C29.5957 4.29492 30 3.57422 30 2.8125C30 1.25918 28.7402 0 27.1875 0H2.8125C1.25918 0 0 1.25918 0 2.8125C0 3.57422 0.352148 4.29492 0.954492 4.76367Z"
    fill="white"/>
</svg>
