<svg width="18" height="14" viewBox="0 0 18 14" fill="none" xmlns="http://www.w3.org/2000/svg">
  <path
    d="M16.3125 0C17.2441 0 18 0.78349 18 1.75C18 2.30052 17.7504 2.81823 17.325 3.15L9.675 9.1C9.27422 9.4099 8.72578 9.4099 8.325 9.1L0.675 3.15C0.250066 2.81823 0 2.30052 0 1.75C0 0.78349 0.755508 0 1.6875 0H16.3125ZM7.65 10.0333C8.45156 10.6568 9.54844 10.6568 10.35 10.0333L18 4.08333V11.6667C18 12.9536 16.991 14 15.75 14H2.25C1.00723 14 0 12.9536 0 11.6667V4.08333L7.65 10.0333Z"
    fill="white"/>
</svg>
