<svg width="29" height="22" viewBox="0 0 29 22" fill="none" xmlns="http://www.w3.org/2000/svg">
  <path
    d="M17.5039 20.7283C17.6309 20.7283 17.758 20.6798 17.8548 20.5829L27.2226 11.2151C27.2229 11.2149 27.2232 11.2145 27.2234 11.2143C27.2234 11.2142 27.2236 11.2142 27.2236 11.2141C27.3114 11.1258 27.3592 11.0127 27.3669 10.8975C27.3691 10.8654 27.3682 10.8329 27.364 10.8007C27.3521 10.7069 27.3132 10.6158 27.2475 10.5399C27.2387 10.5297 27.2296 10.5199 27.2201 10.5105L17.8548 1.14536C17.661 0.951548 17.3468 0.951548 17.153 1.14536C16.9592 1.33917 16.9592 1.65339 17.153 1.8472L25.6736 10.3678H2.18036C1.90627 10.3678 1.68405 10.5901 1.68405 10.8641C1.68405 11.1382 1.90627 11.3605 2.18036 11.3605H25.6736L17.153 19.881C17.0561 19.9779 17.0076 20.1049 17.0076 20.232C17.0076 20.359 17.0561 20.486 17.153 20.5829C17.2499 20.6798 17.3769 20.7283 17.5039 20.7283Z"
    stroke="#717171" stroke-width="1.55097"/>
</svg>
