<svg width="83" height="61" viewBox="0 0 83 61" fill="none" xmlns="http://www.w3.org/2000/svg">
  <g clip-path="url(#clip0_253_1392)">
    <path
      d="M55.385 31.7382L50.4729 33.2664C49.2203 29.9264 45.8308 27.506 41.8126 27.506C36.7382 27.506 32.6076 31.3419 32.6076 36.0534C32.6076 36.7232 32.711 37.3668 32.8688 37.9933L16.6915 42.649C16.124 41.3688 12.7118 33.3672 12.0967 31.9506L47.9297 14.9483C48.9365 14.4698 49.2213 13.3276 48.8207 12.3927C48.3054 11.4578 47.0751 11.0947 46.0673 11.5653L10.3788 28.5584C8.44905 29.4245 7.55002 31.489 8.33267 33.245C9.03181 34.81 12.4441 42.8045 13.0196 44.1036C13.635 45.4764 15.1169 46.3069 16.6681 46.3069C17.0995 46.3069 17.5351 46.2402 17.9623 46.1067L34.8302 41.4296C35.055 41.6849 35.2713 41.9447 35.5256 42.1741L29.7568 58.239C29.4011 59.2331 29.9806 60.3094 31.051 60.6428C31.2661 60.7238 31.4835 60.7476 31.6881 60.7476C32.5431 60.7476 33.3429 60.2431 33.6294 59.4495L39.1194 44.1559C40.0068 44.4214 40.9354 44.6027 41.9162 44.6027C42.8971 44.6027 43.8255 44.4213 44.7131 44.1559L50.2031 59.4495C50.4998 60.2374 51.2927 60.7476 52.1495 60.7476C52.3654 60.7476 52.5811 60.7179 52.7968 60.6511C53.8674 60.3173 54.4465 59.2416 54.091 58.2473L48.3222 42.1824C49.7788 40.869 50.7366 39.1083 51.009 37.1458L56.797 35.346C57.8678 35.016 58.4429 33.9364 58.0836 32.9422C57.7252 31.9399 56.5743 31.3941 55.385 31.7382ZM41.9188 40.8029C39.0977 40.8029 36.8047 38.6731 36.8047 36.0546C36.8047 33.436 39.0977 31.3063 41.9188 31.3063C44.7399 31.3063 47.0329 33.436 47.0329 36.0546C47.0329 38.6731 44.745 40.8029 41.9188 40.8029ZM5.08442 38.2519C4.64962 37.279 3.44623 36.8163 2.41204 37.2197C1.36927 37.6204 0.873593 38.7337 1.30533 39.7018L3.63026 44.9069C3.95777 45.6378 4.71701 46.0793 5.52038 46.0793C5.78395 46.0793 6.04764 46.0348 6.30341 45.9344C7.34618 45.5337 7.84185 44.4204 7.41012 43.4523L5.08442 38.2519ZM82.7137 24.0735L72.9485 2.19489C72.2017 0.509737 69.8358 -0.488091 67.892 0.242542L54.5281 5.37999C53.1495 5.91414 52.1508 7.3092 52.1508 8.69263C52.1508 9.14516 52.2667 9.67563 52.4464 10.0689L62.2027 31.9357C62.7742 33.2231 64.2757 34.1544 65.7745 34.1544C66.2378 34.1544 66.8173 34.0467 67.2528 33.8799L80.6039 28.746C81.9976 28.2143 82.9951 26.8143 82.9951 25.4261C82.9951 25.0109 82.88 24.4769 82.7137 24.0735ZM65.8714 30.3856L55.9911 8.77984L69.0481 3.53086L78.7212 25.2197L65.8714 30.3856Z"
      fill="white"/>
  </g>
  <defs>
    <clipPath id="clip0_253_1392">
      <rect width="81.8456" height="60.7477" fill="white" transform="translate(0.785645)"/>
    </clipPath>
  </defs>
</svg>
