<svg width="67" height="61" viewBox="0 0 67 61" fill="none" xmlns="http://www.w3.org/2000/svg">
  <g clip-path="url(#clip0_253_1402)">
    <path
      d="M65.9869 23.5871L51.6639 4.60344C51.2802 4.09918 50.6536 3.79663 49.9886 3.79663H17.1352C16.5853 3.79663 15.9587 4.09918 15.5751 4.607L1.25207 23.5906C0.696545 24.3266 0.772508 25.3217 1.43188 25.9766L32.124 56.3505C32.5197 56.7373 33.0568 56.9508 33.6195 56.9508C34.1822 56.9508 34.7238 56.7339 35.1119 56.3502L65.804 25.9764C66.4728 25.3193 66.5368 24.3227 65.9869 23.5871ZM49.9119 8.91391L60.3856 22.7803H38.5302L49.9119 8.91391ZM33.6195 22.4955L21.381 7.59336H45.858L33.6195 22.4955ZM17.3271 8.91391L28.7087 22.7803H6.85722L17.3271 8.91391ZM33.6195 52.2761L7.6501 26.577H59.5837L33.6195 52.2761Z"
      fill="white"/>
  </g>
  <defs>
    <clipPath id="clip0_253_1402">
      <rect width="65.4765" height="60.7477" fill="white" transform="translate(0.881104)"/>
    </clipPath>
  </defs>
</svg>
