<svg width="65" height="61" viewBox="0 0 65 61" fill="none" xmlns="http://www.w3.org/2000/svg">
  <g clip-path="url(#clip0_253_1383)">
    <path
      d="M37.9158 3.86554C37.7772 3.99131 37.626 4.12064 37.4874 4.25234C35.7989 3.95334 34.0474 3.79673 32.2581 3.79673C16.6709 3.79673 4.03226 15.6971 4.03226 30.3738C4.03226 45.0506 16.6709 56.9509 32.2581 56.9509C47.8453 56.9509 60.4839 45.0506 60.4839 30.3738C60.4839 28.689 60.3201 27.0398 60.005 25.4499C60.1437 25.3194 60.2823 25.1771 60.4083 25.0465L63.2812 22.0329C64.0877 24.6787 64.5161 27.4788 64.5161 30.3738C64.5161 47.1506 50.0756 60.7477 32.2581 60.7477C14.4405 60.7477 0 47.1506 0 30.3738C0 13.597 14.4405 0 32.2581 0C35.3327 0 38.193 0.404114 41.1164 1.15895L37.9158 3.86554ZM34.7152 12.4817L35.2445 15.4479C34.2742 15.2818 33.2787 15.0801 32.1447 15.0801C23.3493 15.0801 16.0156 21.9854 16.0156 30.267C16.0156 38.7622 23.3493 45.5607 32.1447 45.5607C41.1668 45.5607 48.3871 38.7622 48.3871 30.267C48.3871 29.4128 48.2863 28.3687 48.1099 27.5619L51.2601 28.0602C51.6003 28.1077 51.9405 28.1433 52.2807 28.167C52.3689 28.8907 52.4194 29.6264 52.4194 30.267C52.4194 40.8623 43.3972 49.3575 32.2581 49.3575C21.119 49.3575 12.0968 40.8623 12.0968 30.267C12.0968 19.8854 21.119 11.2834 32.2581 11.2834C33.0519 11.2834 33.8332 11.4329 34.6018 11.5171C34.627 11.8387 34.6648 12.1614 34.7152 12.4817ZM43.0318 22.9109L33.682 31.7146C32.9007 32.462 31.6154 32.462 30.8342 31.7146C30.0403 30.9789 30.0403 29.7687 30.8342 29.0331L40.184 20.2294L38.6971 11.8766C38.3569 9.9415 39.0877 7.98025 40.6502 6.67987L46.7616 1.46767C48.5257 0.0852366 51.1467 0.78438 51.7767 2.77873L54.0323 9.86556L61.5675 11.9953C63.6845 12.5885 64.4279 15.0564 62.9536 16.6107L57.4219 22.4719C56.0358 23.9431 53.9567 24.6313 51.9027 24.3109L43.0318 22.9109ZM46.5348 19.6125L52.5706 20.5617C53.251 20.6684 53.944 20.443 54.4103 19.9566L58.8962 15.1988L52.999 13.5377L46.5348 19.6125ZM50.1386 10.8492L48.3745 5.29406L43.3216 9.51792C42.8049 9.95099 42.5655 10.6047 42.6789 11.2478L43.687 16.931L50.1386 10.8492Z"
      fill="white"/>
  </g>
  <defs>
    <clipPath id="clip0_253_1383">
      <rect width="64.5161" height="60.7477" fill="white"/>
    </clipPath>
  </defs>
</svg>
