<svg width="60" height="60" viewBox="0 0 60 60" fill="none" xmlns="http://www.w3.org/2000/svg">
  <circle cx="30" cy="30" r="30" fill="#AEFFB6"/>
  <path
    d="M30.9375 36.5625C30.9375 37.0781 30.5156 37.5 30 37.5C29.4844 37.5 29.0625 37.0781 29.0625 36.5625V21.5625C29.0625 21.0469 29.4844 20.625 30 20.625C30.5156 20.625 30.9375 21.0469 30.9375 21.5625V36.5625ZM45 30C45 38.2852 38.2852 45 30 45C21.7148 45 15 38.2852 15 30C15 21.7148 21.7148 15 30 15C38.2852 15 45 21.7148 45 30ZM30 16.875C22.752 16.875 16.875 22.752 16.875 30C16.875 37.248 22.752 43.125 30 43.125C37.248 43.125 43.125 37.248 43.125 30C43.125 22.752 37.248 16.875 30 16.875Z"
    fill="black"/>
</svg>
