<svg width="32" height="51" viewBox="0 0 32 51" fill="none" xmlns="http://www.w3.org/2000/svg">
  <path
    d="M25 0.157227H6.25C2.79785 0.157227 0 2.95626 0 6.40986V43.9256C0 47.3792 2.79785 50.1783 6.25 50.1783H25C28.4521 50.1783 31.25 47.3792 31.25 43.9256V6.40986C31.25 2.95626 28.4473 0.157227 25 0.157227ZM28.125 43.9256C28.125 45.649 26.7227 47.0519 25 47.0519H6.25C4.52734 47.0519 3.125 45.649 3.125 43.9256V6.40986C3.125 4.68647 4.52734 3.28354 6.25 3.28354H25C26.7227 3.28354 28.125 4.68647 28.125 6.40986V43.9256ZM18.75 39.2362H12.5C11.6371 39.2362 10.9375 39.9359 10.9375 40.7993C10.9375 41.6626 11.6371 42.3625 12.5 42.3625H18.75C19.6129 42.3625 20.3125 41.6626 20.3125 40.7993C20.3125 39.9396 19.6094 39.2362 18.75 39.2362Z"
    fill="#3B635A"/>
</svg>
