<svg width="28" height="22" viewBox="0 0 28 22" fill="none" xmlns="http://www.w3.org/2000/svg">
  <path
    d="M10.8642 20.7283C10.7372 20.7283 10.6101 20.6798 10.5133 20.5829L1.14546 11.2151C1.14521 11.2149 1.1449 11.2145 1.14465 11.2143C1.14465 11.2142 1.14452 11.2142 1.14446 11.2141C1.05668 11.1258 1.00885 11.0127 1.00115 10.8975C0.998981 10.8654 0.999851 10.8329 1.00407 10.8007C1.01604 10.7069 1.05488 10.6158 1.12058 10.5399C1.12939 10.5297 1.13851 10.5199 1.148 10.5105L10.5133 1.14536C10.7071 0.951548 11.0213 0.951548 11.2151 1.14536C11.4089 1.33917 11.4089 1.65339 11.2151 1.8472L2.6945 10.3678H26.1877C26.4618 10.3678 26.684 10.5901 26.684 10.8641C26.684 11.1382 26.4618 11.3605 26.1877 11.3605H2.6945L11.2151 19.881C11.312 19.9779 11.3605 20.1049 11.3605 20.232C11.3605 20.359 11.312 20.486 11.2151 20.5829C11.1182 20.6798 10.9912 20.7283 10.8642 20.7283Z"
    stroke="#717171" stroke-width="1.55097"/>
</svg>
