<svg width="50" height="50" viewBox="0 0 50 50" fill="none" xmlns="http://www.w3.org/2000/svg">
  <path
    d="M22.9785 32.3535C22.373 32.9688 21.377 32.9688 20.7715 32.3535L15.3027 26.8848C14.6875 26.2793 14.6875 25.2832 15.3027 24.6777C15.9082 24.0625 16.9043 24.0625 17.5098 24.6777L21.875 29.043L31.709 19.209C32.3145 18.5938 33.3105 18.5938 33.916 19.209C34.5312 19.8145 34.5312 20.8105 33.916 21.416L22.9785 32.3535ZM33.5059 4.45605C36.7285 3.87402 40.1855 4.82715 42.6758 7.32227C45.1758 9.81445 46.123 13.2715 45.5469 16.4941C48.2324 18.2715 50 21.4746 50 24.9121C50 28.5254 48.2324 31.6406 45.5469 33.5059C46.123 36.7285 45.1758 40.1855 42.6758 42.6758C40.1855 45.1758 36.7285 46.123 33.5059 45.5469C31.6406 48.2324 28.5254 50 25 50C21.4746 50 18.2715 48.2324 16.4941 45.5469C13.2715 46.123 9.81445 45.1758 7.32227 42.6758C4.82715 40.1855 3.87402 36.7285 4.45605 33.5059C1.76563 31.6406 0 28.5254 0 24.9121C0 21.4746 1.76563 18.2715 4.45605 16.4941C3.87402 13.2715 4.82715 9.81445 7.32227 7.32227C9.81445 4.82715 13.2715 3.87402 16.4941 4.45605C18.2715 1.76563 21.4746 0 24.9121 0C28.5254 0 31.6406 1.76563 33.5059 4.45605ZM18.0078 8.11328L16.7676 7.73437C14.2871 6.97266 11.4844 7.5752 9.53223 9.53223C7.5752 11.4844 6.97266 14.2871 7.73437 16.7676L8.11328 18.0078L6.97266 18.6133C4.68066 19.8242 3.125 22.2363 3.125 24.9121C3.125 27.7637 4.68066 30.0879 6.97266 31.3867L8.11328 31.9922L7.73437 33.2324C6.97266 35.7129 7.5752 38.5059 9.53223 40.4688C11.4844 42.4219 14.2871 43.0273 16.7676 42.2656L18.0078 41.8848L18.6133 43.0273C19.8242 45.3223 22.2363 46.875 25 46.875C27.7637 46.875 30.0879 45.3223 31.3867 43.0273L31.9922 41.8848L33.2324 42.2656C35.7129 43.0273 38.5059 42.4219 40.4688 40.4688C42.4219 38.5059 43.0273 35.7129 42.2656 33.2324L41.8848 31.9922L43.0273 31.3867C45.3223 30.0879 46.875 27.7637 46.875 24.9121C46.875 22.2363 45.3223 19.8242 43.0273 18.6133L41.8848 18.0078L42.2656 16.7676C43.0273 14.2871 42.4219 11.4844 40.4688 9.53125C38.5156 7.57422 35.7129 6.97266 33.2324 7.73437L31.9922 8.11328L31.3867 6.97266C30.0879 4.68066 27.7637 3.03711 25 3.03711C22.2363 3.03711 19.8242 4.68066 18.6133 6.97266L18.0078 8.11328Z"
    fill="#3B635A"/>
</svg>
