<svg width="67" height="99" viewBox="0 0 67 99" fill="none" xmlns="http://www.w3.org/2000/svg">
  <path
    d="M8.59084 93L6.19084 88.83H4.88584V93H3.17584V82.575H6.77584C7.57584 82.575 8.25084 82.715 8.80084 82.995C9.36084 83.275 9.77584 83.65 10.0458 84.12C10.3258 84.59 10.4658 85.115 10.4658 85.695C10.4658 86.375 10.2658 86.995 9.86584 87.555C9.47584 88.105 8.87084 88.48 8.05084 88.68L10.6308 93H8.59084ZM4.88584 87.465H6.77584C7.41584 87.465 7.89584 87.305 8.21584 86.985C8.54584 86.665 8.71084 86.235 8.71084 85.695C8.71084 85.155 8.55084 84.735 8.23084 84.435C7.91084 84.125 7.42584 83.97 6.77584 83.97H4.88584V87.465ZM20.2284 88.665C20.2284 88.975 20.2084 89.255 20.1684 89.505H13.8534C13.9034 90.165 14.1484 90.695 14.5884 91.095C15.0284 91.495 15.5684 91.695 16.2084 91.695C17.1284 91.695 17.7784 91.31 18.1584 90.54H20.0034C19.7534 91.3 19.2984 91.925 18.6384 92.415C17.9884 92.895 17.1784 93.135 16.2084 93.135C15.4184 93.135 14.7084 92.96 14.0784 92.61C13.4584 92.25 12.9684 91.75 12.6084 91.11C12.2584 90.46 12.0834 89.71 12.0834 88.86C12.0834 88.01 12.2534 87.265 12.5934 86.625C12.9434 85.975 13.4284 85.475 14.0484 85.125C14.6784 84.775 15.3984 84.6 16.2084 84.6C16.9884 84.6 17.6834 84.77 18.2934 85.11C18.9034 85.45 19.3784 85.93 19.7184 86.55C20.0584 87.16 20.2284 87.865 20.2284 88.665ZM18.4434 88.125C18.4334 87.495 18.2084 86.99 17.7684 86.61C17.3284 86.23 16.7834 86.04 16.1334 86.04C15.5434 86.04 15.0384 86.23 14.6184 86.61C14.1984 86.98 13.9484 87.485 13.8684 88.125H18.4434ZM21.3412 88.83C21.3412 88 21.5112 87.265 21.8512 86.625C22.2012 85.985 22.6712 85.49 23.2612 85.14C23.8612 84.78 24.5212 84.6 25.2412 84.6C25.8912 84.6 26.4562 84.73 26.9362 84.99C27.4262 85.24 27.8162 85.555 28.1062 85.935V84.735H29.8312V93H28.1062V91.77C27.8162 92.16 27.4212 92.485 26.9212 92.745C26.4212 93.005 25.8512 93.135 25.2112 93.135C24.5012 93.135 23.8512 92.955 23.2612 92.595C22.6712 92.225 22.2012 91.715 21.8512 91.065C21.5112 90.405 21.3412 89.66 21.3412 88.83ZM28.1062 88.86C28.1062 88.29 27.9862 87.795 27.7462 87.375C27.5162 86.955 27.2112 86.635 26.8312 86.415C26.4512 86.195 26.0412 86.085 25.6012 86.085C25.1612 86.085 24.7512 86.195 24.3712 86.415C23.9912 86.625 23.6812 86.94 23.4412 87.36C23.2112 87.77 23.0962 88.26 23.0962 88.83C23.0962 89.4 23.2112 89.9 23.4412 90.33C23.6812 90.76 23.9912 91.09 24.3712 91.32C24.7612 91.54 25.1712 91.65 25.6012 91.65C26.0412 91.65 26.4512 91.54 26.8312 91.32C27.2112 91.1 27.5162 90.78 27.7462 90.36C27.9862 89.93 28.1062 89.43 28.1062 88.86ZM31.5072 88.86C31.5072 88.01 31.6772 87.265 32.0172 86.625C32.3672 85.975 32.8472 85.475 33.4572 85.125C34.0672 84.775 34.7672 84.6 35.5572 84.6C36.5572 84.6 37.3822 84.84 38.0322 85.32C38.6922 85.79 39.1372 86.465 39.3672 87.345H37.5222C37.3722 86.935 37.1322 86.615 36.8022 86.385C36.4722 86.155 36.0572 86.04 35.5572 86.04C34.8572 86.04 34.2972 86.29 33.8772 86.79C33.4672 87.28 33.2622 87.97 33.2622 88.86C33.2622 89.75 33.4672 90.445 33.8772 90.945C34.2972 91.445 34.8572 91.695 35.5572 91.695C36.5472 91.695 37.2022 91.26 37.5222 90.39H39.3672C39.1272 91.23 38.6772 91.9 38.0172 92.4C37.3572 92.89 36.5372 93.135 35.5572 93.135C34.7672 93.135 34.0672 92.96 33.4572 92.61C32.8472 92.25 32.3672 91.75 32.0172 91.11C31.6772 90.46 31.5072 89.71 31.5072 88.86ZM43.0664 86.13V90.705C43.0664 91.015 43.1364 91.24 43.2764 91.38C43.4264 91.51 43.6764 91.575 44.0264 91.575H45.0764V93H43.7264C42.9564 93 42.3664 92.82 41.9564 92.46C41.5464 92.1 41.3414 91.515 41.3414 90.705V86.13H40.3664V84.735H41.3414V82.68H43.0664V84.735H45.0764V86.13H43.0664ZM56.2339 82.575V90.09C56.2339 91.02 55.9489 91.755 55.3789 92.295C54.8189 92.835 54.0789 93.105 53.1589 93.105C52.2389 93.105 51.4939 92.835 50.9239 92.295C50.3639 91.755 50.0839 91.02 50.0839 90.09H51.8089C51.8189 90.55 51.9339 90.915 52.1539 91.185C52.3839 91.455 52.7189 91.59 53.1589 91.59C53.5989 91.59 53.9339 91.455 54.1639 91.185C54.3939 90.905 54.5089 90.54 54.5089 90.09V82.575H56.2339ZM62.0157 93.135C61.3657 93.135 60.7807 93.02 60.2607 92.79C59.7507 92.55 59.3457 92.23 59.0457 91.83C58.7457 91.42 58.5857 90.965 58.5657 90.465H60.3357C60.3657 90.815 60.5307 91.11 60.8307 91.35C61.1407 91.58 61.5257 91.695 61.9857 91.695C62.4657 91.695 62.8357 91.605 63.0957 91.425C63.3657 91.235 63.5007 90.995 63.5007 90.705C63.5007 90.395 63.3507 90.165 63.0507 90.015C62.7607 89.865 62.2957 89.7 61.6557 89.52C61.0357 89.35 60.5307 89.185 60.1407 89.025C59.7507 88.865 59.4107 88.62 59.1207 88.29C58.8407 87.96 58.7007 87.525 58.7007 86.985C58.7007 86.545 58.8307 86.145 59.0907 85.785C59.3507 85.415 59.7207 85.125 60.2007 84.915C60.6907 84.705 61.2507 84.6 61.8807 84.6C62.8207 84.6 63.5757 84.84 64.1457 85.32C64.7257 85.79 65.0357 86.435 65.0757 87.255H63.3657C63.3357 86.885 63.1857 86.59 62.9157 86.37C62.6457 86.15 62.2807 86.04 61.8207 86.04C61.3707 86.04 61.0257 86.125 60.7857 86.295C60.5457 86.465 60.4257 86.69 60.4257 86.97C60.4257 87.19 60.5057 87.375 60.6657 87.525C60.8257 87.675 61.0207 87.795 61.2507 87.885C61.4807 87.965 61.8207 88.07 62.2707 88.2C62.8707 88.36 63.3607 88.525 63.7407 88.695C64.1307 88.855 64.4657 89.095 64.7457 89.415C65.0257 89.735 65.1707 90.16 65.1807 90.69C65.1807 91.16 65.0507 91.58 64.7907 91.95C64.5307 92.32 64.1607 92.61 63.6807 92.82C63.2107 93.03 62.6557 93.135 62.0157 93.135Z"
    fill="black"/>
  <path fill-rule="evenodd" clip-rule="evenodd"
        d="M18.9953 17.9912L18.6943 16.9337C18.5879 16.5586 18.4881 16.1885 18.3949 15.8237C18.7578 15.7218 19.1285 15.623 19.5068 15.5273L20.5751 15.2578L20.8761 16.3176C20.9862 16.6968 21.1004 17.0748 21.2188 17.4514C20.8328 17.5372 20.4477 17.6273 20.0636 17.7218L18.9953 17.9912ZM26.2564 16.581C24.5645 16.7907 22.8834 17.0811 21.2188 17.4514C21.7297 19.0765 22.3182 20.6761 22.9821 22.2444C22.6122 22.9625 22.2549 23.687 21.9105 24.4178L21.6853 24.8977C20.6431 22.6607 19.7498 20.3573 19.0111 18.0024C12.959 19.7031 9.24493 22.305 9.24493 24.9001C9.24493 27.4929 12.959 30.0948 19.0111 31.7977C19.751 29.4434 20.6443 27.14 21.6852 24.9025L21.9105 25.3825C22.255 26.1133 22.6124 26.838 22.9823 27.5561C22.3172 29.1255 21.7283 30.7265 21.2178 32.3535C20.8268 32.266 20.4412 32.1743 20.0613 32.0786L18.993 31.8091L18.6943 32.8689C18.5881 33.2432 18.4885 33.6125 18.3955 33.9765C11.1209 31.9339 6.97711 28.6553 6.97711 24.9C6.97711 21.1449 11.1207 17.8664 18.3949 15.8237C16.5266 8.5104 17.2975 3.28918 20.557 1.40838C23.7521 -0.436831 28.7888 1.54898 34.1367 6.74655C33.8667 7.00903 33.5958 7.27972 33.3243 7.5585L32.5548 8.34881L33.3243 9.1391C33.5985 9.42413 33.8695 9.71222 34.1371 10.0032C32.9842 11.257 31.8921 12.5652 30.8646 13.9233C30.0565 13.9626 29.249 14.0165 28.4424 14.0849L27.9105 14.1302C29.3306 12.11 30.8821 10.1855 32.5549 8.36929C29.0241 4.92953 25.6812 2.97754 23.2866 2.97754C22.68 2.97754 22.1436 3.10888 21.6909 3.36929C19.4412 4.66684 19.0429 9.17773 20.5932 15.2647C23.0051 14.7278 25.4494 14.3489 27.9105 14.1302L27.605 14.5673C27.144 15.2307 26.6937 15.9031 26.2564 16.581ZM26.2564 16.581C27.0455 16.4832 27.837 16.403 28.6302 16.3405L29.1621 16.2951L29.4677 15.8581C29.919 15.2026 30.3847 14.5575 30.8646 13.9233C33.0446 13.8173 35.2285 13.8172 37.4086 13.9232C37.8879 14.5573 38.3531 15.2024 38.8038 15.8578L39.1094 16.2949L39.639 16.3402C40.4329 16.4022 41.2251 16.4821 42.0149 16.5797C43.197 18.4138 44.2902 20.3039 45.2905 22.2433C44.9802 22.9752 44.6535 23.7003 44.3105 24.418L44.0819 24.9003L44.3105 25.3827C44.654 26.1009 44.9812 26.8266 45.2918 27.5591C44.2937 29.4973 43.2017 31.3856 42.0197 33.2173C41.2283 33.3151 40.4345 33.3953 39.639 33.4576L39.1094 33.5029L38.8038 33.94C38.353 34.5954 37.8876 35.2405 37.4082 35.8747C36.3066 35.9282 35.2127 35.9554 34.1369 35.9554C33.0587 35.9554 31.963 35.9281 30.8595 35.8743C30.3799 35.2402 29.9143 34.5953 29.4631 33.94L29.1598 33.5029L28.628 33.4576C27.8229 33.3905 27.0306 33.309 26.2525 33.2135C25.663 32.2986 25.0951 31.3698 24.5495 30.4278C24.0044 29.483 23.4818 28.5255 22.9823 27.5561C23.2921 26.8253 23.6184 26.1012 23.961 25.3846L24.1896 24.9023L23.961 24.42C23.6184 23.7019 23.292 22.9766 22.9821 22.2444C23.4816 21.2749 24.0042 20.3173 24.5495 19.3725C25.0898 18.4376 25.6609 17.5042 26.2564 16.581ZM27.9088 35.6676L27.605 35.233C27.1423 34.5678 26.6914 33.8945 26.2525 33.2135C24.4957 32.9977 22.8116 32.7101 21.2178 32.3535C21.0997 32.7299 20.9858 33.1078 20.8761 33.487L20.5751 34.5445L19.5068 34.2728C19.1287 34.1772 18.7582 34.0784 18.3955 33.9765C16.5264 41.2889 17.2972 46.5109 20.557 48.3897C21.3889 48.8603 22.331 49.101 23.2865 49.0872C26.3043 49.0872 30.1308 46.9539 34.1348 43.0526C38.1407 46.9539 41.9675 49.0872 44.9895 49.0872C45.9443 49.1006 46.8855 48.8599 47.7168 48.3897C50.9765 46.5109 51.7452 41.2872 49.8801 33.9769C57.1528 31.9344 61.2967 28.6578 61.2967 24.9003C61.2967 21.143 57.153 17.8644 49.8807 15.8217C51.7472 8.51028 50.9763 3.28897 47.7167 1.40814C44.5174 -0.434908 39.4825 1.55096 34.1367 6.74655C34.4069 7.00912 34.6779 7.27987 34.9494 7.55874L35.7189 8.34906L34.9494 9.13934C34.6754 9.42431 34.4046 9.71231 34.1371 10.0032C35.2901 11.2567 36.3818 12.5649 37.4086 13.9232C38.2176 13.9625 39.0261 14.0164 39.8337 14.0849L40.3607 14.13L40.361 14.1304L40.3636 14.1306L40.6666 14.5673C41.1281 15.2302 41.5776 15.9011 42.0149 16.5797C43.7077 16.7888 45.3896 17.0794 47.0548 17.4505C46.5439 19.0758 45.9551 20.6752 45.2905 22.2433C45.6609 22.9615 46.0186 23.6864 46.3633 24.4178L46.5896 24.8952L46.5873 24.9001L46.5896 24.905L46.3633 25.3825C46.0192 26.1147 45.662 26.8403 45.2918 27.5591C45.9562 29.1261 46.5447 30.7245 47.0551 32.3487C45.3912 32.7184 43.7108 33.0082 42.0197 33.2173C41.581 33.8971 41.1299 34.5691 40.6666 35.233L40.3652 35.6674L40.361 35.6677L40.3591 35.6704L39.8337 35.7154C39.0238 35.7823 38.214 35.8355 37.4082 35.8747C36.3805 37.2342 35.2881 38.5438 34.1346 39.7988C32.9808 38.5435 31.8878 37.2338 30.8595 35.8743C30.0567 35.8352 29.2497 35.7821 28.4424 35.7154L27.9123 35.6702L27.9105 35.6677L27.9088 35.6676ZM27.9088 35.6676L27.9105 35.6701L27.9123 35.6702C29.3326 37.6897 30.8834 39.614 32.5549 41.4308C28.1255 45.7402 23.9248 47.7057 21.6909 46.4308C19.4412 45.1333 19.0406 40.6201 20.5932 34.5332C23.0044 35.0709 25.4481 35.4498 27.9088 35.6676ZM40.3591 35.6704L40.3633 35.6701L40.3652 35.6674C42.8257 35.4493 45.2694 35.0705 47.6805 34.5332C49.2332 40.6201 48.8326 45.1333 46.5828 46.4308C46.1324 46.6912 45.5938 46.8226 44.9895 46.8226H44.9872C42.5926 46.8226 39.2497 44.8706 35.7189 41.4308C37.3912 39.6154 38.9413 37.691 40.3591 35.6704ZM46.5896 24.905L46.5919 24.9001L46.5896 24.8952C47.631 22.6589 48.524 20.3563 49.2626 18.0024C55.3147 19.7054 59.0288 22.305 59.0288 24.9001C59.0288 27.4929 55.3169 30.0948 49.2626 31.7977C48.5728 29.5665 47.675 27.2561 46.5896 24.905ZM40.3636 14.1306L40.3633 14.1302L40.3607 14.13C38.9414 12.11 37.3908 10.1857 35.7189 8.36953C40.1437 4.05795 44.3467 2.07651 46.5828 3.36953C48.8326 4.66711 49.2332 9.17798 47.6805 15.2649C45.4021 14.7488 42.9473 14.3662 40.3636 14.1306ZM47.0548 17.4505C47.1733 17.0736 47.2876 16.6953 47.3977 16.3156L47.6987 15.2559L48.7692 15.5253C49.1474 15.621 49.518 15.7198 49.8807 15.8217C49.7876 16.1864 49.688 16.5563 49.5817 16.9312L49.2784 17.991L48.2101 17.7215C47.826 17.6269 47.4408 17.5365 47.0548 17.4505ZM47.0551 32.3487C47.441 32.2629 47.8261 32.1729 48.2102 32.0786L49.2784 31.8091L49.5817 32.8689C49.6877 33.2433 49.7872 33.6127 49.8801 33.9769C49.5176 34.0787 49.1472 34.1775 48.7692 34.2731L47.6987 34.5448L47.3977 33.4828C47.2877 33.1034 47.1735 32.7253 47.0551 32.3487ZM34.1346 39.7988C34.4014 40.0891 34.6716 40.3765 34.9449 40.661L35.7144 41.4513L34.9449 42.2416C34.6742 42.5199 34.4041 42.7902 34.1348 43.0526C33.8654 42.7902 33.5952 42.5199 33.3243 42.2416L32.5548 41.4513L33.3243 40.661C33.5977 40.3765 33.8678 40.0891 34.1346 39.7988ZM21.6852 24.9025L21.6841 24.9001L21.6853 24.8977L21.6864 24.9001L21.6852 24.9025ZM34.1369 20.0654C32.4073 20.0654 30.8091 20.9886 29.9443 22.4873C29.0795 23.986 29.0795 25.8324 29.9443 27.3311C30.8091 28.8297 32.4073 29.7529 34.1369 29.7529C35.8665 29.7529 37.4647 28.8297 38.3295 27.3311C39.1943 25.8324 39.1943 23.986 38.3295 22.4873C37.4647 20.9886 35.8665 20.0654 34.1369 20.0654ZM39.1117 33.5009C35.7597 33.7523 32.5141 33.7523 29.1644 33.5009C27.293 30.7633 25.6308 27.8883 24.1919 24.9004C25.6259 21.9098 27.2883 19.0345 29.1644 16.2998C32.4746 16.0485 35.7992 16.0485 39.1094 16.2998C40.9847 19.035 42.6471 21.9103 44.0819 24.9004C42.6445 27.8887 40.983 30.7637 39.1117 33.5009Z"
        fill="black"/>
</svg>
