<svg width="45" height="46" viewBox="0 0 45 46" fill="none" xmlns="http://www.w3.org/2000/svg">
  <path
    d="M21.543 9.72461L14.9805 12.4785V1.21875L9.63867 19.8027L14.9805 17.4395V30.1641L21.543 9.72461ZM13.418 0.28125L13.291 0.740234L11.8066 5.90625C7.87109 7.41992 5.07812 11.2383 5.07812 15.7012C5.07812 20.8086 8.42773 25.0664 13.2227 26.0039V31.2383C5.61523 30.2129 0 23.6016 0 15.7109C0 7.84961 5.83984 1.33594 13.418 0.28125ZM43.8281 43.9531C42.7344 45.0469 41.5723 45.1543 41.0352 44.9785C40.5078 44.8027 38.3887 43.0352 35.1367 40.6426C31.8848 38.2402 31.8555 37.1562 30.9375 35.1055C30.0195 33.0645 27.9687 30.9453 25.3223 29.9883L24.375 28.5527C21.9629 30.2031 19.1992 31.1797 16.4355 31.3555L16.6406 30.7109L18.1934 25.877C22.7344 24.7148 26.0937 20.6035 26.0937 15.7012C26.0937 10.3789 22.3437 5.73047 16.7187 5.24219V0.154297C24.8437 0.652344 31.25 7.42969 31.25 15.7109C31.25 18.9922 30.1562 22.0293 28.418 24.5391L29.8437 25.4766C30.8008 28.123 32.9199 30.1641 34.9609 31.082C37.0019 32 38.1055 32.0293 40.5078 35.2812C42.9101 38.5234 44.6777 40.6426 44.8535 41.1699C45.0293 41.6973 44.9219 42.8594 43.8281 43.9531ZM42.8613 42.2051C42.8613 41.7754 42.5098 41.4238 42.0801 41.4238C41.6504 41.4238 41.2988 41.7754 41.2988 42.2051C41.2988 42.6348 41.6504 42.9863 42.0801 42.9863C42.5098 42.9863 42.8613 42.6348 42.8613 42.2051Z"
    fill="#3B635A"/>
</svg>
