<svg width="287" height="299" viewBox="0 0 287 299" fill="none" xmlns="http://www.w3.org/2000/svg">
  <g clip-path="url(#clip0_253_2745)">
    <path
      d="M263.226 255.78L250.08 267.883L260.527 250.352C252.296 235.426 238.834 222.526 238.834 222.526C238.834 222.526 210.905 249.284 210.905 270.317C210.905 291.351 223.409 298.695 238.834 298.695C254.259 298.695 266.763 291.351 266.763 270.317C266.763 265.636 265.377 260.671 263.226 255.78Z"
      fill="#F2F2F2"/>
    <path
      d="M246.699 268.538V269.575C246.637 281.626 244.605 291.029 240.617 297.65C240.56 297.747 240.499 297.84 240.442 297.937L239.996 297.665L239.57 297.398C243.994 290.249 245.56 280.143 245.616 269.631C245.621 269.292 245.626 268.949 245.621 268.605C245.606 264.155 245.334 259.653 244.897 255.281C244.867 254.942 244.831 254.598 244.795 254.254C244.189 248.485 243.317 242.973 242.424 238.184C242.362 237.845 242.295 237.506 242.228 237.173C240.684 229.074 239.108 223.207 238.749 221.909C238.708 221.749 238.682 221.662 238.677 221.642L239.164 221.503L239.169 221.498L239.662 221.359C239.667 221.38 239.755 221.673 239.898 222.217C240.447 224.249 241.874 229.767 243.276 237.044C243.337 237.373 243.404 237.712 243.465 238.05C244.194 241.936 244.908 246.278 245.472 250.836C245.616 251.98 245.744 253.109 245.857 254.223C245.898 254.567 245.934 254.911 245.965 255.25C246.437 259.977 246.682 264.406 246.699 268.538Z"
      fill="white"/>
    <path
      d="M243.276 237.044C242.932 237.091 242.583 237.137 242.229 237.173C241.267 237.272 240.301 237.321 239.334 237.322C235.213 237.327 231.144 236.408 227.426 234.632C227.211 234.904 226.995 235.176 226.774 235.453C230.686 237.362 234.981 238.353 239.334 238.348C240.366 238.348 241.397 238.293 242.424 238.184C242.773 238.148 243.122 238.102 243.466 238.05C246.304 237.643 249.064 236.807 251.652 235.571C251.431 235.289 251.216 235.012 251.005 234.74C248.556 235.884 245.952 236.661 243.276 237.044Z"
      fill="white"/>
    <path
      d="M245.857 254.223C245.502 254.244 245.148 254.254 244.794 254.254C244.686 254.259 244.573 254.259 244.466 254.259C240.001 254.259 235.603 253.18 231.645 251.112C227.688 249.045 224.289 246.052 221.739 242.387C221.533 242.69 221.328 242.993 221.128 243.301C223.786 247.009 227.29 250.03 231.348 252.114C235.407 254.198 239.903 255.285 244.466 255.286C244.609 255.286 244.753 255.286 244.897 255.28C245.256 255.275 245.61 255.265 245.964 255.25C251.444 254.969 256.728 253.116 261.182 249.912C261.018 249.609 260.854 249.306 260.685 249.003C256.355 252.149 251.202 253.963 245.857 254.223Z"
      fill="white"/>
    <path
      d="M246.699 268.538C246.34 268.569 245.98 268.589 245.621 268.605C245.236 268.62 244.851 268.63 244.466 268.63C238.467 268.623 232.631 266.673 227.833 263.072C223.034 259.471 219.532 254.413 217.849 248.654C217.618 249.07 217.387 249.481 217.166 249.896C219.062 255.641 222.721 260.643 227.621 264.19C232.522 267.738 238.416 269.65 244.466 269.657C244.851 269.657 245.236 269.652 245.616 269.631C245.98 269.621 246.34 269.6 246.699 269.575C253.956 269.007 260.726 265.703 265.638 260.331C265.53 259.951 265.407 259.576 265.284 259.197C260.539 264.609 253.873 267.959 246.699 268.538Z"
      fill="white"/>
    <path
      d="M215.951 64.6442L72.9638 46.4145C72.5786 46.3651 72.1907 46.3399 71.8023 46.3391C71.4195 46.3385 71.0371 46.3626 70.6574 46.4114C70.2784 46.4601 69.903 46.5336 69.5336 46.6314C69.1598 46.7311 68.7929 46.855 68.4351 47.0021C68.0846 47.146 67.7431 47.311 67.4126 47.4963C67.0776 47.683 66.7539 47.8893 66.4432 48.1142C66.1254 48.3449 65.8209 48.5934 65.5313 48.8586C65.2323 49.1316 64.9481 49.4203 64.6799 49.7236C64.4047 50.036 64.1458 50.3622 63.9039 50.701C63.6597 51.0441 63.4305 51.401 63.2163 51.7717C63.0021 52.1437 62.8034 52.5304 62.6201 52.932C62.4368 53.3336 62.2696 53.7488 62.1184 54.1776C61.9619 54.6208 61.8247 55.0738 61.7069 55.5368C61.5891 55.9998 61.4907 56.4707 61.4116 56.9498C61.3342 57.4284 61.2749 57.9148 61.2337 58.4091C61.1925 58.9034 61.1719 59.4036 61.1719 59.9098C61.1735 60.4156 61.1941 60.9198 61.2337 61.4223C61.2732 61.9248 61.3325 62.4232 61.4116 62.9174C61.4915 63.4138 61.5904 63.9051 61.7081 64.3916C61.8259 64.878 61.9631 65.3589 62.1196 65.8342C62.2708 66.2935 62.438 66.7422 62.6213 67.1805C62.8046 67.6192 63.0033 68.0459 63.2175 68.4606C63.4317 68.8754 63.6609 69.2782 63.9052 69.6691C64.149 70.0616 64.4077 70.4393 64.6812 70.8022C64.9546 71.1651 65.2384 71.5113 65.5325 71.8408C65.8266 72.1682 66.1306 72.4772 66.4445 72.7675C66.7583 73.0579 67.0814 73.3291 67.4138 73.5812C67.7426 73.8308 68.0839 74.0634 68.4363 74.2781C68.7913 74.4947 69.158 74.6913 69.5348 74.8669C69.9004 75.0373 70.2757 75.186 70.6587 75.3124C71.0338 75.4362 71.4161 75.5371 71.8035 75.6145C72.1871 75.6909 72.575 75.7435 72.965 75.7721L215.952 86.2313C216.368 86.2616 216.786 86.2198 217.188 86.1077C217.392 86.0509 217.592 85.9773 217.784 85.8878C217.985 85.7943 218.179 85.6859 218.363 85.5634C218.55 85.4393 218.729 85.3031 218.898 85.1556C219.076 85.0009 219.244 84.8359 219.402 84.6614C219.569 84.477 219.727 84.284 219.874 84.0831C220.026 83.8763 220.172 83.656 220.312 83.422C220.452 83.1881 220.584 82.944 220.709 82.6899C220.834 82.4357 220.951 82.1717 221.059 81.8978C221.168 81.6243 221.269 81.3413 221.362 81.0489C221.455 80.7565 221.539 80.4554 221.615 80.1456C221.696 79.8252 221.765 79.499 221.823 79.167C221.881 78.835 221.931 78.4981 221.972 78.1562C222.012 77.8144 222.042 77.468 222.061 77.117C222.081 76.7661 222.091 76.4113 222.091 76.0525C222.09 75.6942 222.08 75.3375 222.061 74.9824C222.043 74.6274 222.013 74.275 221.972 73.9253C221.932 73.5756 221.882 73.2288 221.823 72.8849C221.764 72.541 221.694 72.2007 221.615 71.8642C221.539 71.5388 221.455 71.2209 221.362 70.9103C221.27 70.6038 221.169 70.3019 221.059 70.0046C220.949 69.7072 220.833 69.4188 220.709 69.1396C220.585 68.8607 220.452 68.5901 220.312 68.3278C220.171 68.0654 220.025 67.8158 219.874 67.5789C219.722 67.3421 219.565 67.1176 219.402 66.9055C219.24 66.6934 219.072 66.4948 218.898 66.3099C218.729 66.1287 218.551 65.9567 218.363 65.7946C218.18 65.6358 217.986 65.4887 217.784 65.3541C217.594 65.227 217.394 65.1134 217.188 65.0143C216.991 64.9196 216.786 64.8402 216.576 64.7771C216.372 64.7157 216.163 64.6713 215.951 64.6442"
      fill="#3B635A"/>
    <path
      d="M215.951 105.759L72.9638 102.334C72.1882 102.315 71.4132 102.394 70.6574 102.57C70.2762 102.659 69.9008 102.771 69.5336 102.906C69.1581 103.045 68.7913 103.206 68.4351 103.388C68.0834 103.569 67.7421 103.768 67.4126 103.986C67.0768 104.209 66.7532 104.449 66.4432 104.706C66.1251 104.97 65.8207 105.25 65.5313 105.545C65.2368 105.845 64.953 106.164 64.6799 106.502C64.4068 106.84 64.1482 107.193 63.9039 107.56C63.6597 107.927 63.4304 108.308 63.2163 108.702C63.0021 109.096 62.8034 109.503 62.6201 109.924C62.4368 110.344 62.2695 110.777 62.1184 111.221C61.9619 111.681 61.8247 112.149 61.7069 112.624C61.5891 113.099 61.4907 113.58 61.4116 114.067C61.3342 114.554 61.2748 115.047 61.2337 115.545C61.1925 116.044 61.1719 116.546 61.1719 117.052C61.1735 117.559 61.1941 118.061 61.2337 118.559C61.2732 119.057 61.3325 119.549 61.4116 120.036C61.4915 120.52 61.5904 120.999 61.7081 121.474C61.8259 121.948 61.9631 122.414 62.1196 122.874C62.2708 123.319 62.438 123.752 62.6213 124.171C62.8046 124.59 63.0033 124.996 63.2175 125.389C63.4317 125.782 63.6609 126.161 63.9051 126.527C64.149 126.891 64.4077 127.241 64.6812 127.577C64.9546 127.913 65.2384 128.23 65.5325 128.528C65.822 128.821 66.1263 129.099 66.4444 129.361C66.7545 129.617 67.0781 129.855 67.4138 130.075C67.7434 130.291 68.0847 130.488 68.4363 130.666C68.7926 130.847 69.1594 131.005 69.5348 131.141C69.9022 131.274 70.2776 131.384 70.6587 131.471C71.036 131.557 71.4184 131.619 71.8035 131.656C72.1895 131.693 72.5775 131.706 72.965 131.694L215.951 127.344C216.161 127.337 216.37 127.313 216.576 127.271C216.785 127.229 216.989 127.17 217.188 127.094C217.394 127.015 217.593 126.921 217.784 126.812C217.986 126.698 218.179 126.569 218.363 126.428C218.55 126.284 218.729 126.129 218.898 125.965C219.076 125.792 219.244 125.609 219.402 125.418C219.565 125.224 219.722 125.015 219.874 124.791C220.026 124.568 220.172 124.332 220.312 124.085C220.452 123.836 220.584 123.578 220.709 123.312C220.834 123.045 220.951 122.769 221.059 122.484C221.168 122.194 221.269 121.899 221.362 121.6C221.455 121.3 221.539 120.991 221.615 120.673C221.696 120.347 221.765 120.016 221.823 119.678C221.881 119.339 221.931 118.997 221.972 118.651C222.012 118.304 222.042 117.954 222.061 117.601C222.081 117.248 222.091 116.892 222.091 116.533C222.09 116.178 222.08 115.823 222.061 115.468C222.043 115.114 222.013 114.763 221.972 114.418C221.932 114.071 221.882 113.729 221.823 113.393C221.764 113.056 221.694 112.723 221.615 112.394C221.539 112.076 221.454 111.766 221.361 111.465C221.269 111.163 221.168 110.87 221.059 110.586C220.951 110.302 220.834 110.027 220.71 109.76C220.585 109.494 220.452 109.237 220.312 108.99C220.172 108.742 220.026 108.507 219.874 108.285C219.723 108.063 219.566 107.855 219.403 107.661C219.245 107.471 219.076 107.29 218.899 107.118C218.73 106.954 218.551 106.8 218.364 106.658C218.18 106.518 217.986 106.391 217.785 106.277C217.593 106.17 217.394 106.077 217.188 106.001C216.989 105.926 216.785 105.868 216.576 105.827C216.37 105.787 216.161 105.764 215.951 105.759Z"
      fill="#E4E4E4"/>
    <path
      d="M215.951 144.304L72.9638 154.761C72.5737 154.79 72.1858 154.842 71.8023 154.919C71.4149 154.996 71.0326 155.097 70.6574 155.221C70.2744 155.347 69.8992 155.496 69.5336 155.666C69.1568 155.842 68.79 156.039 68.4351 156.255C68.0826 156.47 67.7414 156.702 67.4126 156.952C67.0798 157.206 66.7567 157.477 66.4432 157.766C66.1298 158.055 65.8258 158.364 65.5313 158.692C65.2368 159.021 64.953 159.367 64.6799 159.731C64.4068 160.096 64.1482 160.474 63.9039 160.865C63.6597 161.256 63.4305 161.659 63.2163 162.074C63.0021 162.489 62.8034 162.916 62.6201 163.354C62.4368 163.792 62.2696 164.241 62.1184 164.7C61.9619 165.175 61.8247 165.656 61.7069 166.143C61.5891 166.63 61.4907 167.121 61.4116 167.615C61.3342 168.11 61.2749 168.609 61.2337 169.111C61.1925 169.613 61.1719 170.117 61.1719 170.623C61.1735 171.13 61.1941 171.63 61.2337 172.124C61.2732 172.618 61.3325 173.105 61.4116 173.584C61.4915 174.064 61.5904 174.536 61.7081 174.998C61.8259 175.46 61.9631 175.913 62.1196 176.357C62.2708 176.786 62.438 177.201 62.6213 177.602C62.8046 178.004 63.0033 178.391 63.2175 178.763C63.4317 179.135 63.6609 179.492 63.9052 179.833C64.147 180.172 64.406 180.499 64.6812 180.811C64.9493 181.114 65.2335 181.403 65.5325 181.676C65.8222 181.941 66.1266 182.19 66.4445 182.42C66.7551 182.645 67.0788 182.851 67.4138 183.038C67.7443 183.223 68.0858 183.389 68.4363 183.532C68.7941 183.68 69.1611 183.803 69.5348 183.903C69.9043 184.001 70.2797 184.074 70.6587 184.123C71.0383 184.172 71.4208 184.196 71.8035 184.195C72.1919 184.195 72.5798 184.169 72.965 184.12L215.951 165.895C216.163 165.867 216.372 165.823 216.576 165.762C216.786 165.699 216.991 165.619 217.188 165.524C217.394 165.425 217.594 165.312 217.784 165.185C217.986 165.05 218.18 164.903 218.363 164.744C218.551 164.582 218.729 164.41 218.898 164.229C219.07 164.044 219.238 163.845 219.402 163.633C219.565 163.422 219.722 163.197 219.874 162.96C220.026 162.723 220.172 162.473 220.312 162.211C220.452 161.951 220.584 161.68 220.709 161.399C220.834 161.118 220.951 160.83 221.059 160.534C221.168 160.237 221.269 159.933 221.362 159.623C221.455 159.312 221.539 158.994 221.615 158.669C221.696 158.332 221.765 157.992 221.823 157.648C221.881 157.304 221.931 156.957 221.972 156.607C222.012 156.258 222.042 155.905 222.061 155.55C222.081 155.195 222.091 154.838 222.091 154.479C222.089 154.123 222.079 153.769 222.061 153.418C222.042 153.067 222.012 152.721 221.971 152.379C221.932 152.036 221.882 151.698 221.823 151.366C221.764 151.034 221.694 150.708 221.615 150.388C221.539 150.077 221.455 149.776 221.362 149.484C221.271 149.192 221.17 148.909 221.06 148.635C220.95 148.361 220.833 148.097 220.71 147.843C220.584 147.591 220.451 147.348 220.311 147.113C220.17 146.878 220.024 146.658 219.872 146.452C219.726 146.251 219.568 146.058 219.401 145.874C219.243 145.699 219.075 145.534 218.897 145.379C218.728 145.232 218.549 145.096 218.362 144.972C218.177 144.849 217.984 144.741 217.783 144.647C217.591 144.558 217.391 144.484 217.187 144.427C216.785 144.315 216.367 144.273 215.951 144.304"
      fill="#E4E4E4"/>
    <path
      d="M138.015 146.22C138.921 147.726 140.348 148.847 142.025 149.37C143.703 149.893 145.515 149.781 147.116 149.057C148.717 148.333 149.996 147.046 150.711 145.44C151.426 143.835 151.526 142.023 150.993 140.348L178.706 83.4153L165.441 75.3738L141.508 135.848C141.416 135.884 141.326 135.921 141.238 135.96C141.149 135.999 141.06 136.04 140.972 136.082C140.884 136.125 140.797 136.169 140.71 136.216C140.624 136.263 140.538 136.312 140.452 136.364C138.822 137.348 137.65 138.939 137.193 140.787C136.735 142.635 137.031 144.589 138.014 146.219L138.015 146.22Z"
      fill="#9E616A"/>
    <path
      d="M173.416 105.369L153.729 100.323C153.729 100.323 154.371 98.8701 155.416 96.4628C156.461 94.0556 157.92 90.6988 159.562 86.8877C161.204 83.0766 163.026 78.8182 164.805 74.609C166.585 70.3997 168.315 66.2409 169.772 62.6361C171.23 59.0313 172.886 56.8723 174.55 55.6624C175.927 54.6156 177.662 54.1545 179.377 54.3791C180.71 54.5777 181.984 55.0627 183.112 55.8009C183.646 56.1331 184.148 56.5141 184.611 56.9389L189.176 65.2399L173.416 105.369Z"
      fill="#CCCCCC"/>
    <path
      d="M15.861 100.86C15.3842 100.895 14.9098 100.957 14.44 101.046C13.9671 101.134 13.4995 101.249 13.0393 101.389C12.5722 101.532 12.113 101.7 11.664 101.892C11.2045 102.089 10.7555 102.31 10.319 102.553C9.89189 102.793 9.47444 103.054 9.06667 103.337C8.6589 103.619 8.26286 103.922 7.87858 104.246C7.4947 104.569 7.12214 104.914 6.76092 105.28C6.39969 105.646 6.05166 106.033 5.7168 106.439C5.38193 106.845 5.06456 107.266 4.7647 107.701C4.46484 108.136 4.18352 108.585 3.92075 109.047C3.66043 109.509 3.417 109.984 3.19046 110.472C2.96392 110.96 2.75798 111.459 2.57263 111.969C2.37946 112.498 2.21038 113.033 2.06539 113.573C1.9204 114.114 1.79951 114.659 1.70272 115.208C1.60551 115.758 1.53262 116.311 1.48401 116.868C1.43541 117.425 1.41112 117.984 1.41113 118.545C1.41113 119.106 1.43543 119.661 1.48401 120.208C1.5326 120.755 1.6055 121.293 1.70272 121.823C1.79952 122.353 1.92041 122.874 2.06539 123.385C2.21038 123.896 2.37884 124.397 2.57078 124.887C2.75778 125.36 2.96372 125.818 3.18861 126.261C3.41091 126.698 3.65504 127.125 3.92012 127.538C4.18104 127.944 4.46275 128.336 4.76409 128.712C5.06256 129.086 5.38056 129.445 5.71678 129.785C6.04745 130.12 6.396 130.437 6.76092 130.734C7.11826 131.025 7.49159 131.296 7.87919 131.546C8.6441 132.038 9.46293 132.441 10.3196 132.747C11.1979 133.06 12.1105 133.268 13.0381 133.364C13.5033 133.412 13.971 133.433 14.4387 133.426C14.9139 133.42 15.3883 133.386 15.8597 133.325C16.3354 133.265 16.8073 133.178 17.2733 133.065C17.7408 132.952 18.2017 132.814 18.6542 132.651C19.1118 132.486 19.5603 132.297 19.998 132.084C20.4439 131.868 20.8786 131.629 21.3004 131.369C21.711 131.113 22.111 130.838 22.5002 130.545C22.8894 130.251 23.2665 129.939 23.6314 129.607C23.9964 129.275 24.3487 128.925 24.6885 128.556C25.0284 128.188 25.355 127.802 25.6684 127.397C25.9839 126.993 26.2809 126.577 26.5593 126.149C26.8378 125.72 27.0985 125.281 27.3415 124.83C27.5846 124.379 27.8094 123.917 28.0162 123.445C28.223 122.973 28.4114 122.491 28.5815 121.999C28.7578 121.49 28.9121 120.977 29.0443 120.459C29.1765 119.941 29.2869 119.42 29.3754 118.895C29.4636 118.369 29.5299 117.841 29.5744 117.31C29.6189 116.779 29.6411 116.246 29.6411 115.71C29.6407 115.175 29.6185 114.646 29.5744 114.124C29.5303 113.602 29.464 113.087 29.3754 112.579C29.2873 112.073 29.1769 111.573 29.0443 111.082C28.9117 110.59 28.7574 110.107 28.5815 109.634C28.4106 109.176 28.2222 108.732 28.0162 108.301C27.8074 107.872 27.5815 107.456 27.3385 107.052C26.8574 106.254 26.2979 105.507 25.6684 104.82C25.3595 104.482 25.0333 104.161 24.691 103.857C24.354 103.558 24.0011 103.279 23.6339 103.018C23.2702 102.761 22.8926 102.523 22.5027 102.307C22.113 102.091 21.7116 101.898 21.3004 101.726C20.4512 101.373 19.5632 101.121 18.6548 100.976C18.1976 100.903 17.7366 100.857 17.274 100.838C16.8027 100.819 16.3307 100.827 15.8604 100.862"
      fill="#E4E4E4"/>
    <path
      d="M15.861 158.936C15.3842 158.972 14.9098 159.034 14.44 159.122C13.9671 159.21 13.4995 159.325 13.0393 159.465C12.5722 159.608 12.113 159.776 11.664 159.968C11.2045 160.165 10.7555 160.386 10.319 160.629C9.89189 160.869 9.47444 161.131 9.06667 161.413C8.6589 161.695 8.26286 161.998 7.87858 162.322C7.4947 162.646 7.12214 162.99 6.76092 163.356C6.39969 163.723 6.05166 164.109 5.7168 164.515C5.38193 164.921 5.06456 165.342 4.7647 165.777C4.46484 166.212 4.18352 166.661 3.92075 167.123C3.66043 167.585 3.417 168.06 3.19046 168.548C2.96392 169.036 2.75798 169.535 2.57263 170.045C2.37946 170.574 2.21038 171.109 2.06539 171.65C1.9204 172.19 1.79951 172.735 1.70272 173.284C1.60551 173.834 1.53262 174.387 1.48401 174.944C1.43541 175.501 1.41112 176.06 1.41113 176.621C1.41113 177.183 1.43543 177.737 1.48401 178.284C1.5326 178.831 1.6055 179.369 1.70272 179.899C1.79952 180.43 1.92041 180.95 2.06539 181.461C2.21038 181.972 2.37884 182.473 2.57078 182.963C2.75778 183.437 2.96372 183.894 3.18861 184.337C3.41091 184.775 3.65504 185.201 3.92012 185.614C4.18104 186.02 4.46275 186.412 4.76409 186.788C5.06256 187.163 5.38056 187.521 5.71678 187.861C6.04745 188.196 6.396 188.513 6.76092 188.81C7.11826 189.102 7.49159 189.372 7.87919 189.622C8.6441 190.114 9.46293 190.517 10.3196 190.823C11.1979 191.137 12.1105 191.344 13.0381 191.441C13.5033 191.489 13.971 191.509 14.4387 191.502C14.9139 191.496 15.3883 191.462 15.8597 191.402C16.3354 191.341 16.8073 191.254 17.2733 191.142C17.7408 191.028 18.2017 190.89 18.6542 190.727C19.1118 190.562 19.5603 190.373 19.998 190.16C20.4439 189.944 20.8786 189.705 21.3004 189.445C21.711 189.189 22.111 188.914 22.5002 188.621C22.8894 188.328 23.2665 188.015 23.6314 187.683C23.9964 187.351 24.3487 187.001 24.6885 186.633C25.0284 186.264 25.355 185.878 25.6684 185.474C25.9839 185.069 26.2809 184.653 26.5593 184.225C26.8378 183.797 27.0985 183.357 27.3415 182.906C27.5846 182.455 27.8094 181.993 28.0162 181.521C28.223 181.049 28.4114 180.567 28.5815 180.076C28.7578 179.566 28.9121 179.053 29.0443 178.535C29.1765 178.018 29.2869 177.496 29.3754 176.971C29.4636 176.445 29.5299 175.917 29.5744 175.386C29.6189 174.855 29.6411 174.322 29.6411 173.787C29.6407 173.251 29.6185 172.722 29.5744 172.2C29.5303 171.678 29.464 171.163 29.3754 170.655C29.2873 170.149 29.1769 169.65 29.0443 169.158C28.9117 168.666 28.7574 168.184 28.5815 167.71C28.4106 167.252 28.2222 166.808 28.0162 166.378C27.8074 165.948 27.5815 165.532 27.3385 165.128C26.8574 164.331 26.2979 163.583 25.6684 162.896C25.3595 162.558 25.0333 162.237 24.691 161.933C24.354 161.635 24.0011 161.355 23.6339 161.095C23.2702 160.837 22.8926 160.599 22.5027 160.383C22.113 160.168 21.7116 159.974 21.3004 159.803C20.4512 159.449 19.5632 159.197 18.6548 159.052C18.1976 158.979 17.7366 158.933 17.274 158.914C16.8027 158.895 16.3307 158.903 15.8604 158.938"
      fill="#E4E4E4"/>
    <path
      d="M15.8631 37.9451C15.389 37.9335 14.9145 37.949 14.4421 37.9914C13.9717 38.0337 13.504 38.103 13.0415 38.199C12.5764 38.2962 12.1172 38.42 11.6662 38.5697C11.2083 38.7213 10.7593 38.8985 10.3212 39.1004C9.89242 39.2979 9.47439 39.518 9.06885 39.7596C8.65931 40.0037 8.26274 40.2689 7.88075 40.5542C7.4926 40.844 7.11937 41.1533 6.76249 41.4809C6.39961 41.8141 6.05095 42.1673 5.7165 42.5405C5.38164 42.9141 5.06427 43.3041 4.76441 43.7107C4.46454 44.1172 4.18323 44.5386 3.92045 44.9748C3.6589 45.4167 3.41485 45.8696 3.18831 46.3333C2.96178 46.7971 2.75584 47.2761 2.57049 47.7704C2.37855 48.2799 2.21008 48.7979 2.06509 49.3243C1.92011 49.8507 1.79922 50.3839 1.70243 50.9238C1.60522 51.4655 1.53232 52.0116 1.48372 52.5623C1.43512 53.113 1.41082 53.6691 1.41084 54.2305C1.41084 54.791 1.43513 55.3471 1.48372 55.8986C1.53231 56.4501 1.6052 56.9957 1.70243 57.5353C1.79922 58.0748 1.92011 58.6072 2.06509 59.1324C2.21008 59.6575 2.37855 60.1744 2.57049 60.6831C2.75748 61.1745 2.96342 61.6523 3.18831 62.1165C3.41485 62.579 3.6595 63.0278 3.92227 63.4627C4.18503 63.8977 4.46636 64.3172 4.76624 64.7213C5.06568 65.1266 5.38304 65.5146 5.71832 65.8853C6.0536 66.256 6.40165 66.6061 6.76245 66.9356C7.11747 67.2619 7.48885 67.57 7.87516 67.8586C8.2572 68.1413 8.65378 68.4038 9.06326 68.6451C9.46887 68.8842 9.88691 69.1016 10.3156 69.2963C10.7538 69.4955 11.2028 69.6698 11.6606 69.8184C12.5615 70.1099 13.4929 70.2964 14.4365 70.3744C15.3814 70.4528 16.3321 70.424 17.2705 70.2885C17.7358 70.2213 18.1968 70.1277 18.6514 70.008C19.1072 69.8879 19.5558 69.7423 19.9952 69.5719C20.4397 69.3995 20.8745 69.2029 21.2976 68.9831C21.7101 68.7688 22.1114 68.5335 22.4999 68.2781C22.8906 68.0211 23.2682 67.7445 23.6311 67.4496C23.9961 67.153 24.3484 66.8371 24.6882 66.5019C25.028 66.1666 25.3547 65.8119 25.6681 65.4379C25.9836 65.0639 26.2806 64.6764 26.559 64.2752C26.8375 63.874 27.0982 63.4596 27.3412 63.0321C27.5851 62.6046 27.81 62.1649 28.0159 61.713C28.2218 61.2612 28.4103 60.7984 28.5812 60.3248C28.7575 59.833 28.9118 59.3346 29.044 58.8296C29.1762 58.3246 29.2866 57.8139 29.3751 57.2974C29.4633 56.7788 29.5296 56.2561 29.5741 55.7293C29.6186 55.2025 29.6408 54.6714 29.6408 54.1359C29.6404 53.6009 29.6181 53.07 29.5741 52.5432C29.53 52.0164 29.4637 51.4951 29.3751 50.9794C29.287 50.4634 29.1766 49.953 29.044 49.4485C28.9114 48.9439 28.7571 48.4463 28.5812 47.9558C28.4103 47.4817 28.2218 47.0193 28.0159 46.5687C27.8099 46.1181 27.584 45.6793 27.3381 45.2521C27.0951 44.8287 26.8344 44.4168 26.5559 44.0165C26.2775 43.6161 25.9815 43.2306 25.6681 42.8599C25.3567 42.4896 25.0309 42.1376 24.6907 41.804C24.3505 41.4704 23.9981 41.1567 23.6336 40.8631C23.2708 40.5699 22.8935 40.2952 22.503 40.0401C22.1145 39.7871 21.7132 39.5543 21.3007 39.3426C20.8775 39.1253 20.4427 38.9314 19.9983 38.7618C19.5587 38.5942 19.1101 38.4514 18.6545 38.3343C18.1997 38.2175 17.7387 38.1267 17.2736 38.0624C16.805 37.9978 16.333 37.9599 15.86 37.9488L15.8631 37.9451ZM15.86 36.4029C17.9355 36.4598 19.971 36.9866 21.8135 37.9438C23.6444 38.9012 25.2672 40.2122 26.5881 41.8009C27.9688 43.4567 29.044 45.3447 29.7637 47.3769C31.305 51.7509 31.305 56.5204 29.7637 60.8944C29.0433 62.9325 27.9682 64.8271 26.5881 66.4908C25.267 68.087 23.6444 69.4074 21.8128 70.3763C19.9728 71.3449 17.9376 71.885 15.8594 71.9561C13.7684 72.0247 11.6898 71.6103 9.78489 70.7451C7.86187 69.8643 6.14152 68.5957 4.73164 67.019C3.23448 65.3493 2.06271 63.4143 1.27673 61.3139C-0.425576 56.7414 -0.425576 51.709 1.27673 47.1365C2.06348 45.0298 3.23502 43.0877 4.73164 41.4092C6.14109 39.8237 7.861 38.5443 9.78489 37.6504C11.6883 36.773 13.768 36.3453 15.8631 36.4005L15.86 36.4029Z"
      fill="#3B635A"/>
    <path
      d="M15.8618 58.5492L10.9951 48.4106L12.1505 47.6581L16.1589 55.9871L32.9899 36.2041L34.0087 37.2896L15.8618 58.5492Z"
      fill="#3B635A"/>
    <path d="M192.979 258.712L180.932 258.666L184.817 290.146L192.979 290.187V258.712Z" fill="#9E616A"/>
    <path
      d="M195.061 298.108L168.755 297.969V297.637C168.754 296.961 168.82 296.288 168.951 295.625C169.21 294.319 169.726 293.077 170.468 291.971C171.222 290.85 172.189 289.889 173.313 289.14C174.423 288.402 175.667 287.892 176.975 287.639C177.638 287.512 178.312 287.45 178.987 287.454L195.061 287.533V298.108Z"
      fill="#2F2E41"/>
    <path d="M154.404 258.563L142.391 258.516L146.263 289.954L154.404 289.995V258.563Z" fill="#9E616A"/>
    <path
      d="M156.48 297.904L130.243 297.766V297.433C130.243 296.759 130.309 296.087 130.44 295.425C130.698 294.121 131.212 292.88 131.952 291.776C132.704 290.656 133.668 289.695 134.79 288.947C135.897 288.211 137.138 287.702 138.443 287.45C139.104 287.323 139.777 287.261 140.45 287.265L156.48 287.344V297.904Z"
      fill="#2F2E41"/>
    <path
      d="M153.894 129.895L133.692 205.284L141.087 277.55L157.459 278.001L153.894 212.749L174.319 180.186L178.749 278.446L193.6 277.395L201.862 192.912C204.668 186.315 206.726 179.425 207.997 172.369C208.996 166.832 209.482 161.213 209.448 155.586C209.432 151.798 209.14 148.016 208.577 144.269C208.376 142.873 208.104 141.488 207.761 140.12L201.738 134.014L153.894 129.895Z"
      fill="#2F2E41"/>
    <path
      d="M180.659 142.504C177.261 142.504 174.074 142.395 171.183 142.179C168.23 141.977 165.293 141.59 162.389 141.022C159.916 140.56 157.507 139.801 155.216 138.763C153.371 137.967 151.767 136.701 150.563 135.092L150.426 134.891L155.947 98.9566L161.902 58.5522C162.294 55.8785 163.655 53.4421 165.727 51.7071C167.799 49.972 170.436 49.0593 173.137 49.1427L191.785 49.7141C193.184 49.757 194.559 50.0802 195.83 50.6646C197.102 51.249 198.243 52.0826 199.186 53.1161C200.129 54.1496 200.855 55.3619 201.32 56.6812C201.786 58.0004 201.982 59.3997 201.897 60.7962L199.449 100.979L208.479 140.615L207.84 140.704C207.582 140.738 206.591 140.869 205.039 141.043C203.01 141.271 200.938 141.477 198.881 141.654C195.971 141.905 193.123 142.103 190.417 142.241C186.985 142.416 183.696 142.501 180.659 142.504Z"
      fill="#CCCCCC"/>
    <path
      d="M170.311 42.0026C170.306 42.0027 170.301 42.0027 170.296 42.0026C169.904 42.0024 169.517 41.9251 169.156 41.7752C168.794 41.6252 168.466 41.4056 168.19 41.1287C167.913 40.8519 167.694 40.5234 167.544 40.1618C167.395 39.8003 167.318 39.4128 167.318 39.0216V22.3958C167.315 19.4171 167.912 16.4682 169.071 13.7245C171.342 8.37024 175.591 4.0988 180.934 1.80033C184.312 0.351092 187.998 -0.237555 191.66 0.0870952C195.322 0.411746 198.847 1.63955 201.918 3.66059C204.989 5.68162 207.511 8.43277 209.258 11.6677C211.005 14.9026 211.923 18.5203 211.928 22.1968V38.848C211.929 39.2487 211.848 39.6454 211.692 40.0145C211.386 40.7343 210.814 41.3081 210.095 41.6159C209.726 41.7734 209.329 41.8551 208.927 41.8562L170.308 42.0026H170.311Z"
      fill="#2F2E41"/>
    <path
      d="M199.694 16.6936C201.25 19.5349 201.929 22.7735 201.645 26.0003C201.361 29.2271 200.127 32.2974 198.099 34.8234C196.072 37.3495 193.341 39.2179 190.252 40.1929C187.163 41.1678 183.854 41.2054 180.743 40.301C178.684 39.7091 176.762 38.7144 175.09 37.3746C173.417 36.0347 172.027 34.3762 171 32.4953C169.448 29.6553 168.772 26.4193 169.057 23.1955C169.341 19.9716 170.574 16.9042 172.599 14.38C174.625 11.8558 177.352 9.98777 180.438 9.01149C183.524 8.03521 186.829 7.99438 189.938 8.89414C192 9.48383 193.924 10.477 195.598 11.8159C197.273 13.1549 198.665 14.8131 199.694 16.6943V16.6936Z"
      fill="#9E616A"/>
    <path
      d="M162.045 23.7487C162.043 21.3929 162.514 19.0607 163.431 16.8908C165.227 12.6569 168.587 9.27946 172.812 7.46265C174.979 6.53392 177.312 6.05067 179.67 6.04163L182.997 6.02495C183.035 6.02474 183.072 6.02464 183.11 6.02466C185.414 6.02608 187.695 6.48133 189.823 7.36443C191.952 8.24753 193.885 9.54119 195.514 11.1715C197.142 12.8019 198.433 14.737 199.314 16.8663C200.194 18.9957 200.647 21.2777 200.645 23.5819V23.9149L193.606 23.9433L191.205 17.2373L190.725 23.9563L187.089 23.9723L185.879 20.5891L185.636 23.9767L162.048 24.0823L162.045 23.7487Z"
      fill="#2F2E41"/>
    <path
      d="M133.705 58.7242C132.622 58.9892 131.609 59.4856 130.736 60.1794C130.054 60.7192 129.47 61.3733 129.012 62.1127C128.107 63.5759 127.709 65.2958 127.878 67.0077C127.963 67.8725 128.197 68.7159 128.571 69.5005C129.031 70.4783 129.694 71.3474 130.515 72.0502C131.336 72.7531 132.297 73.2738 133.334 73.5779C134.371 73.8821 135.461 73.9628 136.532 73.8148C137.602 73.6667 138.629 73.2933 139.545 72.719C139.612 72.6755 139.679 72.6313 139.745 72.5864C139.812 72.5415 139.877 72.4958 139.94 72.4491C140.005 72.4023 140.068 72.3548 140.13 72.3065C140.192 72.2583 140.253 72.2093 140.314 72.1597L179.159 85.9848C180.354 86.4099 181.655 86.4352 182.866 86.0571C184.077 85.6789 185.132 84.9176 185.873 83.8878L195.082 71.137L183.948 63.6394L178.105 70.2769L142.556 63.2052C142.517 63.1131 142.477 63.0215 142.435 62.9303C142.394 62.8391 142.35 62.7483 142.305 62.6579C142.259 62.5678 142.212 62.4781 142.163 62.3889C142.115 62.2997 142.063 62.2112 142.009 62.1234C141.161 60.753 139.901 59.6861 138.409 59.0756C136.917 58.465 135.271 58.342 133.705 58.7242Z"
      fill="#9E616A"/>
    <path
      d="M178.733 66.091C179.895 64.6408 181.519 62.758 183.17 60.8905C184.82 59.023 186.496 57.1721 187.759 55.7875C189.023 54.4028 189.873 53.4851 189.873 53.4851C191.039 51.7217 192.78 50.4163 194.8 49.7907C196.819 49.1651 198.993 49.258 200.952 50.0535C202.911 50.8489 204.534 52.298 205.546 54.1545C206.557 56.011 206.895 58.1605 206.502 60.2378C206.277 61.4337 205.813 62.5717 205.137 63.5835C205.137 63.5835 203.869 65.2418 201.956 67.7171C200.043 70.1923 197.484 73.4874 194.902 76.7632C192.321 80.039 189.714 83.2979 187.704 85.7034C185.694 88.109 184.279 89.663 184.08 89.53L177.069 68.689C176.87 68.556 177.571 67.5412 178.733 66.091Z"
      fill="#CCCCCC"/>
    <path
      d="M182.894 41.4786C182.784 42.0161 182.826 42.5737 183.017 43.0881C183.113 43.3513 183.245 43.5999 183.41 43.8264C183.551 44.0194 183.715 44.1951 183.897 44.3497C184.437 44.8062 185.122 45.0552 185.83 45.0522C185.874 45.0518 185.918 45.0505 185.962 45.0485C186.006 45.0464 186.05 45.0433 186.094 45.0392C186.139 45.0355 186.183 45.0306 186.227 45.0244C186.271 45.0182 186.315 45.0112 186.36 45.0034L188.858 44.5493L192.3 37.1971V43.9314L203.659 41.8864V13.3086L184.616 13.4L185.086 13.9468C186.649 15.7815 187.675 18.0117 188.052 20.392C188.421 22.803 188.375 25.2594 187.915 27.6546C187.468 30.0783 186.789 32.4535 185.887 34.7473C185.099 36.7795 184.195 38.7646 183.179 40.6927C183.047 40.9401 182.951 41.2046 182.894 41.4786Z"
      fill="#2F2E41"/>
    <path
      d="M50.988 298.972H286.382C286.546 298.972 286.703 298.907 286.819 298.791C286.935 298.675 287 298.518 287 298.354C287 298.19 286.935 298.033 286.819 297.917C286.703 297.801 286.546 297.736 286.382 297.736H50.988C50.8241 297.736 50.6669 297.801 50.5511 297.917C50.4352 298.033 50.3701 298.19 50.3701 298.354C50.3701 298.518 50.4352 298.675 50.5511 298.791C50.6669 298.907 50.8241 298.972 50.988 298.972Z"
      fill="#CACACA"/>
  </g>
  <defs>
    <clipPath id="clip0_253_2745">
      <rect width="287" height="298.972" fill="white"/>
    </clipPath>
  </defs>
</svg>
