<svg width="228" height="205" viewBox="0 0 228 205" fill="none" xmlns="http://www.w3.org/2000/svg">
  <g clip-path="url(#clip0_253_2665)">
    <path
      d="M116.766 0.44701L109.347 2.36362L17.9471 25.9767L10.5284 27.8933C6.92747 28.8279 3.84362 31.1554 1.95344 34.365C0.0632696 37.5746 -0.478867 41.4044 0.445973 45.0139L32.6152 169.985C33.5481 173.593 35.8713 176.682 39.0752 178.576C42.279 180.469 46.1018 181.013 49.7048 180.086L49.724 180.081L155.923 152.645L155.942 152.64C159.543 151.705 162.627 149.378 164.517 146.168C166.408 142.958 166.95 139.129 166.025 135.519L133.856 10.5478C132.923 6.94032 130.599 3.85087 127.396 1.95725C124.192 0.0636304 120.369 -0.479502 116.766 0.44701Z"
      fill="#F2F2F2"/>
    <path
      d="M117.775 4.36519L108.988 6.63528L20.3239 29.5414L11.5371 31.8115C8.97274 32.477 6.77664 34.1345 5.4306 36.4201C4.08455 38.7058 3.69848 41.433 4.35708 44.0035L36.5263 168.975C37.1906 171.544 38.8451 173.744 41.1266 175.092C43.4081 176.441 46.1304 176.828 48.6962 176.168L48.7154 176.163L154.915 148.727L154.934 148.722C157.498 148.056 159.694 146.398 161.04 144.113C162.386 141.827 162.772 139.1 162.114 136.53L129.945 11.5582C129.28 8.98926 127.626 6.7892 125.344 5.44071C123.063 4.09222 120.341 3.70543 117.775 4.36519Z"
      fill="white"/>
    <path
      d="M111.14 44.834L57.416 58.7134C56.816 58.8684 56.179 58.7783 55.6453 58.4629C55.1116 58.1474 54.7249 57.6325 54.5701 57.0314C54.4154 56.4302 54.5053 55.7922 54.8202 55.2575C55.1351 54.7228 55.6491 54.3353 56.2491 54.1803L109.973 40.3009C110.573 40.1465 111.209 40.237 111.742 40.5525C112.276 40.868 112.662 41.3827 112.817 41.9835C112.971 42.5843 112.881 43.222 112.567 43.7565C112.253 44.291 111.739 44.6786 111.14 44.834Z"
      fill="#F2F2F2"/>
    <path
      d="M122.442 50.0726L59.3857 66.363C58.7857 66.5181 58.1488 66.4279 57.615 66.1125C57.0813 65.797 56.6946 65.2821 56.5398 64.681C56.3851 64.0799 56.4751 63.4418 56.7899 62.9071C57.1048 62.3724 57.6188 61.985 58.2188 61.8299L121.275 45.5395C121.875 45.3845 122.512 45.4746 123.046 45.79C123.579 46.1055 123.966 46.6204 124.121 47.2215C124.276 47.8227 124.186 48.4608 123.871 48.9954C123.556 49.5301 123.042 49.9176 122.442 50.0726Z"
      fill="#F2F2F2"/>
    <path
      d="M119.965 79.1158L66.2412 92.9952C65.9441 93.072 65.6348 93.0893 65.331 93.0463C65.0272 93.0034 64.7348 92.9008 64.4705 92.7446C64.2062 92.5884 63.9753 92.3816 63.7908 92.136C63.6063 91.8904 63.4719 91.6108 63.3953 91.3131C63.3187 91.0155 63.3013 90.7056 63.3443 90.4013C63.3872 90.0969 63.4895 89.804 63.6454 89.5392C63.8013 89.2745 64.0078 89.0431 64.2529 88.8583C64.4981 88.6735 64.7772 88.5388 65.0743 88.4621L118.798 74.5827C119.095 74.5059 119.404 74.4886 119.708 74.5316C120.012 74.5745 120.304 74.6771 120.569 74.8333C120.833 74.9894 121.064 75.1963 121.248 75.4419C121.433 75.6875 121.567 75.9671 121.644 76.2648C121.72 76.5624 121.738 76.8723 121.695 77.1766C121.652 77.481 121.55 77.7739 121.394 78.0386C121.238 78.3034 121.031 78.5348 120.786 78.7196C120.541 78.9044 120.262 79.039 119.965 79.1158Z"
      fill="#F2F2F2"/>
    <path
      d="M131.266 84.3543L68.2099 100.645C67.9128 100.722 67.6035 100.739 67.2997 100.696C66.9959 100.653 66.7035 100.55 66.4393 100.394C66.175 100.238 65.944 100.031 65.7595 99.7856C65.5751 99.54 65.4407 99.2604 65.3641 98.9627C65.2874 98.6651 65.2701 98.3552 65.313 98.0509C65.3559 97.7465 65.4582 97.4536 65.6142 97.1888C65.7701 96.9241 65.9765 96.6927 66.2217 96.5079C66.4668 96.3231 66.7459 96.1884 67.0431 96.1117L130.099 79.8212C130.699 79.6662 131.336 79.7563 131.87 80.0718C132.404 80.3872 132.79 80.9022 132.945 81.5033C133.1 82.1044 133.01 82.7425 132.695 83.2772C132.38 83.8119 131.866 84.1993 131.266 84.3543Z"
      fill="#F2F2F2"/>
    <path
      d="M128.789 113.397L75.0658 127.277C74.4659 127.431 73.8294 127.341 73.296 127.025C72.7626 126.71 72.3762 126.195 72.2215 125.594C72.0668 124.993 72.1566 124.356 72.4712 123.821C72.7857 123.286 73.2993 122.899 73.8989 122.744L127.623 108.864C128.223 108.709 128.859 108.799 129.393 109.115C129.927 109.43 130.314 109.945 130.468 110.546C130.623 111.147 130.533 111.785 130.218 112.32C129.903 112.855 129.389 113.242 128.789 113.397Z"
      fill="#F2F2F2"/>
    <path
      d="M140.09 118.636L77.0342 134.926C76.737 135.003 76.4275 135.021 76.1235 134.978C75.8195 134.935 75.5269 134.833 75.2624 134.677C74.9979 134.521 74.7668 134.314 74.5821 134.068C74.3975 133.822 74.263 133.543 74.1863 133.245C74.1097 132.947 74.0923 132.637 74.1353 132.332C74.1783 132.028 74.2808 131.735 74.437 131.47C74.5931 131.205 74.7997 130.974 75.0452 130.789C75.2906 130.604 75.57 130.47 75.8673 130.393L138.924 114.103C139.524 113.948 140.161 114.038 140.694 114.353C141.228 114.669 141.615 115.184 141.769 115.785C141.924 116.386 141.834 117.024 141.519 117.559C141.204 118.093 140.69 118.481 140.09 118.636Z"
      fill="#F2F2F2"/>
    <path
      d="M48.2451 72.9447L29.2328 77.8565C28.9451 77.9305 28.6399 77.8871 28.384 77.7359C28.1282 77.5847 27.9427 77.338 27.8682 77.0499L23.504 60.0957C23.4301 59.8074 23.4734 59.5016 23.6243 59.2453C23.7753 58.989 24.0215 58.8032 24.3091 58.7286L43.3213 53.8168C43.609 53.7428 43.9143 53.7862 44.1701 53.9374C44.4259 54.0886 44.6114 54.3353 44.6859 54.6233L49.0502 71.5776C49.124 71.8658 49.0808 72.1717 48.9298 72.4279C48.7789 72.6842 48.5326 72.8701 48.2451 72.9447Z"
      fill="#E6E6E6"/>
    <path
      d="M57.0693 107.226L38.057 112.138C37.7693 112.212 37.4641 112.169 37.2083 112.018C36.9524 111.866 36.7669 111.62 36.6924 111.332L32.3282 94.3774C32.2543 94.0892 32.2976 93.7834 32.4486 93.5271C32.5995 93.2708 32.8457 93.0849 33.1333 93.0103L52.1455 88.0985C52.4333 88.0245 52.7385 88.0679 52.9943 88.2191C53.2501 88.3703 53.4357 88.617 53.5101 88.9051L57.8744 105.859C57.9482 106.148 57.905 106.453 57.754 106.71C57.6031 106.966 57.3569 107.152 57.0693 107.226Z"
      fill="#E6E6E6"/>
    <path
      d="M65.8935 141.508L46.8813 146.42C46.5936 146.494 46.2883 146.45 46.0325 146.299C45.7767 146.148 45.5911 145.901 45.5167 145.613L41.1524 128.659C41.0786 128.371 41.1218 128.065 41.2728 127.809C41.4237 127.552 41.67 127.366 41.9575 127.292L60.9698 122.38C61.2575 122.306 61.5627 122.349 61.8186 122.501C62.0744 122.652 62.2599 122.899 62.3344 123.187L66.6986 140.141C66.7725 140.429 66.7292 140.735 66.5783 140.991C66.4273 141.247 66.1811 141.433 65.8935 141.508Z"
      fill="#E6E6E6"/>
    <path
      d="M190.862 32.1255H81.1487C77.4288 32.1297 73.8626 33.6119 71.2322 36.247C68.6019 38.8822 67.1223 42.4549 67.1182 46.1815V175.241C67.1223 178.968 68.6019 182.541 71.2322 185.176C73.8626 187.811 77.4288 189.293 81.1487 189.297H190.862C194.582 189.293 198.148 187.811 200.778 185.176C203.409 182.541 204.888 178.968 204.892 175.241V46.1815C204.888 42.4549 203.409 38.8822 200.778 36.247C198.148 33.6119 194.582 32.1297 190.862 32.1255Z"
      fill="#E6E6E6"/>
    <path
      d="M190.862 36.1721H81.1487C78.4997 36.1751 75.9601 37.2306 74.087 39.1072C72.2138 40.9837 71.1602 43.5279 71.1572 46.1817V175.242C71.1602 177.895 72.2138 180.44 74.087 182.316C75.9601 184.193 78.4997 185.248 81.1487 185.251H190.862C193.511 185.248 196.051 184.193 197.924 182.316C199.797 180.44 200.85 177.895 200.853 175.242V46.1817C200.85 43.5279 199.797 40.9837 197.924 39.1072C196.051 37.2307 193.511 36.1751 190.862 36.1721Z"
      fill="white"/>
    <path
      d="M202.388 205C216.533 205 228 193.512 228 179.341C228 165.17 216.533 153.683 202.388 153.683C188.242 153.683 176.775 165.17 176.775 179.341C176.775 193.512 188.242 205 202.388 205Z"
      fill="#3B635A"/>
    <path
      d="M214.637 175.994H205.729V167.07C205.729 166.182 205.377 165.331 204.75 164.703C204.124 164.076 203.274 163.723 202.388 163.723C201.502 163.723 200.652 164.076 200.026 164.703C199.399 165.331 199.047 166.182 199.047 167.07V175.994H190.139C189.253 175.994 188.403 176.347 187.776 176.975C187.15 177.602 186.798 178.454 186.798 179.341C186.798 180.229 187.15 181.08 187.776 181.708C188.403 182.335 189.253 182.688 190.139 182.688H199.047V191.613C199.047 192.5 199.399 193.352 200.026 193.979C200.652 194.607 201.502 194.96 202.388 194.96C203.274 194.96 204.124 194.607 204.75 193.979C205.377 193.352 205.729 192.5 205.729 191.613V182.688H214.637C215.523 182.688 216.373 182.335 216.999 181.708C217.626 181.08 217.978 180.229 217.978 179.341C217.978 178.454 217.626 177.602 216.999 176.975C216.373 176.347 215.523 175.994 214.637 175.994Z"
      fill="white"/>
    <path
      d="M174.35 107.09H118.868C118.561 107.09 118.257 107.03 117.973 106.913C117.69 106.795 117.432 106.623 117.215 106.405C116.997 106.188 116.825 105.93 116.707 105.646C116.59 105.362 116.529 105.057 116.529 104.749C116.529 104.442 116.59 104.137 116.707 103.853C116.825 103.569 116.997 103.311 117.215 103.093C117.432 102.876 117.69 102.704 117.973 102.586C118.257 102.469 118.561 102.408 118.868 102.409H174.35C174.969 102.409 175.562 102.656 176 103.095C176.438 103.534 176.683 104.129 176.683 104.749C176.683 105.37 176.438 105.965 176 106.404C175.562 106.842 174.969 107.089 174.35 107.09Z"
      fill="#E6E6E6"/>
    <path
      d="M183.988 114.99H118.868C118.561 114.99 118.257 114.93 117.973 114.813C117.69 114.695 117.432 114.523 117.215 114.305C116.997 114.088 116.825 113.83 116.707 113.546C116.59 113.261 116.529 112.957 116.529 112.649C116.529 112.342 116.59 112.037 116.707 111.753C116.825 111.469 116.997 111.211 117.215 110.993C117.432 110.776 117.69 110.603 117.973 110.486C118.257 110.369 118.561 110.308 118.868 110.309H183.988C184.607 110.309 185.201 110.555 185.64 110.994C186.078 111.433 186.324 112.029 186.324 112.649C186.324 113.27 186.078 113.865 185.64 114.304C185.201 114.743 184.607 114.99 183.988 114.99Z"
      fill="#E6E6E6"/>
    <path
      d="M174.35 142.493H118.868C118.561 142.494 118.257 142.433 117.973 142.316C117.69 142.198 117.432 142.026 117.215 141.809C116.997 141.591 116.825 141.333 116.707 141.049C116.59 140.765 116.529 140.46 116.529 140.152C116.529 139.845 116.59 139.54 116.707 139.256C116.825 138.972 116.997 138.714 117.215 138.496C117.432 138.279 117.69 138.107 117.973 137.989C118.257 137.872 118.561 137.811 118.868 137.812H174.35C174.969 137.812 175.564 138.058 176.002 138.497C176.44 138.936 176.686 139.532 176.686 140.152C176.686 140.773 176.44 141.369 176.002 141.808C175.564 142.247 174.969 142.493 174.35 142.493Z"
      fill="#E6E6E6"/>
    <path
      d="M183.988 150.393H118.868C118.561 150.393 118.257 150.333 117.973 150.216C117.69 150.098 117.432 149.926 117.215 149.708C116.997 149.491 116.825 149.233 116.707 148.949C116.59 148.665 116.529 148.36 116.529 148.052C116.529 147.745 116.59 147.44 116.707 147.156C116.825 146.872 116.997 146.614 117.215 146.396C117.432 146.179 117.69 146.007 117.973 145.889C118.257 145.772 118.561 145.711 118.868 145.712H183.988C184.295 145.711 184.599 145.772 184.882 145.889C185.166 146.007 185.424 146.179 185.641 146.396C185.859 146.614 186.031 146.872 186.148 147.156C186.266 147.44 186.327 147.745 186.327 148.052C186.327 148.36 186.266 148.665 186.148 148.949C186.031 149.233 185.859 149.491 185.641 149.708C185.424 149.926 185.166 150.098 184.882 150.216C184.599 150.333 184.295 150.393 183.988 150.393Z"
      fill="#E6E6E6"/>
    <path
      d="M106.44 118.576H86.8059C86.5089 118.576 86.2241 118.458 86.014 118.247C85.804 118.037 85.6859 117.751 85.6855 117.454V99.9449C85.6859 99.6473 85.804 99.362 86.014 99.1516C86.2241 98.9412 86.5089 98.8228 86.8059 98.8225H106.44C106.737 98.8228 107.022 98.9412 107.232 99.1516C107.442 99.362 107.56 99.6473 107.561 99.9449V117.454C107.56 117.751 107.442 118.037 107.232 118.247C107.022 118.458 106.737 118.576 106.44 118.576Z"
      fill="#E6E6E6"/>
    <path
      d="M106.44 153.979H86.8059C86.5089 153.979 86.2241 153.861 86.014 153.65C85.804 153.44 85.6859 153.154 85.6855 152.857V135.348C85.6859 135.05 85.804 134.765 86.014 134.555C86.2241 134.344 86.5089 134.226 86.8059 134.226H106.44C106.737 134.226 107.022 134.344 107.232 134.555C107.442 134.765 107.56 135.05 107.561 135.348V152.857C107.56 153.154 107.442 153.44 107.232 153.65C107.022 153.861 106.737 153.979 106.44 153.979Z"
      fill="#E6E6E6"/>
    <path
      d="M174.411 67.6795H133.507C132.888 67.6795 132.293 67.4328 131.855 66.9939C131.417 66.5549 131.171 65.9595 131.171 65.3387C131.171 64.718 131.417 64.1226 131.855 63.6836C132.293 63.2447 132.888 62.998 133.507 62.998H174.411C175.031 62.998 175.625 63.2447 176.064 63.6836C176.502 64.1226 176.748 64.718 176.748 65.3387C176.748 65.9595 176.502 66.5549 176.064 66.9939C175.625 67.4328 175.031 67.6795 174.411 67.6795Z"
      fill="#CCCCCC"/>
    <path
      d="M184.049 75.5793H133.507C133.201 75.5793 132.897 75.5188 132.613 75.4012C132.33 75.2835 132.072 75.1111 131.855 74.8938C131.638 74.6764 131.466 74.4184 131.349 74.1344C131.231 73.8504 131.171 73.546 131.171 73.2386C131.171 72.9313 131.231 72.6269 131.349 72.3429C131.466 72.0589 131.638 71.8009 131.855 71.5835C132.072 71.3662 132.33 71.1937 132.613 71.0761C132.897 70.9585 133.201 70.8979 133.507 70.8979H184.049C184.669 70.8979 185.263 71.1446 185.701 71.5835C186.14 72.0225 186.386 72.6179 186.386 73.2386C186.386 73.8594 186.14 74.4548 185.701 74.8938C185.263 75.3327 184.669 75.5793 184.049 75.5793Z"
      fill="#CCCCCC"/>
    <path
      d="M124.454 85.153H86.7444C86.4473 85.1527 86.1626 85.0343 85.9525 84.8239C85.7425 84.6135 85.6243 84.3282 85.624 84.0306V54.5467C85.6243 54.2491 85.7425 53.9638 85.9525 53.7534C86.1626 53.543 86.4473 53.4246 86.7444 53.4243H124.454C124.751 53.4246 125.036 53.543 125.246 53.7534C125.456 53.9638 125.574 54.2491 125.575 54.5467V84.0306C125.574 84.3282 125.456 84.6135 125.246 84.8239C125.036 85.0343 124.751 85.1527 124.454 85.153Z"
      fill="#3B635A"/>
  </g>
  <defs>
    <clipPath id="clip0_253_2665">
      <rect width="228" height="205" fill="white"/>
    </clipPath>
  </defs>
</svg>
