<svg width="353" height="192" viewBox="0 0 353 192" fill="none" xmlns="http://www.w3.org/2000/svg">
  <path
    d="M320.538 117.656H288.545C288.545 118.576 255.572 119.322 255.572 119.322C255.055 119.712 254.583 120.159 254.166 120.655C252.914 122.149 252.229 124.037 252.233 125.986V127.319C252.234 129.528 253.112 131.646 254.674 133.208C256.236 134.77 258.354 135.648 260.563 135.649H320.538C322.747 135.647 324.865 134.769 326.426 133.207C327.988 131.645 328.866 129.528 328.868 127.319V125.986C328.865 123.778 327.987 121.661 326.425 120.1C324.864 118.538 322.747 117.66 320.538 117.656Z"
    fill="#3F3D56"/>
  <path d="M295.212 135.318H286.549V191.295H295.212V135.318Z" fill="#3F3D56"/>
  <path
    d="M319.869 190.99C319.869 191.926 306.741 191.352 290.548 191.352C274.354 191.352 261.227 191.926 261.227 190.99C261.227 190.054 274.354 182.632 290.548 182.632C306.741 182.632 319.869 190.054 319.869 190.99Z"
    fill="#3F3D56"/>
  <path d="M247.226 183.628L239.056 183.627L235.169 152.115L247.227 152.116L247.226 183.628Z" fill="#FFB8B8"/>
  <path
    d="M233.22 181.293H248.976V191.214H223.3C223.3 188.583 224.345 186.059 226.205 184.199C228.066 182.338 230.589 181.293 233.22 181.293Z"
    fill="#2F2E41"/>
  <path d="M234.472 179.068L226.678 176.622L232.403 145.391L243.908 149.002L234.472 179.068Z" fill="#FFB8B8"/>
  <path
    d="M221.808 172.647L236.841 177.365L233.871 186.83L209.372 179.142C209.762 177.899 210.394 176.745 211.23 175.746C212.066 174.747 213.09 173.922 214.245 173.319C215.4 172.716 216.662 172.346 217.96 172.231C219.257 172.116 220.565 172.257 221.808 172.647Z"
    fill="#2F2E41"/>
  <path
    d="M298.658 112.194C298.469 110.606 298.13 109.04 297.645 107.516L296.119 105.597L292.147 100.612L291.974 100.619C291.68 100.632 290.461 100.699 288.575 100.845H288.555C287.389 100.939 285.963 101.059 284.344 101.212C283.917 101.258 283.471 101.298 283.011 101.345V108.302H291.341C291.746 108.303 292.136 108.45 292.44 108.718C292.744 108.985 292.941 109.354 292.993 109.755C293 109.828 293.007 109.895 293.007 109.968C293.007 110.41 292.831 110.834 292.519 111.146C292.206 111.458 291.783 111.634 291.341 111.634H242.961C242.344 112.043 241.752 112.488 241.188 112.967C239.484 114.286 238.256 116.125 237.69 118.205C234.864 130.626 229.713 153.79 228.193 160.594C228.083 161.106 228.108 161.639 228.266 162.139C228.424 162.639 228.709 163.089 229.093 163.446C229.377 163.71 229.71 163.916 230.073 164.052L236.084 166.305C236.331 166.396 236.588 166.457 236.85 166.485C236.883 166.485 236.91 166.491 236.943 166.491C237.005 166.497 237.068 166.499 237.13 166.498C237.738 166.496 238.331 166.31 238.831 165.965C239.332 165.62 239.716 165.133 239.935 164.565L244.68 152.117L251.991 132.925L254.883 125.335C258.234 126.121 286.356 132.346 295.772 122.316C296.701 121.328 297.434 120.173 297.931 118.911C298.724 116.766 298.973 114.459 298.658 112.194Z"
    fill="#2F2E41"/>
  <path
    d="M306.814 114.006C306.668 113.413 306.501 112.8 306.308 112.18L300.81 105.277L300.637 105.283C300.29 105.303 298.644 105.39 296.119 105.596C293.253 105.836 289.248 106.223 284.75 106.829C284.617 106.843 284.477 106.863 284.344 106.883C283.904 106.943 283.457 107.003 283.011 107.069V108.302H291.341C291.745 108.303 292.136 108.45 292.44 108.717C292.744 108.985 292.941 109.353 292.993 109.755C293 109.828 293.007 109.895 293.007 109.968C293.006 110.41 292.831 110.833 292.518 111.146C292.206 111.458 291.782 111.634 291.341 111.634H261.899C260.614 112.054 259.374 112.494 258.188 112.967C251.964 115.432 247.306 118.664 246.353 122.869C246.033 124.282 245.68 125.835 245.306 127.487C243.92 133.631 242.234 141.155 240.708 147.992V147.999C240.395 149.412 240.082 150.784 239.782 152.117C238.509 157.848 237.43 162.706 236.856 165.258C236.843 165.332 236.83 165.398 236.816 165.472V165.485C236.75 166.001 236.814 166.526 237.003 167.011L237.01 167.018V167.024C237.193 167.489 237.491 167.899 237.876 168.217C238.134 168.429 238.424 168.598 238.736 168.717L244.747 170.969C245.081 171.094 245.435 171.16 245.793 171.163C246.294 171.164 246.787 171.038 247.225 170.796C247.855 170.455 248.342 169.899 248.598 169.23L261.54 135.271L263.546 130C266.897 130.786 295.019 137.003 304.435 126.981C306.295 124.967 307.357 122.344 307.421 119.604C307.486 117.719 307.282 115.834 306.814 114.006Z"
    fill="#2F2E41"/>
  <path
    d="M306.075 55.2176C305.969 55.091 305.855 54.9644 305.735 54.8445C303.96 52.9785 301.769 51.5595 299.34 50.7035C296.911 49.8475 294.314 49.579 291.761 49.9198C289.534 50.2123 287.328 50.6464 285.157 51.2193C282.353 51.9404 279.785 53.3806 277.707 55.3975C276.089 56.9667 274.814 58.8551 273.964 60.9429C273.114 63.0307 272.707 65.2724 272.769 67.5258C272.796 68.4388 272.802 69.3717 272.789 70.318C272.789 70.7578 272.782 71.2043 272.776 71.6508H279.346C279.631 71.6499 279.916 71.6835 280.193 71.7507C280.994 71.9424 281.708 72.3982 282.22 73.0449C282.731 73.6916 283.01 74.4915 283.011 75.3159V106.316C283.458 106.443 283.904 106.57 284.344 106.703C284.484 106.749 284.617 106.789 284.751 106.829C284.904 106.876 285.057 106.923 285.204 106.969C286.556 107.389 287.878 107.833 289.169 108.302H291.341C291.746 108.303 292.137 108.45 292.441 108.718C292.745 108.985 292.941 109.354 292.994 109.755C293.447 109.935 293.887 110.115 294.32 110.295C295.859 110.934 297.319 111.574 298.658 112.194C300.464 113.02 302.07 113.807 303.416 114.493C303.84 114.709 304.307 114.823 304.782 114.826C305.406 114.824 306.013 114.623 306.515 114.253C306.619 114.176 306.719 114.094 306.815 114.006C307.171 113.672 307.441 113.256 307.6 112.794C307.759 112.331 307.803 111.837 307.728 111.354C307.04 106.12 306.839 100.833 307.128 95.5608C307.314 91.1293 307.714 86.5845 308.234 82.193C308.514 79.814 308.827 77.4816 309.154 75.2359C309.467 73.0901 309.8 71.031 310.127 69.0851C310.555 66.6177 310.413 64.085 309.71 61.6811C309.008 59.2773 307.764 57.0663 306.075 55.2176Z"
    fill="#3B635A"/>
  <path
    d="M278.759 55.7639C278.417 55.6171 278.066 55.4946 277.706 55.3974C275.93 54.9192 274.042 55.0956 272.385 55.8945C270.729 56.6934 269.415 58.0615 268.683 59.7489L264.105 70.3178L263.532 71.6506H279.346C279.631 71.6498 279.915 71.6833 280.192 71.7506L280.725 70.5178L282.751 65.8397C283.555 63.974 283.587 61.8653 282.839 59.9763C282.09 58.0873 280.623 56.5724 278.759 55.7639Z"
    fill="#3B635A"/>
  <path
    d="M292.978 44.7161C302.017 44.7161 309.345 37.3883 309.345 28.3489C309.345 19.3095 302.017 11.9817 292.978 11.9817C283.938 11.9817 276.61 19.3095 276.61 28.3489C276.61 37.3883 283.938 44.7161 292.978 44.7161Z"
    fill="#FFB8B8"/>
  <path
    d="M309.153 75.2359L299.81 75.4891L299.131 82.053L298.977 83.5724L284.344 90.143L283.011 90.7428V102.425L284.344 102.045L288.555 100.845H288.575L307.127 95.5608L307.34 95.5008C308.84 95.0679 310.159 94.1629 311.103 92.9203C312.046 91.6778 312.564 90.1639 312.579 88.6037L312.625 80.8535L312.665 75.1426L309.153 75.2359Z"
    fill="#FFB8B8"/>
  <path
    d="M312.193 62.2546C312.131 61.25 311.872 60.2673 311.431 59.3628C310.989 58.4582 310.374 57.6495 309.62 56.9827C308.097 55.6361 306.102 54.9496 304.073 55.0742C302.044 55.1988 300.147 56.1243 298.801 57.6471C297.454 59.1699 296.768 61.1652 296.892 63.1942L297.912 79.8273C297.939 80.265 298.063 80.6913 298.274 81.076C298.484 81.4606 298.777 81.7942 299.131 82.053C299.695 82.473 300.389 82.6786 301.09 82.6328L308.234 82.1929L310.4 82.0597C310.795 82.0403 311.181 81.9411 311.536 81.7681C311.891 81.5952 312.207 81.3521 312.466 81.0534C312.523 80.9901 312.577 80.9234 312.626 80.8535C313.049 80.2866 313.257 79.5873 313.212 78.881L312.193 62.2546Z"
    fill="#3B635A"/>
  <path
    d="M285.203 106.969H284.344V106.883C283.904 106.943 283.457 107.003 283.011 107.069V108.302H289.168C287.875 107.836 286.554 107.391 285.203 106.969ZM285.203 106.969H284.344V106.883C283.904 106.943 283.457 107.003 283.011 107.069V108.302H289.168C287.875 107.836 286.554 107.391 285.203 106.969ZM291.341 106.969H284.344V75.3158C284.341 74.2322 283.987 73.1785 283.335 72.3133C282.682 71.4481 281.766 70.818 280.725 70.5178C280.278 70.383 279.813 70.3156 279.346 70.3179H220.037C218.712 70.3195 217.442 70.8466 216.505 71.7835C215.568 72.7205 215.041 73.9908 215.039 75.3158V107.969C215.04 109.294 215.566 110.565 216.503 111.503C217.441 112.44 218.712 112.966 220.037 112.967H291.341C292.079 112.966 292.791 112.692 293.34 112.199C293.89 111.706 294.238 111.028 294.319 110.295C294.333 110.186 294.34 110.077 294.339 109.968C294.338 109.173 294.022 108.411 293.46 107.849C292.898 107.287 292.136 106.971 291.341 106.969H291.341ZM293.007 109.968C293.006 110.41 292.831 110.834 292.518 111.146C292.206 111.458 291.782 111.634 291.341 111.634H220.037C219.065 111.634 218.133 111.247 217.446 110.56C216.759 109.873 216.372 108.941 216.372 107.969V75.3158C216.372 74.344 216.759 73.4121 217.446 72.7248C218.133 72.0376 219.065 71.6513 220.037 71.6507H279.346C279.631 71.6499 279.915 71.6834 280.192 71.7507C280.994 71.9423 281.708 72.3981 282.219 73.0448C282.73 73.6915 283.009 74.4914 283.011 75.3158V108.302H291.341C291.745 108.303 292.136 108.45 292.44 108.718C292.744 108.985 292.941 109.353 292.993 109.755C293 109.828 293.007 109.895 293.007 109.968H293.007ZM285.203 106.969H284.344V106.883C283.904 106.943 283.457 107.003 283.011 107.069V108.302H289.168C287.875 107.836 286.554 107.391 285.203 106.969Z"
    fill="#3F3D56"/>
  <path
    d="M249.69 95.6417C251.898 95.6417 253.688 93.8516 253.688 91.6434C253.688 89.4351 251.898 87.645 249.69 87.645C247.482 87.645 245.691 89.4351 245.691 91.6434C245.691 93.8516 247.482 95.6417 249.69 95.6417Z"
    fill="#3B635A"/>
  <path
    d="M289.483 21.8566C285.681 25.2527 280.584 28.898 275.929 26.4098C272.872 24.7761 271.511 21.1933 272.225 17.8018C273.509 11.7028 278.782 8.40742 283.887 5.74354C290.523 2.2805 297.846 -0.739521 305.278 0.160778C312.709 1.06108 319.97 7.20169 319.619 14.6792C319.337 20.6924 314.426 26.3021 315.981 32.1178C317.545 37.9708 324.65 40.2373 330.701 40.5351C336.752 40.8328 343.413 40.3169 348.213 44.0132C354.337 48.7286 354.239 58.5886 349.88 64.9706C345.52 71.3526 338.159 74.9437 330.928 77.6736C321.348 81.2906 310.818 83.904 300.93 81.2448C291.041 78.5856 282.384 69.0984 283.834 58.9616C284.447 54.6798 286.7 50.8362 288.873 47.0968C291.047 43.3573 293.234 39.4583 293.691 35.157C294.071 31.5727 292.932 27.6159 290.289 25.307C289.81 24.9049 289.471 24.3616 289.321 23.7549C289.171 23.1482 289.216 22.5095 289.452 21.9304L289.483 21.8566Z"
    fill="#2F2E41"/>
  <path
    d="M0.530968 191.93H344.373C344.513 191.93 344.648 191.875 344.747 191.775C344.846 191.676 344.902 191.541 344.902 191.401C344.902 191.261 344.846 191.126 344.747 191.027C344.648 190.927 344.513 190.872 344.373 190.872H0.530968C0.461313 190.871 0.392304 190.885 0.327893 190.911C0.263482 190.938 0.20494 190.977 0.155615 191.026C0.10629 191.075 0.0671533 191.134 0.0404507 191.198C0.0137481 191.262 0 191.331 0 191.401C0 191.471 0.0137481 191.54 0.0404507 191.604C0.0671533 191.668 0.10629 191.727 0.155615 191.776C0.20494 191.825 0.263482 191.864 0.327893 191.891C0.392304 191.917 0.461313 191.931 0.530968 191.93Z"
    fill="#3F3D56"/>
  <path
    d="M4.94238 125.986V127.319C4.9443 129.528 5.82252 131.645 7.38426 133.207C8.946 134.769 11.0636 135.647 13.2723 135.649H73.2473C75.4563 135.648 77.5745 134.77 79.1365 133.208C80.6985 131.646 81.5764 129.528 81.5772 127.319V125.986C81.5813 124.037 80.8968 122.149 79.6444 120.655C79.2276 120.159 78.756 119.712 78.2384 119.322C78.2384 119.322 45.2654 118.576 45.2654 117.656H13.2723C11.064 117.66 8.94701 118.538 7.38552 120.1C5.82403 121.661 4.94544 123.778 4.94238 125.986Z"
    fill="#3F3D56"/>
  <path d="M38.5977 191.295H47.2607L47.2607 135.318H38.5977L38.5977 191.295Z" fill="#3F3D56"/>
  <path
    d="M13.9414 190.99C13.9414 191.926 27.0689 191.352 43.2626 191.352C59.4562 191.352 72.5837 191.926 72.5837 190.99C72.5837 190.054 59.4562 182.632 43.2626 182.632C27.0689 182.632 13.9414 190.054 13.9414 190.99Z"
    fill="#3F3D56"/>
  <path d="M86.975 184.135H95.1449L99.0313 152.623L86.9736 152.623L86.975 184.135Z" fill="#A0616A"/>
  <path
    d="M110.9 191.721L85.2239 191.722L85.2235 181.801L100.979 181.801C103.611 181.801 106.134 182.846 107.994 184.706C109.855 186.566 110.9 189.09 110.9 191.721L110.9 191.721Z"
    fill="#2F2E41"/>
  <path d="M99.7284 179.576L107.523 177.13L101.798 145.899L90.293 149.51L99.7284 179.576Z" fill="#A0616A"/>
  <path
    d="M124.827 179.65L100.329 187.338L97.3583 177.873L112.391 173.155C114.902 172.367 117.622 172.609 119.954 173.827C122.287 175.045 124.039 177.14 124.827 179.65L124.827 179.65Z"
    fill="#2F2E41"/>
  <path
    d="M94.262 165.072L79.3167 125.841C75.9637 126.628 47.8454 132.85 38.4277 122.823C35.2002 119.386 34.5708 114.407 36.5568 108.024L42.0529 101.117L42.2237 101.126C44.3018 101.236 93.1594 103.974 96.5086 118.711C99.3324 131.136 104.49 154.3 106.003 161.104C106.156 161.809 106.051 162.546 105.707 163.18C105.363 163.814 104.802 164.303 104.128 164.558L98.1173 166.812C97.7824 166.938 97.4275 167.003 97.0697 167.003C96.4613 167.002 95.8673 166.818 95.366 166.473C94.8647 166.128 94.4798 165.64 94.262 165.072Z"
    fill="#2F2E41"/>
  <path
    d="M85.5989 169.737L70.6536 130.505C67.3005 131.293 39.1823 137.514 29.7647 127.488C26.5372 124.051 25.9077 119.072 27.8937 112.689L33.3898 105.782L33.5606 105.791C35.6387 105.9 84.4963 108.639 87.8455 123.376C90.6694 135.801 95.8266 158.965 97.3398 165.769C97.4932 166.474 97.3882 167.21 97.044 167.844C96.6998 168.478 96.1393 168.968 95.4645 169.223L89.4542 171.477C89.1193 171.603 88.7644 171.667 88.4066 171.667C87.7982 171.667 87.2042 171.483 86.7029 171.138C86.2016 170.793 85.8167 170.305 85.5989 169.737Z"
    fill="#2F2E41"/>
  <path
    d="M72.1553 93.6229C69.9403 93.6221 67.7634 93.0461 65.8378 91.9514C63.9122 90.8567 62.3039 89.2807 61.1702 87.3778L56.4238 79.3372L67.7054 73.1711L72.4956 79.739L104.998 76.3147C105.156 76.0286 105.334 75.7538 105.53 75.4924C106.154 74.6717 106.944 73.9916 107.848 73.4963C108.752 73.001 109.75 72.7016 110.777 72.6176C111.809 72.5291 112.848 72.6624 113.824 73.0087C114.8 73.3549 115.691 73.906 116.436 74.6249C117.632 75.7712 118.405 77.2878 118.63 78.9285C118.854 80.5692 118.518 82.2378 117.676 83.6635C117.149 84.5519 116.44 85.3188 115.596 85.9141C114.751 86.5093 113.791 86.9195 112.777 87.1178C111.763 87.316 110.719 87.2978 109.713 87.0644C108.707 86.8309 107.761 86.3876 106.938 85.7632C106.747 85.6173 106.564 85.4616 106.39 85.2966L75.2596 93.2338C74.2451 93.4924 73.2023 93.6231 72.1553 93.6229Z"
    fill="#A0616A"/>
  <path
    d="M27.6827 114.76C27.2329 114.436 26.8817 113.994 26.6678 113.482C26.4539 112.971 26.3857 112.41 26.4709 111.862C28.3251 99.6388 26.1917 82.1285 24.0753 69.5914C23.6421 67.0477 23.8107 64.4378 24.5676 61.971C25.3244 59.5041 26.6485 57.2487 28.4337 55.3856C30.2189 53.5224 32.4157 52.1033 34.8481 51.2419C37.2804 50.3805 39.8807 50.1007 42.4406 50.4249C44.6678 50.7191 46.8742 51.1541 49.0464 51.7271C52.6547 52.6358 55.8464 54.7451 58.0968 57.7084C60.3473 60.6717 61.5225 64.3124 61.4293 68.0322C61.1128 80.13 63.5693 95.2247 64.6402 101.153C64.7132 101.56 64.7016 101.978 64.606 102.38C64.5105 102.783 64.3329 103.161 64.0846 103.492C63.841 103.82 63.5317 104.092 63.1765 104.293C62.8212 104.494 62.4279 104.618 62.0218 104.658C50.1547 105.869 37.3572 111.657 30.7851 114.998C30.3627 115.216 29.8946 115.331 29.4193 115.332C28.7945 115.33 28.1864 115.13 27.6827 114.76Z"
    fill="#CCCCCC"/>
  <path
    d="M59.717 83.2322C59.3502 83.0881 59.0157 82.8727 58.7327 82.5985C58.4498 82.3242 58.2241 81.9966 58.0686 81.6345L51.4504 66.346C51.0497 65.4222 50.8349 64.4286 50.8184 63.4218C50.8019 62.4151 50.9839 61.4149 51.3541 60.4785C51.7243 59.5422 52.2755 58.688 52.976 57.9647C53.6765 57.2414 54.5127 56.6633 55.4367 56.2633C56.3608 55.8633 57.3546 55.6494 58.3613 55.6337C59.3681 55.6181 60.3681 55.8009 61.3042 56.1719C62.2402 56.5429 63.094 57.0947 63.8167 57.7958C64.5394 58.4969 65.1168 59.3336 65.516 60.258L72.1344 75.5466C72.4492 76.2765 72.4617 77.1015 72.1691 77.8407C71.8766 78.5799 71.3028 79.1728 70.5737 79.4896L62.012 83.1957C61.6509 83.3533 61.2621 83.4377 60.8682 83.444C60.4742 83.4502 60.083 83.3782 59.717 83.2322H59.717Z"
    fill="#CCCCCC"/>
  <path
    d="M41.2227 45.2239C50.262 45.2239 57.5899 37.8961 57.5899 28.8567C57.5899 19.8173 50.262 12.4895 41.2227 12.4895C32.1833 12.4895 24.8555 19.8173 24.8555 28.8567C24.8555 37.8961 32.1833 45.2239 41.2227 45.2239Z"
    fill="#A0616A"/>
  <path
    d="M31.3318 43.3976C31.0999 43.6653 30.8167 43.8837 30.499 44.04C30.1812 44.1963 29.8354 44.2873 29.4819 44.3076C29.1283 44.3279 28.7743 44.2771 28.4408 44.1583C28.1072 44.0394 27.8009 43.8548 27.5399 43.6155C23.8903 40.6612 20.9957 36.8812 19.0952 32.5875C16.9674 27.5157 16.6556 21.3262 19.0772 16.5722C21.1244 12.5533 24.7993 9.99512 28.468 7.90428C29.8744 7.0181 31.4156 6.36668 33.0313 5.97556C33.8473 5.79034 34.6931 5.77806 35.5142 5.93952C36.3353 6.10098 37.1134 6.43259 37.7986 6.91302C38.5256 7.46586 39.0883 8.20632 39.4262 9.05485C39.7641 9.90337 39.8644 10.8279 39.7165 11.7292C41.3946 9.51846 43.657 7.82053 46.2485 6.82685C47.8386 6.14249 49.6151 6.0235 51.2822 6.48969C53.6383 7.27609 55.3822 9.65521 56.3527 12.2113C57.1375 14.1683 57.4249 16.2893 57.1893 18.3846C57.0865 19.3851 56.7814 20.3542 56.2923 21.2331C55.8032 22.1119 55.1405 22.8821 54.3444 23.4968C52.4226 24.8228 49.9467 24.6881 47.7117 24.1012C45.4768 23.5144 43.3077 22.5193 41.0337 22.2418C38.7597 21.9644 36.2395 22.5659 34.8847 24.5941C33.9306 26.0225 33.7056 27.904 33.511 29.6975L32.4984 39.0261C32.4269 40.3607 32.1393 41.6749 31.647 42.9175C31.5637 43.0908 31.4577 43.2523 31.3318 43.3976Z"
    fill="#2F2E41"/>
  <path
    d="M90.5324 144.203H63.9618C63.5312 144.204 63.106 144.107 62.7185 143.919C62.3311 143.731 61.9915 143.458 61.7259 143.119C61.4543 142.775 61.2647 142.375 61.1715 141.947C61.0783 141.519 61.084 141.075 61.188 140.65C63.6734 130.24 63.6733 119.39 61.1878 108.98C61.0838 108.555 61.0782 108.111 61.1715 107.683C61.2647 107.256 61.4543 106.855 61.7259 106.511C61.9915 106.172 62.3311 105.899 62.7185 105.711C63.106 105.523 63.5312 105.426 63.9618 105.428H90.5324C91.2113 105.429 91.8677 105.671 92.3848 106.111C92.9019 106.551 93.246 107.16 93.356 107.83C95.089 119.087 95.089 130.543 93.356 141.8C93.246 142.47 92.9019 143.079 92.3848 143.519C91.8677 143.959 91.2113 144.201 90.5324 144.203Z"
    fill="#CCCCCC"/>
  <path
    d="M70.1387 119.873V119.092C70.1393 118.562 70.3501 118.054 70.7249 117.679C71.0996 117.304 71.6078 117.093 72.1378 117.093H86.0811C86.6111 117.093 87.1193 117.304 87.4941 117.679C87.8689 118.054 88.0797 118.562 88.0803 119.092V119.873C88.0797 120.403 87.8689 120.911 87.4941 121.286C87.1193 121.66 86.6111 121.871 86.0811 121.872H72.1378C71.6078 121.871 71.0996 121.66 70.7249 121.286C70.3501 120.911 70.1393 120.403 70.1387 119.873Z"
    fill="white"/>
  <path
    d="M70.1387 128.099V127.318C70.1393 126.788 70.3501 126.28 70.7249 125.905C71.0996 125.53 71.6078 125.319 72.1378 125.319H86.0811C86.6111 125.319 87.1193 125.53 87.4941 125.905C87.8689 126.28 88.0797 126.788 88.0803 127.318V128.099C88.0797 128.629 87.8689 129.137 87.4941 129.512C87.1193 129.887 86.6111 130.098 86.0811 130.098H72.1378C71.6078 130.098 71.0996 129.887 70.7249 129.512C70.3501 129.137 70.1393 128.629 70.1387 128.099Z"
    fill="white"/>
  <path
    d="M78.7098 96.0539C78.4338 95.7047 78.241 95.2972 78.1463 94.8623C78.0515 94.4274 78.0572 93.9766 78.1629 93.5442C80.6893 82.9627 80.6893 71.9351 78.1627 61.3537C78.0571 60.9213 78.0515 60.4705 78.1463 60.0356C78.2411 59.6008 78.4338 59.1932 78.7098 58.8441C78.98 58.4998 79.3251 58.2216 79.7189 58.0308C80.1127 57.84 80.5449 57.7416 80.9825 57.7429H107.989C108.68 57.7442 109.347 57.9904 109.872 58.4377C110.398 58.8849 110.748 59.5042 110.859 60.1852C112.621 71.627 112.621 83.271 110.859 94.7127C110.748 95.3937 110.398 96.013 109.872 96.4603C109.347 96.9075 108.68 97.1537 107.989 97.155H80.9824C80.5448 97.1564 80.1127 97.0579 79.7189 96.8671C79.325 96.6763 78.9799 96.3982 78.7098 96.0539Z"
    fill="#3B635A"/>
  <path
    d="M102.778 72.2848H88.5509C88.0209 72.2842 87.5127 72.0734 87.1379 71.6986C86.7631 71.3238 86.5523 70.8156 86.5518 70.2856V69.4367C86.5523 68.9066 86.7631 68.3985 87.1379 68.0237C87.5127 67.6489 88.0209 67.4381 88.5509 67.4375H102.778C103.308 67.4381 103.816 67.6489 104.191 68.0237C104.566 68.3985 104.777 68.9066 104.777 69.4367V70.2856C104.777 70.8156 104.566 71.3238 104.191 71.6986C103.816 72.0734 103.308 72.2842 102.778 72.2848Z"
    fill="white"/>
  <path
    d="M102.778 80.6461H88.5509C88.0209 80.6456 87.5127 80.4347 87.1379 80.06C86.7631 79.6852 86.5523 79.177 86.5518 78.647V77.798C86.5523 77.268 86.7631 76.7598 87.1379 76.385C87.5127 76.0102 88.0209 75.7994 88.5509 75.7988H102.778C103.308 75.7994 103.816 76.0102 104.191 76.385C104.566 76.7598 104.777 77.268 104.777 77.798V78.647C104.777 79.177 104.566 79.6852 104.191 80.06C103.816 80.4347 103.308 80.6456 102.778 80.6461Z"
    fill="white"/>
  <path
    d="M66.3191 110.713C65.346 110.373 64.4553 109.832 63.7051 109.125C62.9549 108.418 62.362 107.561 61.9649 106.61C61.8733 106.388 61.7934 106.161 61.7256 105.931L26.8588 96.0061C25.3605 95.5735 24.0416 94.6692 23.0979 93.4276C22.1542 92.186 21.636 90.6733 21.6202 89.1138L21.5352 75.6516L34.3871 75.9955L35.2246 84.0817L65.0393 97.4674C65.32 97.2997 65.6121 97.1517 65.9133 97.0245H65.9135C67.0117 96.5641 68.2055 96.3779 69.3918 96.482C70.5782 96.5861 71.7213 96.9774 72.7226 97.6221C73.7238 98.2668 74.5531 99.1455 75.1388 100.182C75.7244 101.219 76.0489 102.383 76.0842 103.574C76.1195 104.764 75.8645 105.945 75.3412 107.015C74.8179 108.084 74.0422 109.011 73.0808 109.714C72.1195 110.416 71.0015 110.875 69.8235 111.049C68.6454 111.223 67.4427 111.108 66.3191 110.713Z"
    fill="#A0616A"/>
  <path
    d="M21.7349 81.5616C21.4731 81.2671 21.2723 80.9235 21.1442 80.5509C21.0162 80.1783 20.9632 79.7839 20.9886 79.3907L22.0108 62.7625C22.071 61.7569 22.3289 60.773 22.7697 59.8671C23.2105 58.9612 23.8256 58.1511 24.5798 57.4832C25.334 56.8152 26.2125 56.3026 27.1651 55.9746C28.1176 55.6465 29.1255 55.5095 30.1311 55.5713C31.1366 55.6332 32.1201 55.8927 33.0252 56.3351C33.9304 56.7774 34.7394 57.3939 35.406 58.1493C36.0727 58.9046 36.5839 59.784 36.9103 60.7371C37.2367 61.6902 37.3721 62.6983 37.3085 63.7037L36.2864 80.3319C36.2366 81.1253 35.8741 81.8666 35.2786 82.3931C34.683 82.9197 33.9029 83.1886 33.1094 83.1408L23.7976 82.5683C23.4042 82.5453 23.0194 82.4445 22.6653 82.2717C22.3113 82.0988 21.995 81.8575 21.7349 81.5616H21.7349Z"
    fill="#CCCCCC"/>
</svg>
