<svg width="18" height="15" viewBox="0 0 18 15" fill="none" xmlns="http://www.w3.org/2000/svg">
  <path
    d="M10.7004 13.8181C10.7823 13.8181 10.8642 13.7869 10.9267 13.7244L16.9667 7.68182C16.9668 7.68166 16.967 7.68146 16.9672 7.6813C16.9672 7.68126 16.9673 7.68122 16.9673 7.68118C17.0239 7.62424 17.0547 7.55129 17.0597 7.47694C17.0611 7.45625 17.0605 7.43532 17.0578 7.41455C17.0501 7.35401 17.0251 7.29526 16.9827 7.24628C16.977 7.23972 16.9711 7.2334 16.965 7.22735L10.9267 1.18653C10.8017 1.06152 10.5991 1.06152 10.4741 1.18653C10.3492 1.31155 10.3492 1.51423 10.4741 1.63924L15.9679 7.13531H0.820427C0.643707 7.13531 0.500427 7.27865 0.500427 7.45545C0.500427 7.63224 0.643707 7.77558 0.820427 7.77558H15.9679L10.4741 13.2716C10.4117 13.3341 10.3804 13.416 10.3804 13.498C10.3804 13.5799 10.4117 13.6619 10.4741 13.7244C10.5366 13.7869 10.6185 13.8181 10.7004 13.8181Z"
    fill="#4D4D4D" stroke="#4D4D4D" stroke-width="1.00042"/>
</svg>
