<svg width="49" height="39" viewBox="0 0 49 39" fill="none" xmlns="http://www.w3.org/2000/svg">
  <path
    d="M8.50533 4.86019C8.50533 4.19024 9.05043 3.64514 9.72037 3.64514H34.0213C34.6913 3.64514 35.2364 4.19024 35.2364 4.86019V7.29028H38.8815V4.86019C38.8815 2.17569 36.7058 0 34.0213 0H9.72037C7.03588 0 4.86019 2.17569 4.86019 4.86019V24.3009H1.21505C0.544037 24.3009 0 24.8477 0 25.516C0 27.5284 1.63196 29.1611 3.64514 29.1611H26.731V24.3009H8.50533V4.86019ZM43.7417 9.72037H34.0213C31.3368 9.72037 29.1611 11.8961 29.1611 14.5806V34.0213C29.1611 36.7058 31.3368 38.8815 34.0213 38.8815H43.7417C46.4262 38.8815 48.6019 36.7058 48.6019 34.0213V14.5806C48.6019 11.8999 46.4224 9.72037 43.7417 9.72037ZM44.9567 34.0213C44.9567 34.6913 44.4116 35.2364 43.7417 35.2364H34.0213C33.3514 35.2364 32.8063 34.6913 32.8063 34.0213V14.5806C32.8063 13.9106 33.3514 13.3655 34.0213 13.3655H43.7417C44.4116 13.3655 44.9567 13.9106 44.9567 14.5806V34.0213Z"
    fill="#7D7D7D"/>
</svg>
