<svg width="59" height="98" viewBox="0 0 59 98" fill="none" xmlns="http://www.w3.org/2000/svg">
  <path
    d="M15.192 81.575L11.277 92H9.29703L5.36703 81.575H7.19703L10.287 90.245L13.392 81.575H15.192ZM24.1071 83.735V92H22.3971V91.025C22.1271 91.365 21.7721 91.635 21.3321 91.835C20.9021 92.025 20.4421 92.12 19.9521 92.12C19.3021 92.12 18.7171 91.985 18.1971 91.715C17.6871 91.445 17.2821 91.045 16.9821 90.515C16.6921 89.985 16.5471 89.345 16.5471 88.595V83.735H18.2421V88.34C18.2421 89.08 18.4271 89.65 18.7971 90.05C19.1671 90.44 19.6721 90.635 20.3121 90.635C20.9521 90.635 21.4571 90.44 21.8271 90.05C22.2071 89.65 22.3971 89.08 22.3971 88.34V83.735H24.1071ZM33.9383 87.665C33.9383 87.975 33.9183 88.255 33.8783 88.505H27.5633C27.6133 89.165 27.8583 89.695 28.2983 90.095C28.7383 90.495 29.2783 90.695 29.9183 90.695C30.8383 90.695 31.4883 90.31 31.8683 89.54H33.7133C33.4633 90.3 33.0083 90.925 32.3483 91.415C31.6983 91.895 30.8883 92.135 29.9183 92.135C29.1283 92.135 28.4183 91.96 27.7883 91.61C27.1683 91.25 26.6783 90.75 26.3183 90.11C25.9683 89.46 25.7933 88.71 25.7933 87.86C25.7933 87.01 25.9633 86.265 26.3033 85.625C26.6533 84.975 27.1383 84.475 27.7583 84.125C28.3883 83.775 29.1083 83.6 29.9183 83.6C30.6983 83.6 31.3933 83.77 32.0033 84.11C32.6133 84.45 33.0883 84.93 33.4283 85.55C33.7683 86.16 33.9383 86.865 33.9383 87.665ZM32.1533 87.125C32.1433 86.495 31.9183 85.99 31.4783 85.61C31.0383 85.23 30.4933 85.04 29.8433 85.04C29.2533 85.04 28.7483 85.23 28.3283 85.61C27.9083 85.98 27.6583 86.485 27.5783 87.125H32.1533ZM45.2026 81.575V89.09C45.2026 90.02 44.9176 90.755 44.3476 91.295C43.7876 91.835 43.0476 92.105 42.1276 92.105C41.2076 92.105 40.4626 91.835 39.8926 91.295C39.3326 90.755 39.0526 90.02 39.0526 89.09H40.7776C40.7876 89.55 40.9026 89.915 41.1226 90.185C41.3526 90.455 41.6876 90.59 42.1276 90.59C42.5676 90.59 42.9026 90.455 43.1326 90.185C43.3626 89.905 43.4776 89.54 43.4776 89.09V81.575H45.2026ZM50.9844 92.135C50.3344 92.135 49.7494 92.02 49.2294 91.79C48.7194 91.55 48.3144 91.23 48.0144 90.83C47.7144 90.42 47.5544 89.965 47.5344 89.465H49.3044C49.3344 89.815 49.4994 90.11 49.7994 90.35C50.1094 90.58 50.4944 90.695 50.9544 90.695C51.4344 90.695 51.8044 90.605 52.0644 90.425C52.3344 90.235 52.4694 89.995 52.4694 89.705C52.4694 89.395 52.3194 89.165 52.0194 89.015C51.7294 88.865 51.2644 88.7 50.6244 88.52C50.0044 88.35 49.4994 88.185 49.1094 88.025C48.7194 87.865 48.3794 87.62 48.0894 87.29C47.8094 86.96 47.6694 86.525 47.6694 85.985C47.6694 85.545 47.7994 85.145 48.0594 84.785C48.3194 84.415 48.6894 84.125 49.1694 83.915C49.6594 83.705 50.2194 83.6 50.8494 83.6C51.7894 83.6 52.5444 83.84 53.1144 84.32C53.6944 84.79 54.0044 85.435 54.0444 86.255H52.3344C52.3044 85.885 52.1544 85.59 51.8844 85.37C51.6144 85.15 51.2494 85.04 50.7894 85.04C50.3394 85.04 49.9944 85.125 49.7544 85.295C49.5144 85.465 49.3944 85.69 49.3944 85.97C49.3944 86.19 49.4744 86.375 49.6344 86.525C49.7944 86.675 49.9894 86.795 50.2194 86.885C50.4494 86.965 50.7894 87.07 51.2394 87.2C51.8394 87.36 52.3294 87.525 52.7094 87.695C53.0994 87.855 53.4344 88.095 53.7144 88.415C53.9944 88.735 54.1394 89.16 54.1494 89.69C54.1494 90.16 54.0194 90.58 53.7594 90.95C53.4994 91.32 53.1294 91.61 52.6494 91.82C52.1794 92.03 51.6244 92.135 50.9844 92.135Z"
    fill="black"/>
  <path fill-rule="evenodd" clip-rule="evenodd"
        d="M37.2082 0H47.1588H58.9469L29.962 53.2051L0.977051 0H23.7509L29.962 12.2856L37.2082 0ZM15.146 4.43701H8.18445L29.9619 44.3998L51.7265 4.43701H44.7649L29.9619 31.9201L15.146 4.43701Z"
        fill="black"/>
</svg>
