<svg width="50" height="50" viewBox="0 0 50 50" fill="none" xmlns="http://www.w3.org/2000/svg">
  <path fill-rule="evenodd" clip-rule="evenodd"
        d="M25 50C11.1939 50 0 38.8061 0 25C0 11.1939 11.1939 0 25 0C38.8061 0 50 11.1939 50 25C50 38.8061 38.8061 50 25 50ZM45.9082 32.8929H39.6735C37.7041 39.1888 33.2449 44.3521 27.4541 47.2041C35.9439 46.2755 42.9898 40.6123 45.9082 32.8929ZM37.4081 19.7347C37.8877 21.6684 38.1581 23.6582 38.1581 25.6582C38.1581 27.2398 37.9846 28.7756 37.6785 30.2603H26.3163V19.7347H37.4081ZM23.6837 32.8929H13.296C15.2194 37.9694 18.9694 42.7347 23.7143 45.2704L23.6837 32.8929ZM23.6838 19.7347V30.2654H12.4695C12.0613 28.5766 11.8419 26.8164 11.8419 25C11.8419 23.2245 12.0511 21.4592 12.4389 19.7347H23.6838ZM23.6837 17.1021V4.37756C18.8571 7.11226 15.0969 11.5867 13.199 17.1021H23.6837ZM26.3163 4.43872C30.9795 7.11219 34.653 11.755 36.6071 17.1071H26.3163V4.43872ZM26.3163 32.8929V45.6072C31.2959 42.9133 35.1479 38.3776 36.9795 32.8929H26.3163ZM10.5664 32.8929C12.7909 39.1684 17.5868 44.7398 23.6838 47.3164C14.6889 46.7908 7.13784 40.9541 4.09192 32.8929H10.5664ZM3.30115 19.653C2.86238 21.3979 2.62769 23.1173 2.62769 25C2.62769 26.8163 2.86748 28.5714 3.27564 30.2653H9.81136C9.4236 28.5714 9.20422 26.8163 9.20422 25C9.20422 23.2244 9.4185 21.4642 9.79095 19.7346H3.94911C3.91191 19.7346 3.87471 19.7353 3.83767 19.736C3.64619 19.7394 3.45934 19.7428 3.30115 19.653ZM10.4899 17.107H4.09192C6.92355 9.60701 14.2756 3.89782 22.4389 2.73456C17.1684 5.73966 12.4542 11.1019 10.4899 17.107ZM27.3163 2.78046C32.8367 5.6325 37.1632 10.9437 39.3061 17.107H45.9081C42.9744 9.34678 35.8673 3.66311 27.3163 2.78046ZM40.7908 25.6582C40.7908 23.6531 40.5459 21.6684 40.0867 19.7347H46.7194C47.1275 21.4286 47.3673 23.1837 47.3673 25C47.3673 26.8215 47.1275 28.5766 46.7194 30.2654H40.3367C40.6224 28.7705 40.7908 27.2347 40.7908 25.6582Z"
        fill="#3B635A"/>
</svg>
