<svg width="140" height="141" viewBox="0 0 140 141" fill="none" xmlns="http://www.w3.org/2000/svg">
  <circle cx="70" cy="70.9985" r="70" fill="#215F74"/>
  <path
    d="M59.72 61.0585L52.64 74.7085V81.9985H48.44V74.7085L41.33 61.0585H46.07L50.57 70.6285L55.04 61.0585H59.72ZM69.5223 82.2685C67.9223 82.2685 66.4823 81.9185 65.2023 81.2185C63.9223 80.4985 62.9123 79.4885 62.1723 78.1885C61.4523 76.8885 61.0923 75.3885 61.0923 73.6885C61.0923 71.9885 61.4623 70.4885 62.2023 69.1885C62.9623 67.8885 63.9923 66.8885 65.2923 66.1885C66.5923 65.4685 68.0423 65.1085 69.6423 65.1085C71.2423 65.1085 72.6923 65.4685 73.9923 66.1885C75.2923 66.8885 76.3123 67.8885 77.0523 69.1885C77.8123 70.4885 78.1923 71.9885 78.1923 73.6885C78.1923 75.3885 77.8023 76.8885 77.0223 78.1885C76.2623 79.4885 75.2223 80.4985 73.9023 81.2185C72.6023 81.9185 71.1423 82.2685 69.5223 82.2685ZM69.5223 78.6085C70.2823 78.6085 70.9923 78.4285 71.6523 78.0685C72.3323 77.6885 72.8723 77.1285 73.2723 76.3885C73.6723 75.6485 73.8723 74.7485 73.8723 73.6885C73.8723 72.1085 73.4523 70.8985 72.6123 70.0585C71.7923 69.1985 70.7823 68.7685 69.5823 68.7685C68.3823 68.7685 67.3723 69.1985 66.5523 70.0585C65.7523 70.8985 65.3523 72.1085 65.3523 73.6885C65.3523 75.2685 65.7423 76.4885 66.5223 77.3485C67.3223 78.1885 68.3223 78.6085 69.5223 78.6085ZM96.9631 65.3785V81.9985H92.7331V79.8985C92.1931 80.6185 91.4831 81.1885 90.6031 81.6085C89.7431 82.0085 88.8031 82.2085 87.7831 82.2085C86.4831 82.2085 85.3331 81.9385 84.3331 81.3985C83.3331 80.8385 82.5431 80.0285 81.9631 78.9685C81.4031 77.8885 81.1231 76.6085 81.1231 75.1285V65.3785H85.3231V74.5285C85.3231 75.8485 85.6531 76.8685 86.3131 77.5885C86.9731 78.2885 87.8731 78.6385 89.0131 78.6385C90.1731 78.6385 91.0831 78.2885 91.7431 77.5885C92.4031 76.8685 92.7331 75.8485 92.7331 74.5285V65.3785H96.9631Z"
    fill="white"/>
</svg>
